<svg width="16" height="16" viewBox="0 0 16 16" fill="none" xmlns="http://www.w3.org/2000/svg">
<path fill-rule="evenodd" clip-rule="evenodd" d="M10.7699 0.0318308C10.5849 0.0880367 10.3748 0.216677 10.2389 0.356783C10.0326 0.569658 9.94035 0.811045 9.91832 1.19574L9.89959 1.52315H5.09774C1.63473 1.52315 0.273074 1.53472 0.214185 1.56473C-0.0218942 1.68492 -0.0724825 1.97614 0.110952 2.1588L0.220242 2.2676H5.06053H9.90079L9.91671 2.59329C9.94397 3.15111 10.2045 3.55419 10.6433 3.71763C10.8299 3.78716 10.9321 3.79372 11.8302 3.79372C12.9727 3.79372 13.051 3.77838 13.3649 3.49274C13.6263 3.25485 13.7224 3.03226 13.7506 2.5988L13.7722 2.2676H14.7195H15.6668L15.7776 2.16523C15.9445 2.01098 15.9467 1.79495 15.783 1.63195L15.6737 1.52315H14.7229H13.7722L13.7497 1.21606C13.7179 0.782458 13.6362 0.575055 13.4075 0.347365C13.0801 0.0214457 12.966 -0.00356785 11.8248 0.000228836C11.296 0.00197829 10.8213 0.0161974 10.7699 0.0318308ZM12.6845 0.780188C12.7606 0.801256 12.8573 0.86204 12.8994 0.915268C12.9716 1.00665 12.9759 1.06185 12.9759 1.8998V2.78752L12.8669 2.90909L12.7579 3.03066L11.9054 3.04201C11.4366 3.04823 11.0131 3.04339 10.9644 3.03118C10.9156 3.01901 10.8351 2.96541 10.7854 2.91207L10.6951 2.81506V1.91141V1.00773L10.7899 0.895652C10.842 0.833974 10.9219 0.776354 10.9675 0.767569C11.1443 0.733511 12.553 0.743859 12.6845 0.780188ZM4.55072 6.16605C4.31371 6.2447 4.03037 6.50239 3.90863 6.75007C3.83426 6.90145 3.80592 7.02887 3.78906 7.28805L3.76696 7.62763L2.02452 7.62845C0.430036 7.62923 0.275317 7.63474 0.202332 7.69359C0.0387521 7.8255 -0.000918505 8.00108 0.0923316 8.18057C0.190592 8.36969 0.21482 8.37208 2.05432 8.37208H3.76696L3.78906 8.71166C3.81628 9.13 3.92516 9.37552 4.18763 9.61047C4.48301 9.87482 4.60591 9.8982 5.70109 9.8982C6.82324 9.8982 6.9237 9.87862 7.22955 9.60034C7.49692 9.35706 7.59605 9.1284 7.6208 8.69777L7.63953 8.37208H11.7044H15.7692L15.8667 8.28218C16.0444 8.11814 16.0444 7.88156 15.8667 7.71752L15.7692 7.62763H11.7044H7.63953L7.6208 7.30193C7.59616 6.87313 7.49666 6.64239 7.23299 6.40249C6.91862 6.11647 6.84025 6.10114 5.70629 6.10382C4.9143 6.10568 4.69755 6.11736 4.55072 6.16605ZM6.73496 6.98614L6.84399 7.1077V7.99985V8.892L6.73488 9.01357L6.62578 9.13514H5.7036H4.78142L4.67232 9.01357L4.56321 8.892V8.00428C4.56321 7.15379 4.56658 7.11232 4.64315 7.01539C4.68712 6.95975 4.75865 6.89944 4.80206 6.88147C4.8455 6.86345 5.27362 6.85228 5.75348 6.85664L6.62593 6.86457L6.73496 6.98614ZM9.10457 12.281C8.67384 12.4485 8.4172 12.8486 8.38549 13.4019L8.36661 13.7321H4.31255C1.60351 13.7321 0.2346 13.7448 0.186554 13.7704C0.100221 13.8164 0.00166142 13.9953 0.00166142 14.106C0.00166142 14.2199 0.110914 14.3889 0.215232 14.4362C0.277523 14.4644 1.51662 14.4766 4.33543 14.4766H8.36661L8.38534 14.804C8.41507 15.3228 8.62243 15.671 9.02893 15.8846L9.21824 15.9841L10.23 15.9955C11.1767 16.0062 11.2549 16.002 11.4481 15.9301C11.956 15.7409 12.2281 15.3045 12.2281 14.6795V14.4766H13.9705H15.7128L15.84 14.35C15.9206 14.2697 15.9671 14.1873 15.9671 14.1248C15.9671 13.9976 15.8741 13.8194 15.7822 13.7704C15.7358 13.7457 15.0936 13.7321 13.9747 13.7321H12.2392L12.2175 13.3989C12.1836 12.8776 12.0023 12.5658 11.5925 12.3239L11.4242 12.2246L10.3586 12.2161C9.37565 12.2083 9.2784 12.2134 9.10457 12.281ZM11.3158 13.077L11.4429 13.2035V14.0956C11.4429 14.9379 11.4387 14.993 11.3665 15.0844C11.3244 15.1377 11.2276 15.1984 11.1515 15.2195C10.9335 15.2798 9.5605 15.2694 9.40889 15.2063C9.16776 15.106 9.162 15.0798 9.16335 14.0867C9.16458 13.1424 9.16511 13.1394 9.34809 13.0139C9.4287 12.9586 9.5522 12.9504 10.3146 12.9504H11.1887L11.3158 13.077Z" fill="#185C5C"/>
<path fill-rule="evenodd" clip-rule="evenodd" d="M10.7699 0.0318308C10.5849 0.0880367 10.3748 0.216677 10.2389 0.356783C10.0326 0.569658 9.94035 0.811045 9.91832 1.19574L9.89959 1.52315H5.09774C1.63473 1.52315 0.273074 1.53472 0.214185 1.56473C-0.0218942 1.68492 -0.0724825 1.97614 0.110952 2.1588L0.220242 2.2676H5.06053H9.90079L9.91671 2.59329C9.94397 3.15111 10.2045 3.55419 10.6433 3.71763C10.8299 3.78716 10.9321 3.79372 11.8302 3.79372C12.9727 3.79372 13.051 3.77838 13.3649 3.49274C13.6263 3.25485 13.7224 3.03226 13.7506 2.5988L13.7722 2.2676H14.7195H15.6668L15.7776 2.16523C15.9445 2.01098 15.9467 1.79495 15.783 1.63195L15.6737 1.52315H14.7229H13.7722L13.7497 1.21606C13.7179 0.782458 13.6362 0.575055 13.4075 0.347365C13.0801 0.0214457 12.966 -0.00356785 11.8248 0.000228836C11.296 0.00197829 10.8213 0.0161974 10.7699 0.0318308ZM12.6845 0.780188C12.7606 0.801256 12.8573 0.86204 12.8994 0.915268C12.9716 1.00665 12.9759 1.06185 12.9759 1.8998V2.78752L12.8669 2.90909L12.7579 3.03066L11.9054 3.04201C11.4366 3.04823 11.0131 3.04339 10.9644 3.03118C10.9156 3.01901 10.8351 2.96541 10.7854 2.91207L10.6951 2.81506V1.91141V1.00773L10.7899 0.895652C10.842 0.833974 10.9219 0.776354 10.9675 0.767569C11.1443 0.733511 12.553 0.743859 12.6845 0.780188ZM4.55072 6.16605C4.31371 6.2447 4.03037 6.50239 3.90863 6.75007C3.83426 6.90145 3.80592 7.02887 3.78906 7.28805L3.76696 7.62763L2.02452 7.62845C0.430036 7.62923 0.275317 7.63474 0.202332 7.69359C0.0387521 7.8255 -0.000918505 8.00108 0.0923316 8.18057C0.190592 8.36969 0.21482 8.37208 2.05432 8.37208H3.76696L3.78906 8.71166C3.81628 9.13 3.92516 9.37552 4.18763 9.61047C4.48301 9.87482 4.60591 9.8982 5.70109 9.8982C6.82324 9.8982 6.9237 9.87862 7.22955 9.60034C7.49692 9.35706 7.59605 9.1284 7.6208 8.69777L7.63953 8.37208H11.7044H15.7692L15.8667 8.28218C16.0444 8.11814 16.0444 7.88156 15.8667 7.71752L15.7692 7.62763H11.7044H7.63953L7.6208 7.30193C7.59616 6.87313 7.49666 6.64239 7.23299 6.40249C6.91862 6.11647 6.84025 6.10114 5.70629 6.10382C4.9143 6.10568 4.69755 6.11736 4.55072 6.16605ZM6.73496 6.98614L6.84399 7.1077V7.99985V8.892L6.73488 9.01357L6.62578 9.13514H5.7036H4.78142L4.67232 9.01357L4.56321 8.892V8.00428C4.56321 7.15379 4.56658 7.11232 4.64315 7.01539C4.68712 6.95975 4.75865 6.89944 4.80206 6.88147C4.8455 6.86345 5.27362 6.85228 5.75348 6.85664L6.62593 6.86457L6.73496 6.98614ZM9.10457 12.281C8.67384 12.4485 8.4172 12.8486 8.38549 13.4019L8.36661 13.7321H4.31255C1.60351 13.7321 0.2346 13.7448 0.186554 13.7704C0.100221 13.8164 0.00166142 13.9953 0.00166142 14.106C0.00166142 14.2199 0.110914 14.3889 0.215232 14.4362C0.277523 14.4644 1.51662 14.4766 4.33543 14.4766H8.36661L8.38534 14.804C8.41507 15.3228 8.62243 15.671 9.02893 15.8846L9.21824 15.9841L10.23 15.9955C11.1767 16.0062 11.2549 16.002 11.4481 15.9301C11.956 15.7409 12.2281 15.3045 12.2281 14.6795V14.4766H13.9705H15.7128L15.84 14.35C15.9206 14.2697 15.9671 14.1873 15.9671 14.1248C15.9671 13.9976 15.8741 13.8194 15.7822 13.7704C15.7358 13.7457 15.0936 13.7321 13.9747 13.7321H12.2392L12.2175 13.3989C12.1836 12.8776 12.0023 12.5658 11.5925 12.3239L11.4242 12.2246L10.3586 12.2161C9.37565 12.2083 9.2784 12.2134 9.10457 12.281ZM11.3158 13.077L11.4429 13.2035V14.0956C11.4429 14.9379 11.4387 14.993 11.3665 15.0844C11.3244 15.1377 11.2276 15.1984 11.1515 15.2195C10.9335 15.2798 9.5605 15.2694 9.40889 15.2063C9.16776 15.106 9.162 15.0798 9.16335 14.0867C9.16458 13.1424 9.16511 13.1394 9.34809 13.0139C9.4287 12.9586 9.5522 12.9504 10.3146 12.9504H11.1887L11.3158 13.077Z" fill="black" fill-opacity="0.2"/>
</svg>
