<svg width="17" height="15" viewBox="0 0 17 15" fill="none" xmlns="http://www.w3.org/2000/svg">
<path d="M12.7499 -0.00012207L12.6689 0.00643835C12.5232 0.0291235 12.3897 0.112198 12.2929 0.240252C12.1961 0.368305 12.1428 0.532644 12.1427 0.702783V12.5978L9.53602 9.58188L9.46802 9.51441C9.34481 9.40838 9.19148 9.36032 9.03889 9.37992C8.88631 9.39951 8.7458 9.4853 8.64565 9.62001C8.5455 9.75472 8.49315 9.92835 8.49914 10.106C8.50513 10.2836 8.56901 10.4519 8.67792 10.5772L12.324 14.7946L12.392 14.8621C12.509 14.9621 12.6531 15.0102 12.7981 14.9977C12.9431 14.9851 13.0793 14.9127 13.1821 14.7937L16.8226 10.5763L16.8809 10.4975C16.9675 10.3621 17.0092 10.1951 16.9983 10.027C16.9875 9.85892 16.9248 9.70095 16.8218 9.58188L16.7538 9.51441C16.6368 9.41414 16.4925 9.36588 16.3473 9.37844C16.2022 9.391 16.0657 9.46353 15.9629 9.58282L13.357 12.6016V0.702783L13.3521 0.607188C13.3322 0.438909 13.2603 0.284687 13.1497 0.173043C13.0391 0.0613989 12.8974 -0.000114907 12.7507 -0.00012207H12.7499ZM3.8159 0.206063L0.17788 4.41881L0.118784 4.49754C0.0323961 4.63293 -0.0091528 4.79973 0.00169202 4.96759C0.0125368 5.13545 0.0750552 5.29323 0.17788 5.41225L0.24588 5.48067C0.362833 5.58068 0.506904 5.62878 0.651898 5.61623C0.796891 5.60367 0.933179 5.53129 1.03598 5.41225L3.64023 2.39632V14.297L3.64671 14.3926C3.66666 14.5608 3.73857 14.7151 3.84915 14.8267C3.95972 14.9384 4.10147 14.9999 4.24819 14.9999L4.32995 14.9933C4.47545 14.9704 4.60885 14.8873 4.70545 14.7592C4.80205 14.6312 4.8553 14.467 4.85533 14.297L4.85452 2.39819L7.46363 5.41319L7.53163 5.48067C7.65493 5.58537 7.80781 5.63235 7.95973 5.61223C8.11165 5.59211 8.25141 5.50637 8.3511 5.37214C8.45079 5.2379 8.50306 5.06507 8.49746 4.88816C8.49187 4.71125 8.42882 4.54331 8.32092 4.41787L4.67481 0.206063L4.606 0.138584C4.48905 0.0385713 4.34497 -0.0095303 4.19998 0.00302497C4.05499 0.0155802 3.9187 0.087959 3.8159 0.207001V0.206063Z" fill="#185C5C"/>
<path d="M12.7499 -0.00012207L12.6689 0.00643835C12.5232 0.0291235 12.3897 0.112198 12.2929 0.240252C12.1961 0.368305 12.1428 0.532644 12.1427 0.702783V12.5978L9.53602 9.58188L9.46802 9.51441C9.34481 9.40838 9.19148 9.36032 9.03889 9.37992C8.88631 9.39951 8.7458 9.4853 8.64565 9.62001C8.5455 9.75472 8.49315 9.92835 8.49914 10.106C8.50513 10.2836 8.56901 10.4519 8.67792 10.5772L12.324 14.7946L12.392 14.8621C12.509 14.9621 12.6531 15.0102 12.7981 14.9977C12.9431 14.9851 13.0793 14.9127 13.1821 14.7937L16.8226 10.5763L16.8809 10.4975C16.9675 10.3621 17.0092 10.1951 16.9983 10.027C16.9875 9.85892 16.9248 9.70095 16.8218 9.58188L16.7538 9.51441C16.6368 9.41414 16.4925 9.36588 16.3473 9.37844C16.2022 9.391 16.0657 9.46353 15.9629 9.58282L13.357 12.6016V0.702783L13.3521 0.607188C13.3322 0.438909 13.2603 0.284687 13.1497 0.173043C13.0391 0.0613989 12.8974 -0.000114907 12.7507 -0.00012207H12.7499ZM3.8159 0.206063L0.17788 4.41881L0.118784 4.49754C0.0323961 4.63293 -0.0091528 4.79973 0.00169202 4.96759C0.0125368 5.13545 0.0750552 5.29323 0.17788 5.41225L0.24588 5.48067C0.362833 5.58068 0.506904 5.62878 0.651898 5.61623C0.796891 5.60367 0.933179 5.53129 1.03598 5.41225L3.64023 2.39632V14.297L3.64671 14.3926C3.66666 14.5608 3.73857 14.7151 3.84915 14.8267C3.95972 14.9384 4.10147 14.9999 4.24819 14.9999L4.32995 14.9933C4.47545 14.9704 4.60885 14.8873 4.70545 14.7592C4.80205 14.6312 4.8553 14.467 4.85533 14.297L4.85452 2.39819L7.46363 5.41319L7.53163 5.48067C7.65493 5.58537 7.80781 5.63235 7.95973 5.61223C8.11165 5.59211 8.25141 5.50637 8.3511 5.37214C8.45079 5.2379 8.50306 5.06507 8.49746 4.88816C8.49187 4.71125 8.42882 4.54331 8.32092 4.41787L4.67481 0.206063L4.606 0.138584C4.48905 0.0385713 4.34497 -0.0095303 4.19998 0.00302497C4.05499 0.0155802 3.9187 0.087959 3.8159 0.207001V0.206063Z" fill="black" fill-opacity="0.2"/>
</svg>
