<svg width="14" height="16" viewBox="0 0 14 16" fill="none" xmlns="http://www.w3.org/2000/svg">
<path d="M2.05034 2.04192C3.36309 0.734441 5.14355 -9.15527e-05 7.00005 -9.15527e-05C8.85655 -9.15527e-05 10.637 0.734441 11.9498 2.04192C13.2625 3.34939 14 5.12271 14 6.97176C14 8.82081 13.2625 10.5941 11.9498 11.9016L10.9955 12.8416C10.2921 13.5286 9.37964 14.4126 8.25738 15.4935C7.92007 15.8183 7.46924 15.9999 7.00005 15.9999C6.53086 15.9999 6.08003 15.8183 5.74273 15.4935L2.93626 12.7744C2.58334 12.4293 2.2883 12.1386 2.05034 11.9016C1.40031 11.2542 0.884667 10.4857 0.532868 9.63979C0.181069 8.79393 0 7.88733 0 6.97176C0 6.0562 0.181069 5.1496 0.532868 4.30373C0.884667 3.45786 1.40031 2.6893 2.05034 2.04192ZM11.0968 2.89065C10.0101 1.80848 8.53621 1.20061 6.99948 1.20076C5.46275 1.20091 3.98902 1.80907 2.90249 2.89145C1.81596 3.97383 1.20565 5.44176 1.2058 6.97233C1.20595 8.50289 1.81656 9.97071 2.9033 11.0529L4.09792 12.2283C4.92312 13.0313 5.75062 13.832 6.58041 14.6304C6.69285 14.7387 6.84319 14.7993 6.99965 14.7993C7.15611 14.7993 7.30644 14.7387 7.41889 14.6304L10.1474 11.9881C10.5252 11.619 10.8412 11.3075 11.096 11.0529C12.1825 9.97069 12.7929 8.50296 12.7929 6.97256C12.7929 5.44216 12.1825 3.97443 11.096 2.89225L11.0968 2.89065ZM7.00005 4.78908C7.31698 4.78908 7.6308 4.85125 7.9236 4.97205C8.2164 5.09285 8.48245 5.2699 8.70655 5.4931C8.93065 5.7163 9.10842 5.98128 9.2297 6.27291C9.35098 6.56453 9.41341 6.8771 9.41341 7.19275C9.41341 7.50841 9.35098 7.82097 9.2297 8.1126C9.10842 8.40422 8.93065 8.6692 8.70655 8.8924C8.48245 9.1156 8.2164 9.29266 7.9236 9.41345C7.6308 9.53425 7.31698 9.59642 7.00005 9.59642C6.36772 9.58492 5.76519 9.32667 5.32209 8.87722C4.879 8.42777 4.63074 7.82305 4.63074 7.19315C4.63074 6.56326 4.879 5.95853 5.32209 5.50908C5.76519 5.05963 6.36772 4.80138 7.00005 4.78988V4.78908ZM7.00005 5.99012C6.84148 5.99012 6.68447 6.02122 6.53797 6.08166C6.39147 6.1421 6.25836 6.23068 6.14623 6.34236C6.03411 6.45403 5.94517 6.58661 5.88448 6.73252C5.8238 6.87843 5.79257 7.03482 5.79257 7.19275C5.79257 7.35068 5.8238 7.50707 5.88448 7.65298C5.94517 7.79889 6.03411 7.93147 6.14623 8.04314C6.25836 8.15482 6.39147 8.2434 6.53797 8.30384C6.68447 8.36428 6.84148 8.39539 7.00005 8.39539C7.32019 8.39539 7.62721 8.26872 7.85359 8.04326C8.07996 7.8178 8.20713 7.512 8.20713 7.19315C8.20713 6.8743 8.07996 6.56851 7.85359 6.34304C7.62721 6.11758 7.32019 5.99092 7.00005 5.99092V5.99012Z" fill="#185C5C"/>
<path d="M2.05034 2.04192C3.36309 0.734441 5.14355 -9.15527e-05 7.00005 -9.15527e-05C8.85655 -9.15527e-05 10.637 0.734441 11.9498 2.04192C13.2625 3.34939 14 5.12271 14 6.97176C14 8.82081 13.2625 10.5941 11.9498 11.9016L10.9955 12.8416C10.2921 13.5286 9.37964 14.4126 8.25738 15.4935C7.92007 15.8183 7.46924 15.9999 7.00005 15.9999C6.53086 15.9999 6.08003 15.8183 5.74273 15.4935L2.93626 12.7744C2.58334 12.4293 2.2883 12.1386 2.05034 11.9016C1.40031 11.2542 0.884667 10.4857 0.532868 9.63979C0.181069 8.79393 0 7.88733 0 6.97176C0 6.0562 0.181069 5.1496 0.532868 4.30373C0.884667 3.45786 1.40031 2.6893 2.05034 2.04192ZM11.0968 2.89065C10.0101 1.80848 8.53621 1.20061 6.99948 1.20076C5.46275 1.20091 3.98902 1.80907 2.90249 2.89145C1.81596 3.97383 1.20565 5.44176 1.2058 6.97233C1.20595 8.50289 1.81656 9.97071 2.9033 11.0529L4.09792 12.2283C4.92312 13.0313 5.75062 13.832 6.58041 14.6304C6.69285 14.7387 6.84319 14.7993 6.99965 14.7993C7.15611 14.7993 7.30644 14.7387 7.41889 14.6304L10.1474 11.9881C10.5252 11.619 10.8412 11.3075 11.096 11.0529C12.1825 9.97069 12.7929 8.50296 12.7929 6.97256C12.7929 5.44216 12.1825 3.97443 11.096 2.89225L11.0968 2.89065ZM7.00005 4.78908C7.31698 4.78908 7.6308 4.85125 7.9236 4.97205C8.2164 5.09285 8.48245 5.2699 8.70655 5.4931C8.93065 5.7163 9.10842 5.98128 9.2297 6.27291C9.35098 6.56453 9.41341 6.8771 9.41341 7.19275C9.41341 7.50841 9.35098 7.82097 9.2297 8.1126C9.10842 8.40422 8.93065 8.6692 8.70655 8.8924C8.48245 9.1156 8.2164 9.29266 7.9236 9.41345C7.6308 9.53425 7.31698 9.59642 7.00005 9.59642C6.36772 9.58492 5.76519 9.32667 5.32209 8.87722C4.879 8.42777 4.63074 7.82305 4.63074 7.19315C4.63074 6.56326 4.879 5.95853 5.32209 5.50908C5.76519 5.05963 6.36772 4.80138 7.00005 4.78988V4.78908ZM7.00005 5.99012C6.84148 5.99012 6.68447 6.02122 6.53797 6.08166C6.39147 6.1421 6.25836 6.23068 6.14623 6.34236C6.03411 6.45403 5.94517 6.58661 5.88448 6.73252C5.8238 6.87843 5.79257 7.03482 5.79257 7.19275C5.79257 7.35068 5.8238 7.50707 5.88448 7.65298C5.94517 7.79889 6.03411 7.93147 6.14623 8.04314C6.25836 8.15482 6.39147 8.2434 6.53797 8.30384C6.68447 8.36428 6.84148 8.39539 7.00005 8.39539C7.32019 8.39539 7.62721 8.26872 7.85359 8.04326C8.07996 7.8178 8.20713 7.512 8.20713 7.19315C8.20713 6.8743 8.07996 6.56851 7.85359 6.34304C7.62721 6.11758 7.32019 5.99092 7.00005 5.99092V5.99012Z" fill="black" fill-opacity="0.2"/>
</svg>
