<?xml version="1.0" encoding="UTF-8"?><!DOCTYPE svg PUBLIC "-//W3C//DTD SVG 1.1//EN" "http://www.w3.org/Graphics/SVG/1.1/DTD/svg11.dtd"><svg xmlns="http://www.w3.org/2000/svg" xmlns:xlink="http://www.w3.org/1999/xlink"><symbol id="backpack"><g fill="none"><path fill-rule="evenodd" clip-rule="evenodd" d="M17.449.119c-.638.207-1.004.429-1.442.873-.772.782-1.005 1.608-1.005 3.567V5.73l-1.211.63c-.666.346-1.246.644-1.289.66-.042.018-.099-.23-.125-.549a2.502 2.502 0 0 0-1.171-1.905l-.51-.32H8.761c-1.784 0-1.967.018-2.351.228-.488.267-.888.68-1.16 1.197-.18.34-.198.752-.246 5.329l-.052 4.959-.381.96c-.403 1.014-.841 2.663-1.036 3.894-.064.406-.14 2.36-.168 4.342l-.052 3.604-.865.036c-.764.033-.918.074-1.315.357-.516.368-.874.86-1.024 1.409-.158.576-.142 15.917.017 16.558.09.362.264.637.651 1.03.611.619 1.085.784 2.246.784h.74l.216.501c1.001 2.327 3.199 4.038 5.716 4.452.922.152 24.684.152 25.606 0 2.517-.414 4.715-2.125 5.716-4.452l.215-.5h.741c1.161 0 1.635-.166 2.246-.785.387-.393.561-.668.651-1.03.16-.64.175-15.982.017-16.558-.15-.55-.508-1.04-1.024-1.409-.397-.283-.55-.324-1.315-.357l-.865-.037-.052-3.603c-.028-1.982-.104-3.936-.168-4.342-.195-1.231-.633-2.88-1.036-3.894l-.38-.96-.053-4.96c-.05-4.828-.058-4.97-.277-5.38a2.872 2.872 0 0 0-1.18-1.176c-.319-.171-.612-.197-2.3-.197h-1.935l-.51.32a2.502 2.502 0 0 0-1.171 1.905c-.026.32-.083.567-.125.55a67.074 67.074 0 0 1-1.289-.661L30 5.73V4.56c0-2.468-.502-3.548-1.98-4.259l-.572-.275-4.79-.022c-3.664-.016-4.89.01-5.208.115Zm9.876 1.58c.433.184.865.702 1.003 1.205.059.216.107.812.108 1.323 0 .857-.015.926-.192.869-1.8-.579-3.6-.843-5.744-.843-2.144 0-3.945.264-5.744.843-.177.057-.192-.012-.192-.869.001-1.106.12-1.599.493-2.049.511-.615.5-.614 5.42-.618 3.579-.003 4.578.025 4.848.14ZM10.348 5.9c.412.223.481.422.484 1.409l.004.95-.582.471c-.811.656-2.443 2.4-3.092 3.304l-.544.757-.028-3.093c-.03-3.326-.003-3.528.497-3.784.342-.175 2.941-.186 3.261-.014Zm14.974.137c3.603.591 6.867 2.293 9.517 4.962 1.516 1.526 2.439 2.81 3.337 4.644 1.032 2.109 1.59 4.048 1.802 6.272l.08.85h-.61c-1.006 0-1.103-.123-1.37-1.74-.977-5.939-5.02-10.715-10.672-12.61-1.717-.576-2.971-.773-4.906-.773-1.935 0-3.189.197-4.906.773-5.652 1.895-9.695 6.671-10.672 12.61-.267 1.617-.364 1.74-1.37 1.74h-.61l.08-.85c.213-2.224.77-4.163 1.802-6.272.898-1.833 1.821-3.118 3.337-4.644 3.054-3.076 6.631-4.733 11.141-5.16.727-.07 3.104.048 4.02.198Zm12.591-.123c.5.256.526.458.497 3.784l-.028 3.093-.544-.757c-.649-.905-2.28-2.648-3.092-3.304l-.582-.47.003-.951c.005-1.44.12-1.524 2.08-1.527.93 0 1.494.044 1.666.132ZM23.861 9.264c5.075.528 9.331 3.554 11.495 8.172.678 1.447.957 2.398 1.265 4.307.16.997.396 1.573.788 1.931.553.506.841.617 1.747.672l.892.054.027 11.216c.03 12.476.05 12.046-.667 13.528-.751 1.55-2.457 2.85-4.144 3.159-.858.156-24.67.156-25.529 0-1.686-.308-3.392-1.609-4.143-3.159-.717-1.482-.696-1.052-.667-13.528L4.952 24.4l.892-.054c.906-.055 1.194-.166 1.747-.672.392-.358.627-.934.788-1.93.308-1.91.587-2.86 1.265-4.308 2.13-4.548 6.429-7.642 11.347-8.166 1.209-.13 1.674-.13 2.87-.006Zm-2.871 1.798c-2.025.244-4.438 1.216-5.681 2.29-.23.198-.55.65-.746 1.053l-.343.705v4.396c0 4.176.01 4.408.199 4.62l.198.222h15.766l.198-.223c.189-.21.198-.443.198-4.619V15.11l-.342-.705c-.503-1.035-1.393-1.725-3.172-2.46-2.06-.85-4.129-1.142-6.275-.883Zm3.098 1.624c2.095.32 4.342 1.356 4.895 2.258.23.374.235.456.266 4.101l.033 3.72H15.718l.033-3.72c.031-3.645.036-3.727.266-4.1.538-.878 2.794-1.936 4.8-2.253 1.208-.19 2.054-.192 3.271-.006Zm-4.296 1.71c-.538.209-.704.902-.312 1.3.198.2.347.21 3.02.21s2.822-.01 3.02-.21c.28-.285.275-.857-.01-1.119-.203-.185-.426-.202-2.89-.221-1.47-.012-2.742.006-2.828.04ZM9.69 29.03c-.623.333-1.1.978-1.244 1.679-.08.39-.106 2.993-.086 8.47.028 7.481.04 7.928.224 8.277.271.517.672.93 1.16 1.197l.416.227H34.84l.417-.227c.487-.267.888-.68 1.16-1.197.183-.35.195-.796.223-8.277.02-5.477-.006-8.08-.086-8.47a2.525 2.525 0 0 0-1.244-1.68l-.467-.25H10.156l-.467.25Zm-6.352 3.073v1.741h-1.77v-1.377c0-1.009.041-1.457.154-1.678.191-.375.273-.408 1.018-.419l.598-.008v1.741Zm31.428-1.53c.294.277.353.664.316 2.058l-.032 1.16H9.95l-.03-1.16c-.038-1.394.021-1.78.316-2.058.22-.208.374-.21 12.264-.21 11.89 0 12.044.002 12.265.21Zm8.195-.145c.364.141.473.61.473 2.04v1.376h-1.771v-3.482h.565c.31 0 .64.03.733.066ZM3.339 41.15c0 3.149.031 5.837.067 5.975.066.249.06.25-.628.206-.542-.035-.746-.096-.927-.28l-.232-.235-.029-5.695-.028-5.695h1.775l.002 5.724Zm9.996-4.784v.94l-.45.267c-.527.313-.962.928-1.108 1.568-.138.609-.136 3.768.003 4.173.175.508.472.571 2.52.534 1.622-.03 1.85-.056 2.045-.234.209-.193.219-.299.216-2.375-.002-1.874-.028-2.23-.192-2.595-.203-.452-.892-1.146-1.252-1.262-.202-.065-.22-.147-.22-1.014v-.942h20.21l-.029 5.695-.029 5.695-.237.24-.237.24h-24.15l-.237-.24-.237-.24-.029-5.695-.029-5.695h3.442v.94Zm30.075 4.755-.03 5.695-.231.235c-.181.184-.385.245-.927.28-.689.045-.694.043-.629-.206.037-.138.067-2.826.068-5.975l.002-5.724h1.775l-.028 5.695Zm-28.664-2.06c.247.25.256.309.256 1.742v1.482h-1.787l.034-1.47c.032-1.385.048-1.484.287-1.74.336-.363.86-.369 1.21-.014Z" fill="#185C5C"/><path fill-rule="evenodd" clip-rule="evenodd" d="M17.449.119c-.638.207-1.004.429-1.442.873-.772.782-1.005 1.608-1.005 3.567V5.73l-1.211.63c-.666.346-1.246.644-1.289.66-.042.018-.099-.23-.125-.549a2.502 2.502 0 0 0-1.171-1.905l-.51-.32H8.761c-1.784 0-1.967.018-2.351.228-.488.267-.888.68-1.16 1.197-.18.34-.198.752-.246 5.329l-.052 4.959-.381.96c-.403 1.014-.841 2.663-1.036 3.894-.064.406-.14 2.36-.168 4.342l-.052 3.604-.865.036c-.764.033-.918.074-1.315.357-.516.368-.874.86-1.024 1.409-.158.576-.142 15.917.017 16.558.09.362.264.637.651 1.03.611.619 1.085.784 2.246.784h.74l.216.501c1.001 2.327 3.199 4.038 5.716 4.452.922.152 24.684.152 25.606 0 2.517-.414 4.715-2.125 5.716-4.452l.215-.5h.741c1.161 0 1.635-.166 2.246-.785.387-.393.561-.668.651-1.03.16-.64.175-15.982.017-16.558-.15-.55-.508-1.04-1.024-1.409-.397-.283-.55-.324-1.315-.357l-.865-.037-.052-3.603c-.028-1.982-.104-3.936-.168-4.342-.195-1.231-.633-2.88-1.036-3.894l-.38-.96-.053-4.96c-.05-4.828-.058-4.97-.277-5.38a2.872 2.872 0 0 0-1.18-1.176c-.319-.171-.612-.197-2.3-.197h-1.935l-.51.32a2.502 2.502 0 0 0-1.171 1.905c-.026.32-.083.567-.125.55a67.074 67.074 0 0 1-1.289-.661L30 5.73V4.56c0-2.468-.502-3.548-1.98-4.259l-.572-.275-4.79-.022c-3.664-.016-4.89.01-5.208.115Zm9.876 1.58c.433.184.865.702 1.003 1.205.059.216.107.812.108 1.323 0 .857-.015.926-.192.869-1.8-.579-3.6-.843-5.744-.843-2.144 0-3.945.264-5.744.843-.177.057-.192-.012-.192-.869.001-1.106.12-1.599.493-2.049.511-.615.5-.614 5.42-.618 3.579-.003 4.578.025 4.848.14ZM10.348 5.9c.412.223.481.422.484 1.409l.004.95-.582.471c-.811.656-2.443 2.4-3.092 3.304l-.544.757-.028-3.093c-.03-3.326-.003-3.528.497-3.784.342-.175 2.941-.186 3.261-.014Zm14.974.137c3.603.591 6.867 2.293 9.517 4.962 1.516 1.526 2.439 2.81 3.337 4.644 1.032 2.109 1.59 4.048 1.802 6.272l.08.85h-.61c-1.006 0-1.103-.123-1.37-1.74-.977-5.939-5.02-10.715-10.672-12.61-1.717-.576-2.971-.773-4.906-.773-1.935 0-3.189.197-4.906.773-5.652 1.895-9.695 6.671-10.672 12.61-.267 1.617-.364 1.74-1.37 1.74h-.61l.08-.85c.213-2.224.77-4.163 1.802-6.272.898-1.833 1.821-3.118 3.337-4.644 3.054-3.076 6.631-4.733 11.141-5.16.727-.07 3.104.048 4.02.198Zm12.591-.123c.5.256.526.458.497 3.784l-.028 3.093-.544-.757c-.649-.905-2.28-2.648-3.092-3.304l-.582-.47.003-.951c.005-1.44.12-1.524 2.08-1.527.93 0 1.494.044 1.666.132ZM23.861 9.264c5.075.528 9.331 3.554 11.495 8.172.678 1.447.957 2.398 1.265 4.307.16.997.396 1.573.788 1.931.553.506.841.617 1.747.672l.892.054.027 11.216c.03 12.476.05 12.046-.667 13.528-.751 1.55-2.457 2.85-4.144 3.159-.858.156-24.67.156-25.529 0-1.686-.308-3.392-1.609-4.143-3.159-.717-1.482-.696-1.052-.667-13.528L4.952 24.4l.892-.054c.906-.055 1.194-.166 1.747-.672.392-.358.627-.934.788-1.93.308-1.91.587-2.86 1.265-4.308 2.13-4.548 6.429-7.642 11.347-8.166 1.209-.13 1.674-.13 2.87-.006Zm-2.871 1.798c-2.025.244-4.438 1.216-5.681 2.29-.23.198-.55.65-.746 1.053l-.343.705v4.396c0 4.176.01 4.408.199 4.62l.198.222h15.766l.198-.223c.189-.21.198-.443.198-4.619V15.11l-.342-.705c-.503-1.035-1.393-1.725-3.172-2.46-2.06-.85-4.129-1.142-6.275-.883Zm3.098 1.624c2.095.32 4.342 1.356 4.895 2.258.23.374.235.456.266 4.101l.033 3.72H15.718l.033-3.72c.031-3.645.036-3.727.266-4.1.538-.878 2.794-1.936 4.8-2.253 1.208-.19 2.054-.192 3.271-.006Zm-4.296 1.71c-.538.209-.704.902-.312 1.3.198.2.347.21 3.02.21s2.822-.01 3.02-.21c.28-.285.275-.857-.01-1.119-.203-.185-.426-.202-2.89-.221-1.47-.012-2.742.006-2.828.04ZM9.69 29.03c-.623.333-1.1.978-1.244 1.679-.08.39-.106 2.993-.086 8.47.028 7.481.04 7.928.224 8.277.271.517.672.93 1.16 1.197l.416.227H34.84l.417-.227c.487-.267.888-.68 1.16-1.197.183-.35.195-.796.223-8.277.02-5.477-.006-8.08-.086-8.47a2.525 2.525 0 0 0-1.244-1.68l-.467-.25H10.156l-.467.25Zm-6.352 3.073v1.741h-1.77v-1.377c0-1.009.041-1.457.154-1.678.191-.375.273-.408 1.018-.419l.598-.008v1.741Zm31.428-1.53c.294.277.353.664.316 2.058l-.032 1.16H9.95l-.03-1.16c-.038-1.394.021-1.78.316-2.058.22-.208.374-.21 12.264-.21 11.89 0 12.044.002 12.265.21Zm8.195-.145c.364.141.473.61.473 2.04v1.376h-1.771v-3.482h.565c.31 0 .64.03.733.066ZM3.339 41.15c0 3.149.031 5.837.067 5.975.066.249.06.25-.628.206-.542-.035-.746-.096-.927-.28l-.232-.235-.029-5.695-.028-5.695h1.775l.002 5.724Zm9.996-4.784v.94l-.45.267c-.527.313-.962.928-1.108 1.568-.138.609-.136 3.768.003 4.173.175.508.472.571 2.52.534 1.622-.03 1.85-.056 2.045-.234.209-.193.219-.299.216-2.375-.002-1.874-.028-2.23-.192-2.595-.203-.452-.892-1.146-1.252-1.262-.202-.065-.22-.147-.22-1.014v-.942h20.21l-.029 5.695-.029 5.695-.237.24-.237.24h-24.15l-.237-.24-.237-.24-.029-5.695-.029-5.695h3.442v.94Zm30.075 4.755-.03 5.695-.231.235c-.181.184-.385.245-.927.28-.689.045-.694.043-.629-.206.037-.138.067-2.826.068-5.975l.002-5.724h1.775l-.028 5.695Zm-28.664-2.06c.247.25.256.309.256 1.742v1.482h-1.787l.034-1.47c.032-1.385.048-1.484.287-1.74.336-.363.86-.369 1.21-.014Z" fill="#000" fill-opacity=".2"/></g></symbol><symbol id="building"><path d="M27.954 17.7a.567.567 0 0 0 .02-.372l-2.307-7.495V2.917A2.92 2.92 0 0 0 22.75 0H5.25a2.92 2.92 0 0 0-2.917 2.917v6.916L.027 17.328a.568.568 0 0 0 .018.371c-.027.124-.045.251-.045.384v7c0 .322.261.584.583.584h2.334a.584.584 0 0 0 .583-.584v-1.75h21v1.75c0 .322.261.584.583.584h2.334a.584.584 0 0 0 .583-.584v-7c0-.133-.017-.26-.046-.384ZM3.5 2.916c0-.965.785-1.75 1.75-1.75h17.5c.965 0 1.75.785 1.75 1.75v6.416h-1.585L22.37 7.16a1.75 1.75 0 0 0-1.699-1.326h-3.755c-.965 0-1.75.785-1.75 1.75v1.75h-2.334V7.584c0-.964-.785-1.75-1.75-1.75H7.328A1.75 1.75 0 0 0 5.629 7.16l-.543 2.173H3.5V2.917Zm18.216 7.359a.583.583 0 0 1-.46.224h-4.34a.584.584 0 0 1-.583-.583V7.583c0-.322.263-.583.584-.583h3.756c.269 0 .5.18.566.44l.584 2.334a.578.578 0 0 1-.107.502ZM11.668 7.583v2.328l-.001.006v.002a.583.583 0 0 1-.582.581h-4.34a.581.581 0 0 1-.566-.726l.583-2.333A.583.583 0 0 1 7.33 7h3.756c.32 0 .583.261.583.583ZM3.348 10.5h1.755c.062.175.142.343.26.495.336.427.839.672 1.381.672h4.34c.759 0 1.4-.49 1.642-1.167h2.548a1.747 1.747 0 0 0 1.643 1.167h4.338c.543 0 1.045-.245 1.38-.672.118-.15.199-.32.26-.495h1.758l1.801 5.854c-.067-.008-.134-.02-.204-.02H1.75c-.07 0-.137.012-.203.02l1.8-5.854Zm-1.015 14H1.167v-1.167h1.166V24.5Zm24.5 0h-1.166v-1.167h1.166V24.5Zm0-2.333H1.167v-4.084c0-.322.262-.583.583-.583h24.5c.32 0 .583.261.583.583v4.084Z"/></symbol><symbol id="credit-card"><g fill="none"><path fill-rule="evenodd" clip-rule="evenodd" d="M12.035.1c-1.08.208-2.071 1.005-2.428 1.952-.114.304-.791 3.833-1.505 7.841l-1.297 7.288H2.391l-.67.327c-.711.346-1.087.707-1.48 1.423l-.241.44v23.386l.294.544a3.441 3.441 0 0 0 1.618 1.474L2.41 45H44.811l.623-.298a3.2 3.2 0 0 0 1.557-1.565c.22-.464.232-.677.263-4.662l.032-4.176.57.102c.97.174 2.163.054 2.738-.274.648-.37 1.235-1.046 1.443-1.663.092-.27 1.034-5.346 2.096-11.278 1.549-8.663 1.916-10.897 1.862-11.353-.147-1.25-1.11-2.361-2.319-2.677-.395-.103-5.37-.975-26.943-4.721C14.958.39 12.613-.013 12.55 0l-.514.1Zm21.007 5.227C46.593 7.683 53.4 8.91 53.585 9.027c.368.235.594.684.595 1.181 0 .223-.132 1.162-.293 2.085-.276 1.58-.308 1.677-.522 1.628-.125-.028-3.974-.7-8.554-1.495l-11.668-2.024c-18.16-3.157-22.52-3.92-22.549-3.95-.088-.086.652-3.748.804-3.974.22-.327.798-.673 1.126-.674.14 0 9.372 1.585 20.518 3.523Zm-1.324 6.621c11.54 2.004 21.11 3.677 21.265 3.718l.284.074-1.4 7.849c-.77 4.317-1.455 8.03-1.521 8.25-.215.716-.886.957-2.22.797l-.85-.102v-6.322c0-7.01.004-6.974-.709-7.883-.256-.328-.604-.596-1.059-.818l-.677-.33h-18.06c-17.905 0-18.06-.001-18.06-.21 0-.182 1.31-7.631 1.49-8.475.052-.244.11-.292.3-.247.13.031 9.678 1.696 21.218 3.7Zm12.86 7.09c.198.08.468.28.598.441l.238.294v11.262c0 10.424-.014 11.285-.187 11.57-.41.679 1.153.633-21.666.633-18.358 0-20.815-.019-21.1-.162-.69-.348-.653.314-.653-12.036 0-12.44-.055-11.498.697-11.945.335-.199.86-.204 21.027-.204 17.33 0 20.742.023 21.045.146ZM6.41 28.32c-.575.178-1.255.898-1.407 1.488-.16.615-.168 3.196-.012 3.74.15.526.7 1.13 1.252 1.374.397.176.8.195 4.23.197 3.758.002 3.793 0 4.272-.246.266-.137.631-.453.812-.703l.329-.455.035-1.833c.022-1.108-.01-1.987-.082-2.22-.15-.492-.947-1.216-1.503-1.367-.579-.156-7.411-.135-7.926.025Zm7.646 1.803c.089.087.131.579.131 1.514 0 1.139-.032 1.42-.18 1.58-.169.181-.425.195-3.514.195-2.087 0-3.411-.04-3.544-.11-.194-.102-.212-.237-.212-1.638 0-.84.033-1.558.073-1.598.04-.039 1.657-.07 3.594-.07 2.592 0 3.555.033 3.652.127Zm-8.505 8.128a.841.841 0 0 0 .03 1.2l.27.262h2.884c3.12 0 3.26-.024 3.483-.594.123-.316-.06-.866-.336-1.01-.116-.06-1.434-.105-3.146-.105-2.938 0-2.947.001-3.185.247Zm9.85.035c-.308.38-.291.84.042 1.165l.268.262h5.834l.333-.325c.279-.271.322-.38.265-.667-.14-.706-.195-.717-3.522-.717h-2.993l-.227.282Zm9.86 0c-.256.318-.285.587-.1.927.265.483.33.493 3.412.497l2.936.003.269-.283c.328-.345.344-.77.041-1.144l-.227-.282H25.49l-.227.282Zm9.975-.095c-.127.103-.262.341-.299.53-.057.287-.014.396.265.667l.333.325h5.834l.269-.262c.356-.347.363-.896.015-1.215-.247-.226-.325-.232-3.22-.232-2.664 0-2.99.02-3.197.187Z" fill="#123535"/></g></symbol><symbol id="date"><g fill="none"><path d="M5.6 11.2a1.4 1.4 0 1 0 0-2.8 1.4 1.4 0 0 0 0 2.8ZM7 14a1.4 1.4 0 1 1-2.8 0A1.4 1.4 0 0 1 7 14Zm2.8-2.8a1.4 1.4 0 1 0 0-2.8 1.4 1.4 0 0 0 0 2.8Zm1.4 2.8a1.4 1.4 0 1 1-2.8 0 1.4 1.4 0 0 1 2.8 0Zm2.8-2.8a1.4 1.4 0 1 0 0-2.8 1.4 1.4 0 0 0 0 2.8Zm5.6-7.7A3.5 3.5 0 0 0 16.1 0H3.5A3.5 3.5 0 0 0 0 3.5v12.6a3.5 3.5 0 0 0 3.5 3.5h12.6a3.5 3.5 0 0 0 3.5-3.5V3.5ZM1.4 5.6h16.8v10.5a2.1 2.1 0 0 1-2.1 2.1H3.5a2.1 2.1 0 0 1-2.1-2.1V5.6Zm2.1-4.2h12.6a2.1 2.1 0 0 1 2.1 2.1v.7H1.4v-.7a2.1 2.1 0 0 1 2.1-2.1Z" fill="#FC7201"/></g></symbol><symbol id="expert"><g fill="none"><path d="M54.083 29.92h-9.166v-.089c3.3-1.418 5.639-4.263 6.25-7.604h1.083c1.519 0 2.75-1.148 2.75-2.565 0-1.416-1.231-2.564-2.75-2.564h-.917v-2.565c-.006-3.87-2.552-7.341-6.416-8.75V4.273c0-2.36-2.052-4.274-4.584-4.274-2.53 0-4.583 1.914-4.583 4.274v1.508c-3.865 1.41-6.41 4.881-6.417 8.751v2.565h-.916c-1.52 0-2.75 1.148-2.75 2.564 0 1.417 1.23 2.565 2.75 2.565h1.082c.612 3.34 2.95 6.186 6.251 7.604v.09H19.845L16.5 22.9v-4.948c0-.473-.41-.855-.917-.855h-2.75V0H9.546a4.172 4.172 0 0 0-2.86 1.105 2.283 2.283 0 0 1-1.566.605H0v10.258h5.12a4.172 4.172 0 0 0 2.861-1.104 2.283 2.283 0 0 1 1.565-.605H11v6.839h-.917c-.506 0-.916.382-.916.855v5.129c0 .109.022.217.065.318l4.578 10.673c.69 1.627 2.38 2.693 4.256 2.687h7.6v13.678c0 .472.411.855.917.855h27.5c.507 0 .917-.383.917-.855V30.776c0-.472-.41-.855-.917-.855Zm-2.75-11.113h.917c.506 0 .917.383.917.855s-.41.855-.917.855h-.917v-1.71Zm-22 1.71h-.916c-.507 0-.917-.383-.917-.855s.41-.855.917-.855h.916v1.71Zm8.25-16.243c0-1.416 1.232-2.564 2.75-2.564 1.52 0 2.75 1.148 2.75 2.564v.855h-5.5v-.855Zm1.834 2.565h1.833c4.2.005 7.727 2.947 8.199 6.84h-.866c-1.518 0-2.75-1.15-2.75-2.566 0-.472-.41-.854-.916-.854h-1.834c-.506 0-.916.382-.916.854 0 1.417-1.232 2.565-2.75 2.565h-8.199c.472-3.892 4-6.834 8.199-6.839Zm-8.25 13.678v-5.13h8.25c2.177-.002 4.053-1.43 4.491-3.419h.184c.438 1.99 2.314 3.417 4.491 3.42h.917v5.13c0 4.72-4.104 8.548-9.167 8.548-5.062 0-9.166-3.827-9.166-8.549Zm11.916 11.114c0 1.416-1.23 2.564-2.75 2.564-1.518 0-2.75-1.148-2.75-2.564h5.5Zm-7.333 0c0 2.36 2.052 4.274 4.583 4.274 2.532 0 4.584-1.914 4.584-4.274h2.122l-4.5 7.694h-4.411l-4.5-7.694h2.122Zm6.417 9.403v5.13H38.5v-5.13h3.667ZM9.547 8.55a4.172 4.172 0 0 0-2.862 1.104 2.283 2.283 0 0 1-1.564.606H1.833v-6.84H5.12a4.172 4.172 0 0 0 2.861-1.104 2.283 2.283 0 0 1 1.565-.605H11v6.839H9.546ZM11 18.807h3.667v3.42H11v-3.42ZM22 35.05h-3.934c-1.126.004-2.139-.636-2.553-1.612l-4.076-9.501h3.55l3.425 7.186a.922.922 0 0 0 .838.508H22v3.42Zm31.167 14.533H27.5V35.905c0-.472-.41-.855-.917-.855h-2.75v-3.42h7.706l5.128 8.767v6.622c0 .472.41.854.916.854h5.5c.507 0 .917-.382.917-.854v-6.622l5.128-8.766h4.039v17.952Z" fill="#123535"/></g></symbol><symbol id="flight"><path d="M21.105 1.572c-.905.702-1.152 1.064-4.361 4.246l-1.924-.314.883-.884a1.586 1.586 0 0 0 0-2.242 1.58 1.58 0 0 0-2.238 0l-2.493 2.499L2.25 3.454A1.781 1.781 0 0 0 .921 6.658l8.691 6.306-1.627 1.63c-.558.559-1.144 1.327-1.748 2.287l-4.053-1.194a1.703 1.703 0 0 0-1.686.43 1.71 1.71 0 0 0 .235 2.613l3.323 2.304c-.578 1.28-.93 2.204-.946 2.247a.53.53 0 0 0 .68.681 42.57 42.57 0 0 0 2.242-.948l2.3 3.33a1.703 1.703 0 0 0 2.608.234 1.71 1.71 0 0 0 .43-1.688l-1.193-4.061c.959-.605 1.725-1.193 2.283-1.751l1.627-1.63 6.294 8.707a1.777 1.777 0 0 0 2.699.215c.403-.404.59-.982.498-1.547l-1.42-8.738 2.494-2.498a1.587 1.587 0 0 0 0-2.242 1.579 1.579 0 0 0-2.237 0l-.883.884-.314-1.927c3.18-3.22 3.535-3.46 4.236-4.367l.003-.004c1.627-2.112 2.007-4.245.947-5.308-1.061-1.062-3.19-.681-5.3.95ZM14.21 3.125a.528.528 0 0 1 .746.747l-1.42 1.423-1.283-.21 1.957-1.96ZM1.54 5.801a.726.726 0 0 1 .541-1.304l13.744 2.242-5.457 5.468L1.539 5.8Zm-.296 11.064a.649.649 0 0 1 .643-.164l3.79 1.117c-.387.68-.778 1.431-1.168 2.245L1.334 17.86a.652.652 0 0 1-.09-.996Zm8.95 8.967a.65.65 0 0 1-.994-.09L7.002 22.56a36.124 36.124 0 0 0 2.24-1.171l1.115 3.798a.652.652 0 0 1-.163.644Zm12.967-13.74a.526.526 0 0 1 .745 0 .53.53 0 0 1 0 .747L21.95 14.8l-.208-1.284 1.42-1.423Zm-.624 12.9a.724.724 0 0 1-1.302.543l-6.393-8.845 5.458-5.468 2.237 13.77ZM11.714 18.33c-.58.582-1.43 1.21-2.524 1.867-1.423.854-3.107 1.662-4.626 2.309.662-1.564 1.485-3.278 2.355-4.72.637-1.056 1.247-1.878 1.812-2.445C21.613 2.466 20.849 3.13 21.63 2.504c.867-.055 1.63.203 2.162.735.532.533.79 1.298.734 2.167-.627.785.028.028-12.813 12.925ZM25.429 4.016a3.526 3.526 0 0 0-.89-1.525 3.519 3.519 0 0 0-1.522-.892c.764-.388 2.049-.822 2.64-.229.468.469.352 1.5-.228 2.646Z"/></symbol><symbol id="hotel"><g fill="none"><path d="M52.2 11.667v-5H36V0H18v6.667H1.8v5H0v6.666h1.8V50h50.4V18.333H54v-6.666h-1.8Zm-32.4-10h14.4v5H19.8v-5ZM3.6 8.333h46.8v3.334H3.6V8.333ZM26.1 42.5h-1.8v1.667h1.8v4.166h-6.3v-10h6.3V42.5Zm8.1 5.833h-6.3v-4.166h1.8V42.5h-1.8v-4.167h6.3v10Zm16.2 0H36V36.667H18v11.666H3.6v-30h46.8v30Zm1.8-31.666H1.8v-3.334h50.4v3.334Z" fill="#123535"/><path d="M5.4 36.666v6.667h10.8v-6.666H5.4Zm9 5H7.2v-3.333h7.2v3.334ZM5.4 28.334V35h10.8v-6.666H5.4Zm9 5H7.2V30h7.2v3.334ZM5.4 20v6.667h10.8V20H5.4Zm9 5H7.2v-3.333h7.2V25ZM25.2 3.333h-3.6V5h3.6V3.333ZM32.4 3.333H27V5h5.4V3.333ZM37.8 36.667v6.667h10.8v-6.667H37.8Zm9 5h-7.2v-3.333h7.2v3.333ZM37.8 28.333V35h10.8v-6.667H37.8Zm9 5h-7.2V30h7.2v3.333ZM37.8 20v6.667h10.8V20H37.8Zm9 5h-7.2v-3.333h7.2V25ZM30.78 21.167c-2.783-1.933-6.732-1.41-8.82 1.167-1.68 2.074-1.68 4.926 0 7L27 35.556l5.04-6.222c2.088-2.578 1.524-6.234-1.26-8.167Zm-.18 7.167L27 32.778l-3.6-4.444c-1.491-1.841-1.088-4.453.9-5.834a4.742 4.742 0 0 1 2.7-.833c2.485 0 4.5 1.865 4.5 4.167 0 .901-.316 1.778-.9 2.5Z" fill="#123535"/><path d="M27 23.333c-1.491 0-2.7 1.12-2.7 2.5s1.209 2.5 2.7 2.5 2.7-1.12 2.7-2.5-1.209-2.5-2.7-2.5Zm0 3.333c-.497 0-.9-.373-.9-.833 0-.46.403-.833.9-.833s.9.373.9.833c0 .46-.403.833-.9.833Z" fill="#123535"/></g></symbol><symbol id="info"><g fill="none"><path d="M14.646 1.542a13.105 13.105 0 1 0 .001 26.21 13.105 13.105 0 0 0-.001-26.21Zm0-1.542a14.646 14.646 0 1 1 0 29.292 14.646 14.646 0 0 1 0-29.292Zm-.771 21.583h1.542v3.084h-1.542v-3.084Zm.77-16.958a5.396 5.396 0 0 1 5.397 5.396c0 1.383-1.078 2.342-2.219 3.354l-1.441 1.393c-.907 1.039-1.005 3.014-.967 3.687v.045h-1.54c-.006-.08-.157-3.028 1.347-4.747l1.576-1.53c.913-.81 1.702-1.512 1.702-2.202a3.854 3.854 0 0 0-7.708 0H9.25a5.396 5.396 0 0 1 5.396-5.396Z" fill="#fff"/></g></symbol><symbol id="location"><g fill="none"><path d="M2.55 2.678C4.183.963 6.398 0 8.707 0c2.31 0 4.524.963 6.157 2.678 1.633 1.715 2.55 4.04 2.55 6.465s-.917 4.75-2.55 6.465l-1.187 1.233c-.875.9-2.01 2.06-3.406 3.478-.42.426-.98.664-1.564.664a2.195 2.195 0 0 1-1.564-.664l-3.49-3.566c-.44-.453-.807-.834-1.103-1.145a9.186 9.186 0 0 1-1.887-2.966A9.541 9.541 0 0 1 0 9.143c0-1.2.225-2.39.663-3.499A9.186 9.186 0 0 1 2.55 2.678ZM13.803 3.79c-1.351-1.42-3.185-2.216-5.096-2.216-1.912 0-3.745.798-5.097 2.217C2.26 5.212 1.5 7.137 1.5 9.144s.76 3.932 2.111 5.351l1.486 1.542a771.203 771.203 0 0 0 3.088 3.15c.14.142.327.221.522.221s.382-.08.521-.221l3.394-3.465c.47-.484.863-.893 1.18-1.227 1.352-1.42 2.111-3.344 2.111-5.35 0-2.008-.76-3.933-2.11-5.352v-.002Zm-5.096 2.49c.395 0 .785.081 1.15.24.364.158.694.39.973.683.279.293.5.64.65 1.023a3.289 3.289 0 0 1 0 2.412c-.15.383-.371.73-.65 1.023-.279.292-.61.525-.974.683-.364.159-.754.24-1.149.24a2.935 2.935 0 0 1-2.087-.943 3.236 3.236 0 0 1-.86-2.209c0-.826.309-1.619.86-2.208.551-.59 1.3-.928 2.087-.943V6.28Zm0 1.575c-.197 0-.392.04-.574.12a1.5 1.5 0 0 0-.488.342c-.14.146-.25.32-.325.511a1.646 1.646 0 0 0 0 1.207c.075.192.186.366.325.512a1.5 1.5 0 0 0 .488.342c.182.08.377.12.574.12.399 0 .78-.166 1.062-.462.282-.295.44-.696.44-1.115 0-.418-.158-.819-.44-1.114a1.466 1.466 0 0 0-1.062-.462v-.001Z" fill="#FC7201"/></g></symbol><symbol id="mail"><g fill="none"><path d="M37.5 12a6 6 0 1 0 0-12 6 6 0 0 0 0 12Z" fill="#fff"/><path d="M32.897 13.069 21 21 4.5 10.003V6L21 16.997l9.478-6.319A8.44 8.44 0 0 1 29.062 6c0-1.65.479-3.197 1.304-4.5H4.003A4.013 4.013 0 0 0 0 5.503v25.003c0 2.203 1.8 4.003 4.003 4.003h34.003c2.203 0 4.003-1.8 4.003-4.003V13.134a8.395 8.395 0 0 1-4.5 1.303 8.415 8.415 0 0 1-4.612-1.368Z" fill="#fff"/></g></symbol><symbol id="map"><g fill="none"><path fill-rule="evenodd" clip-rule="evenodd" d="M37.04.101c-1.294.203-3.176.829-4.476 1.489-4.45 2.26-7.509 6.613-8.17 11.63-.317 2.4.06 5.839.937 8.542.196.602.329 1.122.295 1.156-.033.034-.987-.088-2.12-.27-2.132-.343-3.668-.869-3.54-1.212.48-1.291.856-2.76.783-3.057-.05-.2-.738-.963-1.542-1.708-1.159-1.076-1.54-1.348-1.887-1.348-.37 0-.881.438-3.426 2.94l-2.991 2.94-2.413 1.23c-1.327.677-2.47 1.347-2.542 1.49-.072.142-.407 1.395-.746 2.785l-.616 2.527.45 1.825c.249 1.003.451 1.888.451 1.966 0 .078-.44.286-.978.462l-.979.32-1.04-.531c-1.222-.625-1.654-.66-2.135-.172-.333.337-.355.458-.355 1.93v1.572l2.491 3.85c1.742 2.691 2.604 3.896 2.866 4.007.65.273 1.097.02 2.265-1.283.944-1.052 1.307-1.341 2.372-1.885 1.585-.808 1.85-1.257 1.338-2.262l-.22-.432h2.232l1.752 1.757c2.222 2.227 2.223 2.227 3.82.652l1.12-1.105 1.69.433c.93.238 1.71.455 1.734.483.025.027.278.522.563 1.1.286.578.602 1.105.703 1.172.101.066.634.153 1.184.193l1 .074.495 1.509.495 1.509 2.043 1.382c1.123.76 2.172 1.383 2.331 1.383.16 0 .999-.24 1.866-.533l1.576-.532 1.062.532c.584.293 1.224.533 1.422.533.209 0 .585-.209.891-.493l.53-.492 3.183 1.078c1.75.593 3.3 1.078 3.442 1.078.143 0 .777-.264 1.408-.586 1.069-.544 1.235-.585 2.364-.585 1.57 0 1.692-.105 2.307-1.977.471-1.436.49-1.465.96-1.511.427-.043.597.07 1.576 1.048.844.843 1.404 1.25 2.43 1.767 1.454.734 1.718.784 2.357.45.234-.124.426-.188.426-.144 0 .044-.26.604-.578 1.245-.661 1.333-.72 1.869-.253 2.295.468.427 5.134 2.683 5.549 2.683.192 0 .508-.162.703-.36l.355-.359V44.162l-1.297-2.627c-.72-1.458-1.423-2.695-1.58-2.78-.154-.084-.538-.153-.853-.153h-.572l.334-1.33c.183-.73.355-1.348.382-1.371a117.58 117.58 0 0 1 2.324-1.206l2.276-1.164.14.526c.104.392.647 1.036 2.14 2.536 1.736 1.744 2.061 2.01 2.464 2.01.3 0 .59-.128.819-.36l.354-.36v-6.609l-.507-1.02-.507-1.022.487-.988c.303-.618.722-1.963 1.116-3.586L74 22.06l-.47-.964-.469-.965.438-.506c.24-.278.438-.669.438-.869 0-.608-1.398-3.271-1.82-3.466-.308-.142-.79-.066-2.992.475l-2.625.644-1.66 1.64-1.662 1.638-1.371-.493c-.755-.271-1.515-.496-1.688-.498-.174-.003-1.798.745-3.61 1.662-1.812.916-3.312 1.651-3.332 1.633-.021-.019.061-.319.182-.667.388-1.114.798-3.472.891-5.119C54.673 8.716 50.015 2.27 42.817.382c-1.33-.349-4.392-.498-5.776-.28Zm4.483 2.417c4.845.856 8.741 4.536 10.071 9.511.408 1.525.435 4.633.057 6.555-1.13 5.749-5.117 12.375-10.987 18.258l-1.385 1.388-1.311-1.314c-3.641-3.65-6.738-7.78-8.528-11.37-1.142-2.293-1.25-2.538-1.704-3.889-1.408-4.186-1.507-8.05-.286-11.15 1.523-3.867 4.763-6.779 8.652-7.777 1.905-.488 3.505-.551 5.42-.212Zm-3.76 4.599c-3 .657-5.22 2.695-6.226 5.717-.194.582-.268 1.232-.268 2.343 0 2.365.728 4.167 2.347 5.809 3.116 3.159 8.208 3.145 11.34-.03 2.482-2.517 3.077-6.147 1.54-9.386-1.286-2.706-3.85-4.4-6.856-4.525-.715-.03-1.56.003-1.877.072ZM41.65 9.88c1.303.618 2.146 1.459 2.793 2.784.51 1.046.539 1.184.539 2.513s-.03 1.467-.54 2.512c-.649 1.333-1.485 2.163-2.828 2.808-.872.419-1.096.463-2.336.463-1.24 0-1.464-.044-2.337-.463-1.342-.645-2.178-1.475-2.828-2.808-.509-1.044-.54-1.185-.54-2.505 0-1.266.044-1.49.458-2.376.58-1.242 1.406-2.15 2.484-2.733 1.137-.615 1.76-.754 3.088-.69.866.042 1.328.154 2.047.495Zm29.546 8.232c.132.251.086.383-.284.81-.243.281-.442.672-.442.87 0 .197.241.852.536 1.457l.537 1.1-.485 2.014c-.328 1.363-.688 2.427-1.114 3.292-.346.703-.63 1.413-.63 1.577 0 .165.26.823.578 1.464.55 1.108.578 1.23.578 2.52v1.356l-.642-.657c-.623-.637-.66-.725-1.22-3-.617-2.499-.815-2.854-1.588-2.854-.723 0-.979.352-1.56 2.142l-.55 1.699-2.279 1.157c-1.562.793-2.322 1.26-2.416 1.484-.202.48-1.298 5.02-1.298 5.377 0 .168.16.468.355.665.309.314.484.36 1.37.36h1.017l.94 1.901.94 1.901v7.162l-.83-.37c-.458-.203-.885-.422-.95-.486-.067-.064.047-.452.252-.862.33-.661.372-.92.372-2.294 0-1.449-.023-1.572-.354-1.908-.479-.485-.914-.453-2.105.156l-1.008.514-.757-.384c-.435-.22-1.32-.94-2.074-1.686l-1.317-1.302h-1.592c-1.303 0-1.647.047-1.897.257-.18.15-.505.861-.787 1.72l-.48 1.464-.999.079c-.74.058-1.244.205-1.95.569l-.952.49-3.308-1.118c-1.82-.615-3.453-1.118-3.629-1.118-.175 0-.545.2-.82.446l-.502.446-.871-.446c-.48-.245-.987-.446-1.129-.446-.14 0-.953.235-1.804.523l-1.549.523-1.33-.926-1.33-.925-.55-1.684c-.337-1.029-.67-1.783-.857-1.94-.225-.19-.566-.256-1.299-.256h-.993l-.511-1.03c-.3-.604-.645-1.088-.832-1.169-.478-.206-4.953-1.315-5.309-1.315-.18 0-.691.373-1.236.904l-.929.904-1.493-1.49-1.493-1.49h-2.77c-2.75 0-2.775.004-3.127.36-.452.458-.447.928.017 1.856.203.408.35.76.324.783-.025.022-.338.185-.695.363-.358.177-.978.688-1.378 1.136l-.729.815-1.74-2.693c-2.195-3.399-2.052-3.13-1.52-2.851.63.33.879.292 3.054-.474 2.637-.928 2.558-.756 1.787-3.907l-.594-2.426.474-1.909c.261-1.05.497-1.929.524-1.954.027-.025.992-.522 2.143-1.105l2.095-1.058 2.574-2.562 2.575-2.563.477.47.477.468-.518 1.592c-.696 2.134-.677 2.184 1.202 3.162 1.41.735 1.516.764 4.62 1.288 1.748.294 3.194.583 3.215.641.02.058.494.928 1.054 1.933 1.218 2.19 2.92 4.675 4.675 6.832 1.652 2.03 5.885 6.307 6.361 6.428.2.05.531.05.736-.002.48-.123 4.667-4.357 6.352-6.426 2.17-2.664 4.797-6.698 5.695-8.745.13-.293 1.052-.822 4.315-2.473l4.152-2.1 1.579.533c.869.293 1.736.534 1.928.534.252 0 .85-.504 2.166-1.821l1.817-1.821 1.372-.362c1.72-.454 1.972-.464 2.17-.089Z" fill="#185C5C"/><path fill-rule="evenodd" clip-rule="evenodd" d="M37.04.101c-1.294.203-3.176.829-4.476 1.489-4.45 2.26-7.509 6.613-8.17 11.63-.317 2.4.06 5.839.937 8.542.196.602.329 1.122.295 1.156-.033.034-.987-.088-2.12-.27-2.132-.343-3.668-.869-3.54-1.212.48-1.291.856-2.76.783-3.057-.05-.2-.738-.963-1.542-1.708-1.159-1.076-1.54-1.348-1.887-1.348-.37 0-.881.438-3.426 2.94l-2.991 2.94-2.413 1.23c-1.327.677-2.47 1.347-2.542 1.49-.072.142-.407 1.395-.746 2.785l-.616 2.527.45 1.825c.249 1.003.451 1.888.451 1.966 0 .078-.44.286-.978.462l-.979.32-1.04-.531c-1.222-.625-1.654-.66-2.135-.172-.333.337-.355.458-.355 1.93v1.572l2.491 3.85c1.742 2.691 2.604 3.896 2.866 4.007.65.273 1.097.02 2.265-1.283.944-1.052 1.307-1.341 2.372-1.885 1.585-.808 1.85-1.257 1.338-2.262l-.22-.432h2.232l1.752 1.757c2.222 2.227 2.223 2.227 3.82.652l1.12-1.105 1.69.433c.93.238 1.71.455 1.734.483.025.027.278.522.563 1.1.286.578.602 1.105.703 1.172.101.066.634.153 1.184.193l1 .074.495 1.509.495 1.509 2.043 1.382c1.123.76 2.172 1.383 2.331 1.383.16 0 .999-.24 1.866-.533l1.576-.532 1.062.532c.584.293 1.224.533 1.422.533.209 0 .585-.209.891-.493l.53-.492 3.183 1.078c1.75.593 3.3 1.078 3.442 1.078.143 0 .777-.264 1.408-.586 1.069-.544 1.235-.585 2.364-.585 1.57 0 1.692-.105 2.307-1.977.471-1.436.49-1.465.96-1.511.427-.043.597.07 1.576 1.048.844.843 1.404 1.25 2.43 1.767 1.454.734 1.718.784 2.357.45.234-.124.426-.188.426-.144 0 .044-.26.604-.578 1.245-.661 1.333-.72 1.869-.253 2.295.468.427 5.134 2.683 5.549 2.683.192 0 .508-.162.703-.36l.355-.359V44.162l-1.297-2.627c-.72-1.458-1.423-2.695-1.58-2.78-.154-.084-.538-.153-.853-.153h-.572l.334-1.33c.183-.73.355-1.348.382-1.371a117.58 117.58 0 0 1 2.324-1.206l2.276-1.164.14.526c.104.392.647 1.036 2.14 2.536 1.736 1.744 2.061 2.01 2.464 2.01.3 0 .59-.128.819-.36l.354-.36v-6.609l-.507-1.02-.507-1.022.487-.988c.303-.618.722-1.963 1.116-3.586L74 22.06l-.47-.964-.469-.965.438-.506c.24-.278.438-.669.438-.869 0-.608-1.398-3.271-1.82-3.466-.308-.142-.79-.066-2.992.475l-2.625.644-1.66 1.64-1.662 1.638-1.371-.493c-.755-.271-1.515-.496-1.688-.498-.174-.003-1.798.745-3.61 1.662-1.812.916-3.312 1.651-3.332 1.633-.021-.019.061-.319.182-.667.388-1.114.798-3.472.891-5.119C54.673 8.716 50.015 2.27 42.817.382c-1.33-.349-4.392-.498-5.776-.28Zm4.483 2.417c4.845.856 8.741 4.536 10.071 9.511.408 1.525.435 4.633.057 6.555-1.13 5.749-5.117 12.375-10.987 18.258l-1.385 1.388-1.311-1.314c-3.641-3.65-6.738-7.78-8.528-11.37-1.142-2.293-1.25-2.538-1.704-3.889-1.408-4.186-1.507-8.05-.286-11.15 1.523-3.867 4.763-6.779 8.652-7.777 1.905-.488 3.505-.551 5.42-.212Zm-3.76 4.599c-3 .657-5.22 2.695-6.226 5.717-.194.582-.268 1.232-.268 2.343 0 2.365.728 4.167 2.347 5.809 3.116 3.159 8.208 3.145 11.34-.03 2.482-2.517 3.077-6.147 1.54-9.386-1.286-2.706-3.85-4.4-6.856-4.525-.715-.03-1.56.003-1.877.072ZM41.65 9.88c1.303.618 2.146 1.459 2.793 2.784.51 1.046.539 1.184.539 2.513s-.03 1.467-.54 2.512c-.649 1.333-1.485 2.163-2.828 2.808-.872.419-1.096.463-2.336.463-1.24 0-1.464-.044-2.337-.463-1.342-.645-2.178-1.475-2.828-2.808-.509-1.044-.54-1.185-.54-2.505 0-1.266.044-1.49.458-2.376.58-1.242 1.406-2.15 2.484-2.733 1.137-.615 1.76-.754 3.088-.69.866.042 1.328.154 2.047.495Zm29.546 8.232c.132.251.086.383-.284.81-.243.281-.442.672-.442.87 0 .197.241.852.536 1.457l.537 1.1-.485 2.014c-.328 1.363-.688 2.427-1.114 3.292-.346.703-.63 1.413-.63 1.577 0 .165.26.823.578 1.464.55 1.108.578 1.23.578 2.52v1.356l-.642-.657c-.623-.637-.66-.725-1.22-3-.617-2.499-.815-2.854-1.588-2.854-.723 0-.979.352-1.56 2.142l-.55 1.699-2.279 1.157c-1.562.793-2.322 1.26-2.416 1.484-.202.48-1.298 5.02-1.298 5.377 0 .168.16.468.355.665.309.314.484.36 1.37.36h1.017l.94 1.901.94 1.901v7.162l-.83-.37c-.458-.203-.885-.422-.95-.486-.067-.064.047-.452.252-.862.33-.661.372-.92.372-2.294 0-1.449-.023-1.572-.354-1.908-.479-.485-.914-.453-2.105.156l-1.008.514-.757-.384c-.435-.22-1.32-.94-2.074-1.686l-1.317-1.302h-1.592c-1.303 0-1.647.047-1.897.257-.18.15-.505.861-.787 1.72l-.48 1.464-.999.079c-.74.058-1.244.205-1.95.569l-.952.49-3.308-1.118c-1.82-.615-3.453-1.118-3.629-1.118-.175 0-.545.2-.82.446l-.502.446-.871-.446c-.48-.245-.987-.446-1.129-.446-.14 0-.953.235-1.804.523l-1.549.523-1.33-.926-1.33-.925-.55-1.684c-.337-1.029-.67-1.783-.857-1.94-.225-.19-.566-.256-1.299-.256h-.993l-.511-1.03c-.3-.604-.645-1.088-.832-1.169-.478-.206-4.953-1.315-5.309-1.315-.18 0-.691.373-1.236.904l-.929.904-1.493-1.49-1.493-1.49h-2.77c-2.75 0-2.775.004-3.127.36-.452.458-.447.928.017 1.856.203.408.35.76.324.783-.025.022-.338.185-.695.363-.358.177-.978.688-1.378 1.136l-.729.815-1.74-2.693c-2.195-3.399-2.052-3.13-1.52-2.851.63.33.879.292 3.054-.474 2.637-.928 2.558-.756 1.787-3.907l-.594-2.426.474-1.909c.261-1.05.497-1.929.524-1.954.027-.025.992-.522 2.143-1.105l2.095-1.058 2.574-2.562 2.575-2.563.477.47.477.468-.518 1.592c-.696 2.134-.677 2.184 1.202 3.162 1.41.735 1.516.764 4.62 1.288 1.748.294 3.194.583 3.215.641.02.058.494.928 1.054 1.933 1.218 2.19 2.92 4.675 4.675 6.832 1.652 2.03 5.885 6.307 6.361 6.428.2.05.531.05.736-.002.48-.123 4.667-4.357 6.352-6.426 2.17-2.664 4.797-6.698 5.695-8.745.13-.293 1.052-.822 4.315-2.473l4.152-2.1 1.579.533c.869.293 1.736.534 1.928.534.252 0 .85-.504 2.166-1.821l1.817-1.821 1.372-.362c1.72-.454 1.972-.464 2.17-.089Z" fill="#000" fill-opacity=".2"/></g></symbol><symbol id="user"><path d="M29 14.486C29 6.489 22.504 0 14.5 0S0 6.489 0 14.486c0 4.404 2.001 8.373 5.133 11.038.029.029.058.029.058.058.261.203.522.406.812.609.145.087.261.2.406.317A14.464 14.464 0 0 0 14.529 29c2.895 0 5.724-.867 8.12-2.492.145-.087.261-.201.406-.29.261-.201.551-.404.812-.607.029-.03.058-.03.058-.058C26.999 22.857 29 18.89 29 14.485ZM14.5 27.175c-2.726 0-5.22-.87-7.279-2.318.029-.232.087-.463.145-.695a7.557 7.557 0 0 1 .754-1.796 6.377 6.377 0 0 1 1.16-1.479c.435-.435.957-.839 1.479-1.158a7.319 7.319 0 0 1 1.769-.725 7.521 7.521 0 0 1 1.972-.26 7.585 7.585 0 0 1 5.307 2.114 7.262 7.262 0 0 1 1.566 2.347c.203.522.348 1.073.435 1.652a12.741 12.741 0 0 1-7.308 2.318Zm-4.437-13.413a4.513 4.513 0 0 1-.377-1.856c0-.636.116-1.274.377-1.854.261-.58.609-1.1 1.044-1.535a5.142 5.142 0 0 1 1.537-1.042 4.523 4.523 0 0 1 1.856-.377c.667 0 1.276.116 1.856.377.58.26 1.102.609 1.537 1.042.435.435.783.957 1.044 1.535a4.52 4.52 0 0 1 .377 1.854c0 .667-.116 1.276-.377 1.854a5.147 5.147 0 0 1-1.044 1.537c-.445.438-.966.791-1.537 1.043a4.92 4.92 0 0 1-3.741 0 5.148 5.148 0 0 1-1.537-1.043 4.578 4.578 0 0 1-1.015-1.537v.002Zm13.456 9.617c0-.058-.029-.087-.029-.145a9.46 9.46 0 0 0-1.247-2.548 8.85 8.85 0 0 0-1.972-2.057 9.43 9.43 0 0 0-1.885-1.102c.304-.2.586-.434.841-.694a7.61 7.61 0 0 0 1.131-1.421 6.568 6.568 0 0 0 .957-3.506 6.724 6.724 0 0 0-.522-2.664 6.886 6.886 0 0 0-1.479-2.173 6.97 6.97 0 0 0-2.175-1.45 6.743 6.743 0 0 0-2.668-.52 6.743 6.743 0 0 0-2.668.522 6.581 6.581 0 0 0-2.175 1.477 6.96 6.96 0 0 0-1.45 2.173 6.724 6.724 0 0 0-.522 2.664c0 .638.087 1.247.261 1.825.174.61.406 1.16.725 1.68.29.523.696.987 1.131 1.422.261.26.551.49.87.694-.67.3-1.304.68-1.885 1.13a10.046 10.046 0 0 0-1.972 2.03 9.061 9.061 0 0 0-1.247 2.547c-.029.058-.029.116-.029.145-2.291-2.318-3.712-5.446-3.712-8.923 0-6.981 5.713-12.689 12.702-12.689s12.702 5.708 12.702 12.69a12.615 12.615 0 0 1-3.683 8.893Z"/></symbol></svg>