<svg width="11" height="16" viewBox="0 0 11 16" fill="none" xmlns="http://www.w3.org/2000/svg">
<path fill-rule="evenodd" clip-rule="evenodd" d="M6.58985 0.0195446C6.43256 0.0438026 6.12026 0.164968 5.96145 0.263344C5.61668 0.476946 5.32259 0.888769 5.23977 1.27399C5.04113 2.19801 5.68325 3.09018 6.64315 3.22385C7.41688 3.33158 8.18162 2.87364 8.44715 2.14362C8.65439 1.57381 8.48801 0.897897 8.03364 0.463941C7.66253 0.109481 7.1098 -0.0606381 6.58985 0.0195446ZM7.30715 0.620149C7.50685 0.703739 7.76646 0.941349 7.87402 1.13898C7.95072 1.2799 7.95942 1.32938 7.95942 1.62414C7.95942 1.90761 7.94921 1.97091 7.88463 2.08832C7.63765 2.53728 7.14109 2.78071 6.66448 2.68649C6.2889 2.61221 6.01653 2.4038 5.85302 2.06553C5.78093 1.91639 5.76813 1.84734 5.76823 1.60851C5.76833 1.36171 5.77948 1.30606 5.85907 1.15523C6.01034 0.868606 6.24488 0.675761 6.56684 0.573352C6.74923 0.515333 7.11135 0.538216 7.30715 0.620149ZM3.57678 3.66372L2.1911 4.17185L2.01267 4.34378C1.84026 4.50993 1.81187 4.56408 1.16891 5.95369C0.80296 6.74458 0.486153 7.45931 0.464885 7.54203C0.382614 7.86185 0.528207 8.31982 0.780435 8.53464C1.06134 8.7739 1.49919 8.87203 1.82489 8.76868C2.05098 8.69694 2.25664 8.55514 2.37923 8.38646C2.43462 8.31022 2.69774 7.77554 2.96392 7.19832C3.2301 6.6211 3.46238 6.14713 3.48011 6.14504C3.49783 6.14297 3.51678 6.17158 3.52223 6.20862C3.52767 6.24566 3.23349 7.3007 2.86847 8.55314C2.34584 10.3464 2.18555 10.8569 2.11421 10.9553C0.857389 12.6898 0.127003 13.7205 0.0707375 13.839C0.013151 13.9603 0.00016418 14.045 3.05364e-06 14.3002C-0.000190298 14.5854 0.00854263 14.6306 0.0995791 14.816C0.279203 15.1816 0.574548 15.4077 0.979877 15.4896C1.36429 15.5674 1.7694 15.4639 2.05433 15.2151C2.11869 15.159 2.69636 14.4307 3.33806 13.5968C4.46755 12.1291 4.5118 12.0662 4.725 11.6274C4.84611 11.3781 4.98596 11.0918 5.03578 10.9912L5.1264 10.8082L5.61513 11.2502L6.10386 11.6923L6.11323 13.387L6.12258 15.0817L6.22258 15.2864C6.39685 15.6431 6.64776 15.8538 7.02321 15.9585C7.5695 16.1108 8.19119 15.8322 8.45131 15.3184L8.53948 15.1442L8.54844 13.1584L8.55739 11.1726L8.48366 11.0327C8.44309 10.9558 7.98111 10.3231 7.45703 9.62678C6.93298 8.93046 6.49407 8.34389 6.4817 8.32332C6.45795 8.28374 6.76941 7.20054 6.82374 7.13377C6.84124 7.11229 6.88703 7.09469 6.92547 7.09469C6.96395 7.09469 7.55193 7.38223 8.23211 7.73369C8.91751 8.08783 9.53988 8.38921 9.62821 8.40975C10.0206 8.5011 10.43 8.37555 10.7105 8.07789C10.9363 7.83819 11.0149 7.62377 10.9977 7.2942C10.9814 6.981 10.8698 6.74458 10.6476 6.55233C10.5495 6.46745 10.0534 6.19687 9.21244 5.76957C8.50554 5.41039 7.90934 5.10294 7.88753 5.08631C7.86571 5.06971 7.74245 4.85795 7.61361 4.61578C7.27728 3.9836 7.29187 3.99504 6.25122 3.54877C5.47691 3.21676 5.35839 3.17468 5.17194 3.16568C4.96904 3.15586 4.91887 3.17155 3.57678 3.66372ZM6.03238 4.04184L6.86376 4.39637L7.13049 4.87806C7.27718 5.14299 7.44395 5.40395 7.50108 5.458C7.55947 5.51323 8.17617 5.84666 8.91007 6.21978C9.62789 6.58471 10.2421 6.90626 10.275 6.9343C10.3079 6.96234 10.3623 7.03749 10.3958 7.10126C10.6069 7.50242 10.2534 7.96986 9.79359 7.89746C9.73207 7.88777 9.12018 7.58814 8.43388 7.23161C7.23261 6.60759 7.17818 6.58293 6.97655 6.57093C6.80224 6.56055 6.74318 6.5709 6.62462 6.63242C6.37165 6.76374 6.31358 6.86756 6.10154 7.56804C5.89762 8.2416 5.88479 8.35967 5.99336 8.5633C6.02033 8.61395 6.48495 9.24318 7.02582 9.96161L8.00921 11.2678L8.00041 13.1641L7.99165 15.0603L7.89197 15.1804C7.75495 15.3455 7.61074 15.4342 7.43824 15.4593C7.16642 15.4988 6.8878 15.3643 6.75097 15.1274L6.67041 14.9879L6.6543 13.2686C6.63989 11.7317 6.63242 11.5391 6.58369 11.4528C6.53729 11.3707 6.13363 10.9876 5.32739 10.2606C5.11886 10.0726 5.00382 10.0488 4.86905 10.166C4.82248 10.2065 4.62971 10.5655 4.41477 11.012L4.04138 11.7876L2.8705 13.3096C1.57086 14.999 1.59264 14.9768 1.23639 14.9767C1.02193 14.9767 0.926931 14.9428 0.771702 14.8106C0.554085 14.6252 0.469461 14.3009 0.574999 14.0569C0.598942 14.0016 1.06376 13.3404 1.60798 12.5876C2.15217 11.8348 2.62491 11.1737 2.65852 11.1184C2.75133 10.9657 4.07628 6.39971 4.07628 6.23253C4.07628 5.85244 3.77275 5.56294 3.37422 5.56294C3.21854 5.56294 3.1729 5.57566 3.11545 5.63496C3.07707 5.6746 2.80963 6.22072 2.52108 6.84861C2.23257 7.47648 1.97019 8.02916 1.938 8.0768C1.85776 8.19559 1.61968 8.29403 1.46219 8.27355C1.18025 8.23685 0.956192 7.97483 0.991091 7.72259C1.01697 7.5354 2.28822 4.81197 2.39357 4.71806C2.45041 4.66736 2.84553 4.50609 3.49674 4.26773C4.05475 4.0635 4.63458 3.85022 4.78523 3.79379C4.93588 3.73737 5.09105 3.69032 5.13007 3.68926C5.16907 3.68819 5.57511 3.84687 6.03238 4.04184Z" fill="#185C5C"/>
<path fill-rule="evenodd" clip-rule="evenodd" d="M6.58985 0.0195446C6.43256 0.0438026 6.12026 0.164968 5.96145 0.263344C5.61668 0.476946 5.32259 0.888769 5.23977 1.27399C5.04113 2.19801 5.68325 3.09018 6.64315 3.22385C7.41688 3.33158 8.18162 2.87364 8.44715 2.14362C8.65439 1.57381 8.48801 0.897897 8.03364 0.463941C7.66253 0.109481 7.1098 -0.0606381 6.58985 0.0195446ZM7.30715 0.620149C7.50685 0.703739 7.76646 0.941349 7.87402 1.13898C7.95072 1.2799 7.95942 1.32938 7.95942 1.62414C7.95942 1.90761 7.94921 1.97091 7.88463 2.08832C7.63765 2.53728 7.14109 2.78071 6.66448 2.68649C6.2889 2.61221 6.01653 2.4038 5.85302 2.06553C5.78093 1.91639 5.76813 1.84734 5.76823 1.60851C5.76833 1.36171 5.77948 1.30606 5.85907 1.15523C6.01034 0.868606 6.24488 0.675761 6.56684 0.573352C6.74923 0.515333 7.11135 0.538216 7.30715 0.620149ZM3.57678 3.66372L2.1911 4.17185L2.01267 4.34378C1.84026 4.50993 1.81187 4.56408 1.16891 5.95369C0.80296 6.74458 0.486153 7.45931 0.464885 7.54203C0.382614 7.86185 0.528207 8.31982 0.780435 8.53464C1.06134 8.7739 1.49919 8.87203 1.82489 8.76868C2.05098 8.69694 2.25664 8.55514 2.37923 8.38646C2.43462 8.31022 2.69774 7.77554 2.96392 7.19832C3.2301 6.6211 3.46238 6.14713 3.48011 6.14504C3.49783 6.14297 3.51678 6.17158 3.52223 6.20862C3.52767 6.24566 3.23349 7.3007 2.86847 8.55314C2.34584 10.3464 2.18555 10.8569 2.11421 10.9553C0.857389 12.6898 0.127003 13.7205 0.0707375 13.839C0.013151 13.9603 0.00016418 14.045 3.05364e-06 14.3002C-0.000190298 14.5854 0.00854263 14.6306 0.0995791 14.816C0.279203 15.1816 0.574548 15.4077 0.979877 15.4896C1.36429 15.5674 1.7694 15.4639 2.05433 15.2151C2.11869 15.159 2.69636 14.4307 3.33806 13.5968C4.46755 12.1291 4.5118 12.0662 4.725 11.6274C4.84611 11.3781 4.98596 11.0918 5.03578 10.9912L5.1264 10.8082L5.61513 11.2502L6.10386 11.6923L6.11323 13.387L6.12258 15.0817L6.22258 15.2864C6.39685 15.6431 6.64776 15.8538 7.02321 15.9585C7.5695 16.1108 8.19119 15.8322 8.45131 15.3184L8.53948 15.1442L8.54844 13.1584L8.55739 11.1726L8.48366 11.0327C8.44309 10.9558 7.98111 10.3231 7.45703 9.62678C6.93298 8.93046 6.49407 8.34389 6.4817 8.32332C6.45795 8.28374 6.76941 7.20054 6.82374 7.13377C6.84124 7.11229 6.88703 7.09469 6.92547 7.09469C6.96395 7.09469 7.55193 7.38223 8.23211 7.73369C8.91751 8.08783 9.53988 8.38921 9.62821 8.40975C10.0206 8.5011 10.43 8.37555 10.7105 8.07789C10.9363 7.83819 11.0149 7.62377 10.9977 7.2942C10.9814 6.981 10.8698 6.74458 10.6476 6.55233C10.5495 6.46745 10.0534 6.19687 9.21244 5.76957C8.50554 5.41039 7.90934 5.10294 7.88753 5.08631C7.86571 5.06971 7.74245 4.85795 7.61361 4.61578C7.27728 3.9836 7.29187 3.99504 6.25122 3.54877C5.47691 3.21676 5.35839 3.17468 5.17194 3.16568C4.96904 3.15586 4.91887 3.17155 3.57678 3.66372ZM6.03238 4.04184L6.86376 4.39637L7.13049 4.87806C7.27718 5.14299 7.44395 5.40395 7.50108 5.458C7.55947 5.51323 8.17617 5.84666 8.91007 6.21978C9.62789 6.58471 10.2421 6.90626 10.275 6.9343C10.3079 6.96234 10.3623 7.03749 10.3958 7.10126C10.6069 7.50242 10.2534 7.96986 9.79359 7.89746C9.73207 7.88777 9.12018 7.58814 8.43388 7.23161C7.23261 6.60759 7.17818 6.58293 6.97655 6.57093C6.80224 6.56055 6.74318 6.5709 6.62462 6.63242C6.37165 6.76374 6.31358 6.86756 6.10154 7.56804C5.89762 8.2416 5.88479 8.35967 5.99336 8.5633C6.02033 8.61395 6.48495 9.24318 7.02582 9.96161L8.00921 11.2678L8.00041 13.1641L7.99165 15.0603L7.89197 15.1804C7.75495 15.3455 7.61074 15.4342 7.43824 15.4593C7.16642 15.4988 6.8878 15.3643 6.75097 15.1274L6.67041 14.9879L6.6543 13.2686C6.63989 11.7317 6.63242 11.5391 6.58369 11.4528C6.53729 11.3707 6.13363 10.9876 5.32739 10.2606C5.11886 10.0726 5.00382 10.0488 4.86905 10.166C4.82248 10.2065 4.62971 10.5655 4.41477 11.012L4.04138 11.7876L2.8705 13.3096C1.57086 14.999 1.59264 14.9768 1.23639 14.9767C1.02193 14.9767 0.926931 14.9428 0.771702 14.8106C0.554085 14.6252 0.469461 14.3009 0.574999 14.0569C0.598942 14.0016 1.06376 13.3404 1.60798 12.5876C2.15217 11.8348 2.62491 11.1737 2.65852 11.1184C2.75133 10.9657 4.07628 6.39971 4.07628 6.23253C4.07628 5.85244 3.77275 5.56294 3.37422 5.56294C3.21854 5.56294 3.1729 5.57566 3.11545 5.63496C3.07707 5.6746 2.80963 6.22072 2.52108 6.84861C2.23257 7.47648 1.97019 8.02916 1.938 8.0768C1.85776 8.19559 1.61968 8.29403 1.46219 8.27355C1.18025 8.23685 0.956192 7.97483 0.991091 7.72259C1.01697 7.5354 2.28822 4.81197 2.39357 4.71806C2.45041 4.66736 2.84553 4.50609 3.49674 4.26773C4.05475 4.0635 4.63458 3.85022 4.78523 3.79379C4.93588 3.73737 5.09105 3.69032 5.13007 3.68926C5.16907 3.68819 5.57511 3.84687 6.03238 4.04184Z" fill="black" fill-opacity="0.2"/>
</svg>
