<svg width="45" height="54" viewBox="0 0 45 54" fill="none" xmlns="http://www.w3.org/2000/svg">
<path fill-rule="evenodd" clip-rule="evenodd" d="M17.449 0.118506C16.8115 0.325954 16.4454 0.547647 16.0068 0.991665C15.2346 1.77366 15.0016 2.60049 15.0016 4.55922V5.73004L13.7909 6.35998C13.125 6.7065 12.5452 7.00374 12.5024 7.02063C12.4596 7.03751 12.4031 6.79028 12.3771 6.4713C12.3135 5.69606 11.8775 4.98656 11.2058 4.56576L10.696 4.24646H8.76108C6.97709 4.24646 6.7938 4.26419 6.40971 4.47417C5.92232 4.74071 5.52167 5.15402 5.24996 5.67095C5.07083 6.01177 5.05177 6.42266 5.00376 10.9996L4.95169 15.9589L4.57073 16.9187C4.16811 17.9327 3.72956 19.5819 3.53512 20.8127C3.47097 21.219 3.39536 23.1729 3.36703 25.155L3.31548 28.7585L2.45015 28.7954C1.68562 28.8277 1.53232 28.8694 1.1348 29.1525C0.618561 29.5203 0.261242 30.0115 0.110649 30.5607C-0.0472332 31.1366 -0.0314032 46.4782 0.127833 47.1186C0.217918 47.4815 0.391631 47.756 0.779152 48.1487C1.39017 48.7678 1.86361 48.9332 3.02492 48.9332H3.7657L3.98138 49.4344C4.98221 51.7608 7.17965 53.4724 9.69703 53.8863C10.6194 54.0379 34.3806 54.0379 35.303 53.8863C37.8204 53.4724 40.0178 51.7608 41.0186 49.4344L41.2343 48.9332H41.9751C43.1364 48.9332 43.6098 48.7678 44.2209 48.1487C44.6084 47.756 44.7821 47.4815 44.8722 47.1186C45.0314 46.4782 45.0472 31.1366 44.8894 30.5607C44.7388 30.0115 44.3814 29.5203 43.8652 29.1525C43.4677 28.8694 43.3144 28.8277 42.5499 28.7954L41.6845 28.7585L41.633 25.155C41.6046 23.1729 41.529 21.219 41.4649 20.8127C41.2704 19.5819 40.8319 17.9327 40.4293 16.9187L40.0483 15.9589L39.9962 10.9996C39.9455 6.1711 39.9382 6.02908 39.7194 5.61819C39.4564 5.12437 39.0484 4.71844 38.5382 4.44315C38.2202 4.27157 37.9269 4.24646 36.2389 4.24646H34.304L33.7942 4.56576C33.1225 4.98656 32.6865 5.69606 32.6229 6.4713C32.5969 6.79028 32.5404 7.03751 32.4976 7.02063C32.4548 7.00374 31.875 6.7065 31.2091 6.35998L29.9984 5.73004V4.55922C29.9984 2.09179 29.4967 1.01245 28.0196 0.301474L27.4469 0.0257564L22.6562 0.00444181C18.9926 -0.0119134 17.7676 0.0148881 17.449 0.118506ZM27.3249 1.69969C27.7584 1.88318 28.1896 2.40138 28.3275 2.90438C28.3867 3.12017 28.4353 3.7155 28.4356 4.22715C28.4362 5.08385 28.421 5.15265 28.244 5.09577C26.4447 4.51711 24.6436 4.25279 22.5 4.25279C20.3564 4.25279 18.5553 4.51711 16.756 5.09577C16.579 5.15265 16.5638 5.08385 16.5644 4.22715C16.565 3.1208 16.6835 2.62814 17.0573 2.17821C17.568 1.56315 17.5569 1.56441 22.4773 1.55988C26.056 1.55661 27.055 1.58541 27.3249 1.69969ZM10.348 5.89918C10.7604 6.12172 10.8291 6.32147 10.8325 7.30763L10.8358 8.25835L10.2538 8.72896C9.4425 9.38485 7.81097 11.1281 7.16163 12.0327L6.618 12.7901L6.5904 9.69666C6.56072 6.37074 6.58717 6.16899 7.08665 5.91301C7.42876 5.73774 10.0283 5.72677 10.348 5.89918ZM25.3217 6.03625C28.9246 6.62715 32.1892 8.32904 34.8394 10.9978C36.3548 12.5239 37.278 13.8089 38.1758 15.6424C39.2084 17.7507 39.7654 19.6896 39.9776 21.9142L40.0587 22.7648H39.4478C38.442 22.7648 38.3447 22.6411 38.0784 21.0238C37.1006 15.0852 33.0579 10.3088 27.4057 8.41377C25.6889 7.83828 24.4346 7.64054 22.5 7.64054C20.5654 7.64054 19.3111 7.83828 17.5943 8.41377C11.9421 10.3088 7.89939 15.0852 6.92158 21.0238C6.65528 22.6411 6.55801 22.7648 5.55219 22.7648H4.94128L5.02241 21.9142C5.23465 19.6896 5.79162 17.7507 6.82421 15.6424C7.72203 13.8089 8.64517 12.5239 10.1606 10.9978C13.2146 7.92238 16.7921 6.26544 21.3023 5.83756C22.0295 5.76855 24.4058 5.88599 25.3217 6.03625ZM37.9134 5.91301C38.4128 6.16899 38.4393 6.37074 38.4096 9.69666L38.382 12.7901L37.8384 12.0327C37.189 11.1281 35.5575 9.38485 34.7462 8.72896L34.1642 8.25835L34.1675 7.30763C34.1725 5.86785 34.2874 5.78354 36.247 5.78122C37.1767 5.78016 37.7412 5.82479 37.9134 5.91301ZM23.8611 9.26435C28.9365 9.79205 33.1924 12.8177 35.356 17.4362C36.0339 18.8831 36.3132 19.8344 36.6209 21.7434C36.7816 22.7399 37.0166 23.3158 37.4086 23.6742C37.9621 24.1801 38.25 24.2907 39.1561 24.346L40.0483 24.4003L40.0749 35.616C40.1043 48.0916 40.1255 47.6618 39.4076 49.1442C38.657 50.6942 36.951 51.9947 35.2645 52.3025C34.4064 52.4592 10.5936 52.4592 9.73545 52.3025C8.04905 51.9947 6.34295 50.6942 5.59239 49.1442C4.87452 47.6618 4.89566 48.0916 4.92514 35.616L4.95169 24.4003L5.8439 24.346C6.75005 24.2907 7.03791 24.1801 7.59144 23.6742C7.98344 23.3158 8.21838 22.7399 8.37908 21.7434C8.68683 19.8344 8.96614 18.8831 9.64402 17.4362C11.7748 12.8877 16.073 9.79426 20.9914 9.26984C22.2 9.1409 22.6654 9.14005 23.8611 9.26435ZM20.9899 11.0621C18.9645 11.3061 16.5525 12.2783 15.3087 13.3518C15.0786 13.5504 14.7594 14.0012 14.5634 14.4045L14.2205 15.1099V19.5065C14.2205 23.6818 14.2305 23.9142 14.4189 24.1252L14.6173 24.3476H22.5H30.3827L30.5811 24.1252C30.7695 23.9142 30.7795 23.6818 30.7795 19.5065V15.1099L30.4366 14.4045C29.934 13.3704 29.0437 12.6801 27.265 11.9453C25.2058 11.0947 23.1362 10.8034 20.9899 11.0621ZM24.0884 12.686C26.1826 13.0058 28.4296 14.0424 28.9831 14.9443C29.2126 15.3182 29.2179 15.4001 29.2494 19.0453L29.2816 22.7648H22.5H15.7184L15.7506 19.0453C15.7821 15.4001 15.7874 15.3182 16.0169 14.9443C16.555 14.0674 18.8113 13.009 20.8165 12.6924C22.025 12.5017 22.8711 12.5001 24.0884 12.686ZM19.7922 14.3957C19.2542 14.6049 19.0876 15.2977 19.4798 15.6951C19.6778 15.8957 19.8269 15.9062 22.5 15.9062C25.1731 15.9062 25.3222 15.8957 25.5202 15.6951C25.8007 15.4109 25.7953 14.8395 25.5095 14.5772C25.3074 14.3918 25.0836 14.3746 22.6195 14.3556C21.1504 14.3442 19.8782 14.3623 19.7922 14.3957ZM9.68869 29.0296C9.06622 29.3632 8.58872 30.008 8.44521 30.7087C8.36544 31.0981 8.33898 33.7018 8.35919 39.1787C8.38689 46.66 8.39897 47.1066 8.58258 47.4559C8.85429 47.9729 9.25493 48.3862 9.74233 48.6527L10.1589 48.8804H22.5H34.8411L35.2577 48.6527C35.7451 48.3862 36.1457 47.9729 36.4174 47.4559C36.601 47.1066 36.6131 46.66 36.6408 39.1787C36.661 33.7018 36.6346 31.0981 36.5548 30.7087C36.4113 30.008 35.9338 29.3632 35.3113 29.0296L34.8443 28.7793H22.5H10.1557L9.68869 29.0296ZM3.33746 32.1031V33.8442H2.45223H1.567V32.4672C1.567 31.4583 1.60814 31.0095 1.72103 30.7885C1.91203 30.4143 1.99358 30.3808 2.73863 30.3704L3.33746 30.3621V32.1031ZM34.7646 30.5727C35.0589 30.8505 35.1182 31.2367 35.0806 32.6307L35.0494 33.7914H22.5H9.95062L9.91937 32.6307C9.88178 31.2367 9.94114 30.8505 10.2355 30.5727C10.4557 30.3647 10.6105 30.3621 22.5 30.3621C34.3895 30.3621 34.5443 30.3647 34.7646 30.5727ZM42.9597 30.4276C43.3241 30.5693 43.433 31.0389 43.433 32.4672V33.8442H42.5478H41.6625V32.1031V30.3621H42.2268C42.5372 30.3621 42.867 30.3916 42.9597 30.4276ZM3.33891 41.1513C3.33964 44.2996 3.37005 46.9884 3.4065 47.1263C3.47222 47.3749 3.46691 47.3766 2.7781 47.3322C2.23623 47.2972 2.03232 47.2356 1.85121 47.0522L1.61908 46.8171L1.59044 41.122L1.5618 35.4269H2.44963H3.33746L3.33891 41.1513ZM13.3353 36.3666V37.3062L12.8846 37.5739C12.3577 37.8866 11.9228 38.5024 11.7772 39.1418C11.6386 39.7507 11.6407 42.9102 11.7799 43.315C11.9548 43.8233 12.2522 43.8863 14.3001 43.8489C15.9218 43.8193 16.1504 43.7931 16.3449 43.6146C16.554 43.4225 16.5637 43.3162 16.5615 41.2404C16.5595 39.3662 16.5331 39.0092 16.3694 38.6452C16.1662 38.1929 15.4774 37.4986 15.1173 37.3827C14.9153 37.3177 14.8975 37.2358 14.8975 36.3695V35.4269H25.0021H35.1067L35.078 41.122L35.0494 46.8171L34.8121 47.0574L34.5749 47.2977H22.5H10.4251L10.1879 47.0574L9.95062 46.8171L9.92198 41.122L9.89334 35.4269H11.6143H13.3353V36.3666ZM43.4096 41.122L43.3809 46.8171L43.1488 47.0522C42.9677 47.2356 42.7638 47.2972 42.2219 47.3322C41.5331 47.3766 41.5278 47.3749 41.5935 47.1263C41.63 46.9884 41.6604 44.2996 41.6611 41.1513L41.6625 35.4269H42.5504H43.4382L43.4096 41.122ZM14.7459 39.0625C14.9932 39.3129 15.0016 39.3706 15.0016 40.8036V42.2856H14.1085H13.2154L13.2493 40.8164C13.2814 39.4306 13.2975 39.332 13.5357 39.0754C13.8724 38.7128 14.3953 38.7073 14.7459 39.0625Z" fill="#185C5C"/>
<path fill-rule="evenodd" clip-rule="evenodd" d="M17.449 0.118506C16.8115 0.325954 16.4454 0.547647 16.0068 0.991665C15.2346 1.77366 15.0016 2.60049 15.0016 4.55922V5.73004L13.7909 6.35998C13.125 6.7065 12.5452 7.00374 12.5024 7.02063C12.4596 7.03751 12.4031 6.79028 12.3771 6.4713C12.3135 5.69606 11.8775 4.98656 11.2058 4.56576L10.696 4.24646H8.76108C6.97709 4.24646 6.7938 4.26419 6.40971 4.47417C5.92232 4.74071 5.52167 5.15402 5.24996 5.67095C5.07083 6.01177 5.05177 6.42266 5.00376 10.9996L4.95169 15.9589L4.57073 16.9187C4.16811 17.9327 3.72956 19.5819 3.53512 20.8127C3.47097 21.219 3.39536 23.1729 3.36703 25.155L3.31548 28.7585L2.45015 28.7954C1.68562 28.8277 1.53232 28.8694 1.1348 29.1525C0.618561 29.5203 0.261242 30.0115 0.110649 30.5607C-0.0472332 31.1366 -0.0314032 46.4782 0.127833 47.1186C0.217918 47.4815 0.391631 47.756 0.779152 48.1487C1.39017 48.7678 1.86361 48.9332 3.02492 48.9332H3.7657L3.98138 49.4344C4.98221 51.7608 7.17965 53.4724 9.69703 53.8863C10.6194 54.0379 34.3806 54.0379 35.303 53.8863C37.8204 53.4724 40.0178 51.7608 41.0186 49.4344L41.2343 48.9332H41.9751C43.1364 48.9332 43.6098 48.7678 44.2209 48.1487C44.6084 47.756 44.7821 47.4815 44.8722 47.1186C45.0314 46.4782 45.0472 31.1366 44.8894 30.5607C44.7388 30.0115 44.3814 29.5203 43.8652 29.1525C43.4677 28.8694 43.3144 28.8277 42.5499 28.7954L41.6845 28.7585L41.633 25.155C41.6046 23.1729 41.529 21.219 41.4649 20.8127C41.2704 19.5819 40.8319 17.9327 40.4293 16.9187L40.0483 15.9589L39.9962 10.9996C39.9455 6.1711 39.9382 6.02908 39.7194 5.61819C39.4564 5.12437 39.0484 4.71844 38.5382 4.44315C38.2202 4.27157 37.9269 4.24646 36.2389 4.24646H34.304L33.7942 4.56576C33.1225 4.98656 32.6865 5.69606 32.6229 6.4713C32.5969 6.79028 32.5404 7.03751 32.4976 7.02063C32.4548 7.00374 31.875 6.7065 31.2091 6.35998L29.9984 5.73004V4.55922C29.9984 2.09179 29.4967 1.01245 28.0196 0.301474L27.4469 0.0257564L22.6562 0.00444181C18.9926 -0.0119134 17.7676 0.0148881 17.449 0.118506ZM27.3249 1.69969C27.7584 1.88318 28.1896 2.40138 28.3275 2.90438C28.3867 3.12017 28.4353 3.7155 28.4356 4.22715C28.4362 5.08385 28.421 5.15265 28.244 5.09577C26.4447 4.51711 24.6436 4.25279 22.5 4.25279C20.3564 4.25279 18.5553 4.51711 16.756 5.09577C16.579 5.15265 16.5638 5.08385 16.5644 4.22715C16.565 3.1208 16.6835 2.62814 17.0573 2.17821C17.568 1.56315 17.5569 1.56441 22.4773 1.55988C26.056 1.55661 27.055 1.58541 27.3249 1.69969ZM10.348 5.89918C10.7604 6.12172 10.8291 6.32147 10.8325 7.30763L10.8358 8.25835L10.2538 8.72896C9.4425 9.38485 7.81097 11.1281 7.16163 12.0327L6.618 12.7901L6.5904 9.69666C6.56072 6.37074 6.58717 6.16899 7.08665 5.91301C7.42876 5.73774 10.0283 5.72677 10.348 5.89918ZM25.3217 6.03625C28.9246 6.62715 32.1892 8.32904 34.8394 10.9978C36.3548 12.5239 37.278 13.8089 38.1758 15.6424C39.2084 17.7507 39.7654 19.6896 39.9776 21.9142L40.0587 22.7648H39.4478C38.442 22.7648 38.3447 22.6411 38.0784 21.0238C37.1006 15.0852 33.0579 10.3088 27.4057 8.41377C25.6889 7.83828 24.4346 7.64054 22.5 7.64054C20.5654 7.64054 19.3111 7.83828 17.5943 8.41377C11.9421 10.3088 7.89939 15.0852 6.92158 21.0238C6.65528 22.6411 6.55801 22.7648 5.55219 22.7648H4.94128L5.02241 21.9142C5.23465 19.6896 5.79162 17.7507 6.82421 15.6424C7.72203 13.8089 8.64517 12.5239 10.1606 10.9978C13.2146 7.92238 16.7921 6.26544 21.3023 5.83756C22.0295 5.76855 24.4058 5.88599 25.3217 6.03625ZM37.9134 5.91301C38.4128 6.16899 38.4393 6.37074 38.4096 9.69666L38.382 12.7901L37.8384 12.0327C37.189 11.1281 35.5575 9.38485 34.7462 8.72896L34.1642 8.25835L34.1675 7.30763C34.1725 5.86785 34.2874 5.78354 36.247 5.78122C37.1767 5.78016 37.7412 5.82479 37.9134 5.91301ZM23.8611 9.26435C28.9365 9.79205 33.1924 12.8177 35.356 17.4362C36.0339 18.8831 36.3132 19.8344 36.6209 21.7434C36.7816 22.7399 37.0166 23.3158 37.4086 23.6742C37.9621 24.1801 38.25 24.2907 39.1561 24.346L40.0483 24.4003L40.0749 35.616C40.1043 48.0916 40.1255 47.6618 39.4076 49.1442C38.657 50.6942 36.951 51.9947 35.2645 52.3025C34.4064 52.4592 10.5936 52.4592 9.73545 52.3025C8.04905 51.9947 6.34295 50.6942 5.59239 49.1442C4.87452 47.6618 4.89566 48.0916 4.92514 35.616L4.95169 24.4003L5.8439 24.346C6.75005 24.2907 7.03791 24.1801 7.59144 23.6742C7.98344 23.3158 8.21838 22.7399 8.37908 21.7434C8.68683 19.8344 8.96614 18.8831 9.64402 17.4362C11.7748 12.8877 16.073 9.79426 20.9914 9.26984C22.2 9.1409 22.6654 9.14005 23.8611 9.26435ZM20.9899 11.0621C18.9645 11.3061 16.5525 12.2783 15.3087 13.3518C15.0786 13.5504 14.7594 14.0012 14.5634 14.4045L14.2205 15.1099V19.5065C14.2205 23.6818 14.2305 23.9142 14.4189 24.1252L14.6173 24.3476H22.5H30.3827L30.5811 24.1252C30.7695 23.9142 30.7795 23.6818 30.7795 19.5065V15.1099L30.4366 14.4045C29.934 13.3704 29.0437 12.6801 27.265 11.9453C25.2058 11.0947 23.1362 10.8034 20.9899 11.0621ZM24.0884 12.686C26.1826 13.0058 28.4296 14.0424 28.9831 14.9443C29.2126 15.3182 29.2179 15.4001 29.2494 19.0453L29.2816 22.7648H22.5H15.7184L15.7506 19.0453C15.7821 15.4001 15.7874 15.3182 16.0169 14.9443C16.555 14.0674 18.8113 13.009 20.8165 12.6924C22.025 12.5017 22.8711 12.5001 24.0884 12.686ZM19.7922 14.3957C19.2542 14.6049 19.0876 15.2977 19.4798 15.6951C19.6778 15.8957 19.8269 15.9062 22.5 15.9062C25.1731 15.9062 25.3222 15.8957 25.5202 15.6951C25.8007 15.4109 25.7953 14.8395 25.5095 14.5772C25.3074 14.3918 25.0836 14.3746 22.6195 14.3556C21.1504 14.3442 19.8782 14.3623 19.7922 14.3957ZM9.68869 29.0296C9.06622 29.3632 8.58872 30.008 8.44521 30.7087C8.36544 31.0981 8.33898 33.7018 8.35919 39.1787C8.38689 46.66 8.39897 47.1066 8.58258 47.4559C8.85429 47.9729 9.25493 48.3862 9.74233 48.6527L10.1589 48.8804H22.5H34.8411L35.2577 48.6527C35.7451 48.3862 36.1457 47.9729 36.4174 47.4559C36.601 47.1066 36.6131 46.66 36.6408 39.1787C36.661 33.7018 36.6346 31.0981 36.5548 30.7087C36.4113 30.008 35.9338 29.3632 35.3113 29.0296L34.8443 28.7793H22.5H10.1557L9.68869 29.0296ZM3.33746 32.1031V33.8442H2.45223H1.567V32.4672C1.567 31.4583 1.60814 31.0095 1.72103 30.7885C1.91203 30.4143 1.99358 30.3808 2.73863 30.3704L3.33746 30.3621V32.1031ZM34.7646 30.5727C35.0589 30.8505 35.1182 31.2367 35.0806 32.6307L35.0494 33.7914H22.5H9.95062L9.91937 32.6307C9.88178 31.2367 9.94114 30.8505 10.2355 30.5727C10.4557 30.3647 10.6105 30.3621 22.5 30.3621C34.3895 30.3621 34.5443 30.3647 34.7646 30.5727ZM42.9597 30.4276C43.3241 30.5693 43.433 31.0389 43.433 32.4672V33.8442H42.5478H41.6625V32.1031V30.3621H42.2268C42.5372 30.3621 42.867 30.3916 42.9597 30.4276ZM3.33891 41.1513C3.33964 44.2996 3.37005 46.9884 3.4065 47.1263C3.47222 47.3749 3.46691 47.3766 2.7781 47.3322C2.23623 47.2972 2.03232 47.2356 1.85121 47.0522L1.61908 46.8171L1.59044 41.122L1.5618 35.4269H2.44963H3.33746L3.33891 41.1513ZM13.3353 36.3666V37.3062L12.8846 37.5739C12.3577 37.8866 11.9228 38.5024 11.7772 39.1418C11.6386 39.7507 11.6407 42.9102 11.7799 43.315C11.9548 43.8233 12.2522 43.8863 14.3001 43.8489C15.9218 43.8193 16.1504 43.7931 16.3449 43.6146C16.554 43.4225 16.5637 43.3162 16.5615 41.2404C16.5595 39.3662 16.5331 39.0092 16.3694 38.6452C16.1662 38.1929 15.4774 37.4986 15.1173 37.3827C14.9153 37.3177 14.8975 37.2358 14.8975 36.3695V35.4269H25.0021H35.1067L35.078 41.122L35.0494 46.8171L34.8121 47.0574L34.5749 47.2977H22.5H10.4251L10.1879 47.0574L9.95062 46.8171L9.92198 41.122L9.89334 35.4269H11.6143H13.3353V36.3666ZM43.4096 41.122L43.3809 46.8171L43.1488 47.0522C42.9677 47.2356 42.7638 47.2972 42.2219 47.3322C41.5331 47.3766 41.5278 47.3749 41.5935 47.1263C41.63 46.9884 41.6604 44.2996 41.6611 41.1513L41.6625 35.4269H42.5504H43.4382L43.4096 41.122ZM14.7459 39.0625C14.9932 39.3129 15.0016 39.3706 15.0016 40.8036V42.2856H14.1085H13.2154L13.2493 40.8164C13.2814 39.4306 13.2975 39.332 13.5357 39.0754C13.8724 38.7128 14.3953 38.7073 14.7459 39.0625Z" fill="black" fill-opacity="0.2"/>
</svg>
