<svg width="21" height="17" viewBox="0 0 21 17" fill="none" xmlns="http://www.w3.org/2000/svg">
<path fill-rule="evenodd" clip-rule="evenodd" d="M4.51307 0.0376728C4.10812 0.116341 3.73646 0.417537 3.6028 0.775334C3.55991 0.890148 3.30591 2.22306 3.03836 3.73743L2.55186 6.4908H1.72418H0.896459L0.645053 6.61417C0.378568 6.74492 0.237766 6.8814 0.0904717 7.15177L0 7.31782V11.7353V16.1528L0.110357 16.3582C0.239368 16.5983 0.454618 16.7959 0.716912 16.915L0.903895 17H8.85407H16.8042L17.0377 16.8874C17.3022 16.7599 17.4951 16.5645 17.6216 16.2961C17.7042 16.1209 17.7087 16.0404 17.7202 14.5348L17.7322 12.9572L17.9461 12.9959C18.3098 13.0616 18.7571 13.0165 18.9729 12.8923C19.216 12.7525 19.4357 12.4973 19.5139 12.2642C19.5482 12.1619 19.9018 10.2447 20.2997 8.00364C20.8808 4.73099 21.0182 3.88686 20.9981 3.7146C20.9431 3.24264 20.5819 2.82259 20.1285 2.70326C19.9804 2.66429 18.1146 2.33489 10.025 0.919719C5.60916 0.147162 4.73008 -0.0048077 4.70576 0.000114069C4.69368 0.00253461 4.60699 0.0194381 4.51307 0.0376728ZM12.3909 2.01251C17.4724 2.90251 20.0249 3.36568 20.0942 3.41034C20.2323 3.49909 20.3171 3.66869 20.3173 3.85644C20.3175 3.94076 20.268 4.29521 20.2075 4.64413C20.1039 5.24075 20.0923 5.27738 20.0121 5.25915C19.9652 5.24846 18.5216 4.9943 16.8042 4.69436C15.0868 4.39441 13.1178 4.05021 12.4286 3.9295C5.61878 2.7369 3.98396 2.44845 3.97291 2.4376C3.93967 2.40497 4.21733 1.02138 4.27427 0.936098C4.35673 0.812529 4.57359 0.68186 4.69652 0.681659C4.74866 0.681578 8.21115 1.28046 12.3909 2.01251ZM11.8944 4.51382C16.2218 5.27077 19.8103 5.90269 19.8688 5.91814L19.9752 5.94618L19.4499 8.91135C19.1611 10.5422 18.9045 11.9447 18.8797 12.028C18.7991 12.2986 18.5475 12.3897 18.0471 12.3292L17.7287 12.2907V9.90232C17.7287 7.25384 17.7299 7.26764 17.4628 6.92412C17.3667 6.80051 17.2362 6.69913 17.0657 6.61542L16.8117 6.4908H10.039C3.32461 6.4908 3.26635 6.49012 3.26635 6.41121C3.26635 6.34267 3.7577 3.52838 3.82533 3.20959C3.84492 3.11725 3.86662 3.09934 3.93803 3.1164C3.98667 3.12806 7.56704 3.75688 11.8944 4.51382ZM16.7165 7.19191C16.791 7.22249 16.8922 7.29757 16.9411 7.35873L17.0302 7.46991V11.7245C17.0302 15.6622 17.025 15.9876 16.9601 16.0955C16.806 16.3516 17.3926 16.3344 8.83554 16.3344C1.9511 16.3344 1.02958 16.3272 0.923083 16.2732C0.664445 16.1418 0.677922 16.3918 0.677922 11.7261C0.677922 7.02639 0.657255 7.38265 0.939517 7.21366C1.06504 7.1385 1.26167 7.13656 8.82457 7.13644C15.3234 7.13632 16.6029 7.14532 16.7165 7.19191ZM2.40395 10.6992C2.18854 10.7665 1.93351 11.0382 1.87632 11.2613C1.81671 11.4937 1.81367 12.4685 1.87189 12.6744C1.92797 12.8727 2.13443 13.1007 2.34154 13.1931C2.49056 13.2596 2.64168 13.2666 3.92755 13.2674C5.33693 13.2683 5.35032 13.2676 5.52991 13.1745C5.6295 13.1229 5.76644 13.0034 5.83423 12.9089L5.95749 12.7373L5.97089 12.0447C5.97898 11.6262 5.96674 11.2942 5.93995 11.2058C5.8837 11.0201 5.58496 10.7466 5.37633 10.6897C5.15939 10.6305 2.59726 10.6387 2.40395 10.6992ZM5.27135 11.3803C5.30463 11.413 5.32066 11.5988 5.32066 11.952C5.32066 12.3823 5.30858 12.4884 5.25266 12.5491C5.18963 12.6175 5.09349 12.6228 3.93519 12.6228C3.1525 12.6228 2.65606 12.6072 2.60626 12.5811C2.53337 12.5428 2.5268 12.4915 2.5268 11.9625C2.5268 11.6453 2.53912 11.3736 2.5542 11.3588C2.56924 11.344 3.17567 11.3319 3.90183 11.3319C4.87389 11.3319 5.23503 11.3446 5.27135 11.3803ZM2.082 14.4509C1.95952 14.579 1.96458 14.7774 2.09354 14.904L2.19437 15.0031H3.27588C4.4461 15.0031 4.49869 14.994 4.58209 14.7786C4.62827 14.6593 4.5597 14.4514 4.45624 14.3971C4.41257 14.3741 3.91835 14.3576 3.27621 14.3576C2.17444 14.3576 2.17112 14.3578 2.082 14.4509ZM5.7756 14.4639C5.66032 14.6077 5.66652 14.7815 5.7913 14.904L5.89212 15.0031H6.98592H8.07976L8.20466 14.8804C8.30918 14.7778 8.32541 14.7366 8.30409 14.6283C8.25166 14.3618 8.23091 14.3576 6.98308 14.3576H5.86073L5.7756 14.4639ZM9.47336 14.4639C9.37709 14.584 9.36629 14.6856 9.43597 14.8141C9.53511 14.9968 9.5596 15.0004 10.7152 15.0018L11.8162 15.0031L11.917 14.8963C12.0401 14.7658 12.0459 14.6054 11.9325 14.4639L11.8474 14.3576H10.7029H9.55849L9.47336 14.4639ZM13.2139 14.4282C13.1663 14.467 13.1158 14.557 13.1018 14.6283C13.0805 14.7366 13.0967 14.7778 13.2012 14.8804L13.3261 15.0031H14.42H15.5138L15.6146 14.904C15.748 14.773 15.7507 14.5655 15.6204 14.4453C15.5276 14.3597 15.4984 14.3576 14.4129 14.3576C13.4138 14.3576 13.2917 14.3648 13.2139 14.4282Z" fill="#185C5C"/>
<path fill-rule="evenodd" clip-rule="evenodd" d="M4.51307 0.0376728C4.10812 0.116341 3.73646 0.417537 3.6028 0.775334C3.55991 0.890148 3.30591 2.22306 3.03836 3.73743L2.55186 6.4908H1.72418H0.896459L0.645053 6.61417C0.378568 6.74492 0.237766 6.8814 0.0904717 7.15177L0 7.31782V11.7353V16.1528L0.110357 16.3582C0.239368 16.5983 0.454618 16.7959 0.716912 16.915L0.903895 17H8.85407H16.8042L17.0377 16.8874C17.3022 16.7599 17.4951 16.5645 17.6216 16.2961C17.7042 16.1209 17.7087 16.0404 17.7202 14.5348L17.7322 12.9572L17.9461 12.9959C18.3098 13.0616 18.7571 13.0165 18.9729 12.8923C19.216 12.7525 19.4357 12.4973 19.5139 12.2642C19.5482 12.1619 19.9018 10.2447 20.2997 8.00364C20.8808 4.73099 21.0182 3.88686 20.9981 3.7146C20.9431 3.24264 20.5819 2.82259 20.1285 2.70326C19.9804 2.66429 18.1146 2.33489 10.025 0.919719C5.60916 0.147162 4.73008 -0.0048077 4.70576 0.000114069C4.69368 0.00253461 4.60699 0.0194381 4.51307 0.0376728ZM12.3909 2.01251C17.4724 2.90251 20.0249 3.36568 20.0942 3.41034C20.2323 3.49909 20.3171 3.66869 20.3173 3.85644C20.3175 3.94076 20.268 4.29521 20.2075 4.64413C20.1039 5.24075 20.0923 5.27738 20.0121 5.25915C19.9652 5.24846 18.5216 4.9943 16.8042 4.69436C15.0868 4.39441 13.1178 4.05021 12.4286 3.9295C5.61878 2.7369 3.98396 2.44845 3.97291 2.4376C3.93967 2.40497 4.21733 1.02138 4.27427 0.936098C4.35673 0.812529 4.57359 0.68186 4.69652 0.681659C4.74866 0.681578 8.21115 1.28046 12.3909 2.01251ZM11.8944 4.51382C16.2218 5.27077 19.8103 5.90269 19.8688 5.91814L19.9752 5.94618L19.4499 8.91135C19.1611 10.5422 18.9045 11.9447 18.8797 12.028C18.7991 12.2986 18.5475 12.3897 18.0471 12.3292L17.7287 12.2907V9.90232C17.7287 7.25384 17.7299 7.26764 17.4628 6.92412C17.3667 6.80051 17.2362 6.69913 17.0657 6.61542L16.8117 6.4908H10.039C3.32461 6.4908 3.26635 6.49012 3.26635 6.41121C3.26635 6.34267 3.7577 3.52838 3.82533 3.20959C3.84492 3.11725 3.86662 3.09934 3.93803 3.1164C3.98667 3.12806 7.56704 3.75688 11.8944 4.51382ZM16.7165 7.19191C16.791 7.22249 16.8922 7.29757 16.9411 7.35873L17.0302 7.46991V11.7245C17.0302 15.6622 17.025 15.9876 16.9601 16.0955C16.806 16.3516 17.3926 16.3344 8.83554 16.3344C1.9511 16.3344 1.02958 16.3272 0.923083 16.2732C0.664445 16.1418 0.677922 16.3918 0.677922 11.7261C0.677922 7.02639 0.657255 7.38265 0.939517 7.21366C1.06504 7.1385 1.26167 7.13656 8.82457 7.13644C15.3234 7.13632 16.6029 7.14532 16.7165 7.19191ZM2.40395 10.6992C2.18854 10.7665 1.93351 11.0382 1.87632 11.2613C1.81671 11.4937 1.81367 12.4685 1.87189 12.6744C1.92797 12.8727 2.13443 13.1007 2.34154 13.1931C2.49056 13.2596 2.64168 13.2666 3.92755 13.2674C5.33693 13.2683 5.35032 13.2676 5.52991 13.1745C5.6295 13.1229 5.76644 13.0034 5.83423 12.9089L5.95749 12.7373L5.97089 12.0447C5.97898 11.6262 5.96674 11.2942 5.93995 11.2058C5.8837 11.0201 5.58496 10.7466 5.37633 10.6897C5.15939 10.6305 2.59726 10.6387 2.40395 10.6992ZM5.27135 11.3803C5.30463 11.413 5.32066 11.5988 5.32066 11.952C5.32066 12.3823 5.30858 12.4884 5.25266 12.5491C5.18963 12.6175 5.09349 12.6228 3.93519 12.6228C3.1525 12.6228 2.65606 12.6072 2.60626 12.5811C2.53337 12.5428 2.5268 12.4915 2.5268 11.9625C2.5268 11.6453 2.53912 11.3736 2.5542 11.3588C2.56924 11.344 3.17567 11.3319 3.90183 11.3319C4.87389 11.3319 5.23503 11.3446 5.27135 11.3803ZM2.082 14.4509C1.95952 14.579 1.96458 14.7774 2.09354 14.904L2.19437 15.0031H3.27588C4.4461 15.0031 4.49869 14.994 4.58209 14.7786C4.62827 14.6593 4.5597 14.4514 4.45624 14.3971C4.41257 14.3741 3.91835 14.3576 3.27621 14.3576C2.17444 14.3576 2.17112 14.3578 2.082 14.4509ZM5.7756 14.4639C5.66032 14.6077 5.66652 14.7815 5.7913 14.904L5.89212 15.0031H6.98592H8.07976L8.20466 14.8804C8.30918 14.7778 8.32541 14.7366 8.30409 14.6283C8.25166 14.3618 8.23091 14.3576 6.98308 14.3576H5.86073L5.7756 14.4639ZM9.47336 14.4639C9.37709 14.584 9.36629 14.6856 9.43597 14.8141C9.53511 14.9968 9.5596 15.0004 10.7152 15.0018L11.8162 15.0031L11.917 14.8963C12.0401 14.7658 12.0459 14.6054 11.9325 14.4639L11.8474 14.3576H10.7029H9.55849L9.47336 14.4639ZM13.2139 14.4282C13.1663 14.467 13.1158 14.557 13.1018 14.6283C13.0805 14.7366 13.0967 14.7778 13.2012 14.8804L13.3261 15.0031H14.42H15.5138L15.6146 14.904C15.748 14.773 15.7507 14.5655 15.6204 14.4453C15.5276 14.3597 15.4984 14.3576 14.4129 14.3576C13.4138 14.3576 13.2917 14.3648 13.2139 14.4282Z" fill="black" fill-opacity="0.2"/>
</svg>
