<svg width="20" height="20" viewBox="0 0 20 20" fill="none" xmlns="http://www.w3.org/2000/svg">
<path d="M5.6 11.2C5.9713 11.2 6.3274 11.0525 6.58995 10.7899C6.8525 10.5274 7 10.1713 7 9.8C7 9.4287 6.8525 9.0726 6.58995 8.81005C6.3274 8.5475 5.9713 8.4 5.6 8.4C5.2287 8.4 4.8726 8.5475 4.61005 8.81005C4.3475 9.0726 4.2 9.4287 4.2 9.8C4.2 10.1713 4.3475 10.5274 4.61005 10.7899C4.8726 11.0525 5.2287 11.2 5.6 11.2ZM7 14C7 14.3713 6.8525 14.7274 6.58995 14.9899C6.3274 15.2525 5.9713 15.4 5.6 15.4C5.2287 15.4 4.8726 15.2525 4.61005 14.9899C4.3475 14.7274 4.2 14.3713 4.2 14C4.2 13.6287 4.3475 13.2726 4.61005 13.01C4.8726 12.7475 5.2287 12.6 5.6 12.6C5.9713 12.6 6.3274 12.7475 6.58995 13.01C6.8525 13.2726 7 13.6287 7 14ZM9.8 11.2C10.1713 11.2 10.5274 11.0525 10.7899 10.7899C11.0525 10.5274 11.2 10.1713 11.2 9.8C11.2 9.4287 11.0525 9.0726 10.7899 8.81005C10.5274 8.5475 10.1713 8.4 9.8 8.4C9.4287 8.4 9.0726 8.5475 8.81005 8.81005C8.5475 9.0726 8.4 9.4287 8.4 9.8C8.4 10.1713 8.5475 10.5274 8.81005 10.7899C9.0726 11.0525 9.4287 11.2 9.8 11.2ZM11.2 14C11.2 14.3713 11.0525 14.7274 10.7899 14.9899C10.5274 15.2525 10.1713 15.4 9.8 15.4C9.4287 15.4 9.0726 15.2525 8.81005 14.9899C8.5475 14.7274 8.4 14.3713 8.4 14C8.4 13.6287 8.5475 13.2726 8.81005 13.01C9.0726 12.7475 9.4287 12.6 9.8 12.6C10.1713 12.6 10.5274 12.7475 10.7899 13.01C11.0525 13.2726 11.2 13.6287 11.2 14ZM14 11.2C14.3713 11.2 14.7274 11.0525 14.9899 10.7899C15.2525 10.5274 15.4 10.1713 15.4 9.8C15.4 9.4287 15.2525 9.0726 14.9899 8.81005C14.7274 8.5475 14.3713 8.4 14 8.4C13.6287 8.4 13.2726 8.5475 13.01 8.81005C12.7475 9.0726 12.6 9.4287 12.6 9.8C12.6 10.1713 12.7475 10.5274 13.01 10.7899C13.2726 11.0525 13.6287 11.2 14 11.2ZM19.6 3.5C19.6 2.57174 19.2312 1.6815 18.5749 1.02513C17.9185 0.368749 17.0283 0 16.1 0H3.5C2.57174 0 1.6815 0.368749 1.02513 1.02513C0.368749 1.6815 0 2.57174 0 3.5V16.1C0 17.0283 0.368749 17.9185 1.02513 18.5749C1.6815 19.2312 2.57174 19.6 3.5 19.6H16.1C17.0283 19.6 17.9185 19.2312 18.5749 18.5749C19.2312 17.9185 19.6 17.0283 19.6 16.1V3.5ZM1.4 5.6H18.2V16.1C18.2 16.657 17.9787 17.1911 17.5849 17.5849C17.1911 17.9787 16.657 18.2 16.1 18.2H3.5C2.94305 18.2 2.4089 17.9787 2.01508 17.5849C1.62125 17.1911 1.4 16.657 1.4 16.1V5.6ZM3.5 1.4H16.1C16.657 1.4 17.1911 1.62125 17.5849 2.01508C17.9787 2.4089 18.2 2.94305 18.2 3.5V4.2H1.4V3.5C1.4 2.94305 1.62125 2.4089 2.01508 2.01508C2.4089 1.62125 2.94305 1.4 3.5 1.4Z" fill="#FC7201"/>
</svg>
