<svg width="55" height="52" viewBox="0 0 55 52" fill="none" xmlns="http://www.w3.org/2000/svg">
<path d="M54.0833 29.9208H44.9167V29.8311C48.2175 28.4128 50.556 25.5679 51.1674 22.2269H52.25C53.7688 22.2269 55 21.0787 55 19.6623C55 18.2458 53.7688 17.0976 52.25 17.0976H51.3333V14.533C51.3269 10.6633 48.7812 7.19159 44.9167 5.78243V4.27442C44.9167 1.91377 42.8646 1.44627e-05 40.3333 1.44627e-05C37.8021 1.44627e-05 35.75 1.91377 35.75 4.27442V5.78243C31.8854 7.19159 29.3398 10.6633 29.3333 14.533V17.0976H28.4167C26.8979 17.0976 25.6667 18.2458 25.6667 19.6623C25.6667 21.0787 26.8979 22.2269 28.4167 22.2269H29.4993C30.1107 25.5679 32.4492 28.4128 35.75 29.8311V29.9208H19.8449L16.5 22.9006V17.9525C16.5 17.4804 16.0896 17.0976 15.5833 17.0976H12.8333V1.44627e-05H9.54617C8.47264 -0.0027639 7.44253 0.394863 6.68525 1.10452C6.27126 1.49296 5.70785 1.71084 5.1205 1.70978H0V11.9683H5.1205C6.19403 11.9711 7.22414 11.5735 7.98142 10.8638C8.39552 10.4754 8.95881 10.2575 9.54617 10.2586H11V17.0976H10.0833C9.5771 17.0976 9.16667 17.4804 9.16667 17.9525V23.0818C9.16667 23.1907 9.18867 23.2986 9.23175 23.3998L13.8096 34.073C14.5007 35.6997 16.1895 36.7659 18.0657 36.7599H25.6667V50.438C25.6667 50.9101 26.0771 51.2929 26.5833 51.2929H54.0833C54.5896 51.2929 55 50.9101 55 50.438V30.7757C55 30.3036 54.5896 29.9208 54.0833 29.9208ZM51.3333 18.8074H52.25C52.7562 18.8074 53.1667 19.1902 53.1667 19.6623C53.1667 20.1344 52.7562 20.5172 52.25 20.5172H51.3333V18.8074ZM29.3333 20.5172H28.4167C27.9104 20.5172 27.5 20.1344 27.5 19.6623C27.5 19.1902 27.9104 18.8074 28.4167 18.8074H29.3333V20.5172ZM37.5833 4.27442C37.5833 2.85799 38.8145 1.70978 40.3333 1.70978C41.8521 1.70978 43.0833 2.85799 43.0833 4.27442V5.1293H37.5833V4.27442ZM39.4167 6.83906H41.25C45.4496 6.84387 48.977 9.78637 49.4487 13.6781H48.5833C47.0645 13.6781 45.8333 12.5299 45.8333 11.1135C45.8333 10.6414 45.4229 10.2586 44.9167 10.2586H43.0833C42.5771 10.2586 42.1667 10.6414 42.1667 11.1135C42.1667 12.5299 40.9355 13.6781 39.4167 13.6781H31.218C31.6896 9.78637 35.2171 6.84387 39.4167 6.83906ZM31.1667 20.5172V15.3879H39.4167C41.5939 15.3853 43.4698 13.9571 43.9083 11.9683H44.0917C44.5302 13.9571 46.4061 15.3853 48.5833 15.3879H49.5V20.5172C49.5 25.2386 45.396 29.066 40.3333 29.066C35.2707 29.066 31.1667 25.2386 31.1667 20.5172ZM43.0833 31.6306C43.0833 33.047 41.8521 34.1953 40.3333 34.1953C38.8145 34.1953 37.5833 33.047 37.5833 31.6306H43.0833ZM35.75 31.6306C35.75 33.9913 37.8021 35.905 40.3333 35.905C42.8646 35.905 44.9167 33.9913 44.9167 31.6306H47.0387L42.5388 39.3245H38.1278L33.6279 31.6306H35.75ZM42.1667 41.0343V46.1636H38.5V41.0343H42.1667ZM9.54617 8.54882C8.47264 8.54605 7.44253 8.94367 6.68525 9.65333C6.27115 10.0418 5.70785 10.2597 5.1205 10.2586H1.83333V3.41954H5.1205C6.19403 3.42232 7.22414 3.02469 7.98142 2.31503C8.39552 1.9266 8.95881 1.70871 9.54617 1.70978H11V8.54882H9.54617ZM11 18.8074H14.6667V22.2269H11V18.8074ZM22 35.0501H18.0657C16.94 35.0538 15.927 34.414 15.5128 33.4378L11.4373 23.9367H14.9875L18.4122 31.1228C18.5593 31.4316 18.8877 31.6306 19.25 31.6306H22V35.0501ZM53.1667 49.5831H27.5V35.905C27.5 35.4329 27.0896 35.0501 26.5833 35.0501H23.8333V31.6306H31.5388L36.6667 40.3974V47.0185C36.6667 47.4906 37.0771 47.8733 37.5833 47.8733H43.0833C43.5896 47.8733 44 47.4906 44 47.0185V40.3974L49.1278 31.6306H53.1667V49.5831Z" fill="#123535"/>
</svg>
