<svg width="27" height="27" viewBox="0 0 27 27" xmlns="http://www.w3.org/2000/svg">
<path d="M21.1048 1.5721C20.1999 2.27406 19.9533 2.63587 16.7439 5.81831L14.8199 5.50438L15.7028 4.61976C16.3212 4.00016 16.3214 2.99769 15.7028 2.37809C15.0846 1.75869 14.0835 1.75848 13.4653 2.37809L10.9715 4.87673L2.25018 3.45403C1.68658 3.36239 1.11 3.54918 0.706664 3.95331C-0.0689028 4.73039 0.03636 6.01604 0.921104 6.65752L9.6122 12.9638L7.98505 14.5943C7.42742 15.153 6.84055 15.9214 6.2374 16.881L2.18426 15.6868C1.58605 15.5107 0.940056 15.6756 0.498199 16.1175C-0.254091 16.8713 -0.140383 18.1231 0.733444 18.7295L4.05613 21.0341C3.4777 22.3131 3.12606 23.238 3.10979 23.2807C3.03604 23.4752 3.08322 23.695 3.22988 23.8419C3.37738 23.9897 3.59697 24.0357 3.78998 23.9623C3.83262 23.9462 4.75568 23.5936 6.03223 23.0141L8.33256 26.3435C8.9388 27.2204 10.1882 27.3315 10.9396 26.5785C11.3804 26.1362 11.545 25.489 11.3691 24.8896L10.1774 20.8287C11.1357 20.224 11.9022 19.636 12.4596 19.0777L14.087 17.4471L20.3807 26.1552C21.022 27.0431 22.3051 27.1463 23.0799 26.3701C23.483 25.9662 23.6694 25.388 23.5782 24.8231L22.1583 16.0853L24.6518 13.5869C25.2702 12.9673 25.2702 11.9642 24.6518 11.3448C24.0336 10.7252 23.0331 10.7252 22.4147 11.3448L21.5316 12.2294L21.2185 10.3017C24.398 7.0827 24.7534 6.84142 25.4544 5.93472C25.4552 5.93369 25.4562 5.93245 25.457 5.93121C27.0836 3.81915 27.4642 1.68604 26.4036 0.622885C25.3427 -0.43944 23.2136 -0.0584312 21.1048 1.5721ZM14.211 3.12545C14.417 2.91885 14.7509 2.91885 14.9571 3.12545C15.1633 3.33205 15.1631 3.6658 14.9571 3.8724L13.537 5.29509L12.2543 5.08581L14.211 3.12545ZM1.5395 5.80139C1.1786 5.53988 1.13719 5.01625 1.45257 4.70046C1.61675 4.53576 1.85199 4.4596 2.08106 4.49696L15.825 6.73905L10.3676 12.2069L1.5395 5.80139ZM1.2439 16.8651C1.4124 16.6965 1.65877 16.6333 1.8868 16.7006L5.67771 17.8176C5.29003 18.4979 4.89885 19.2494 4.5087 20.0628L1.33392 17.8607C1.00082 17.6296 0.957153 17.1522 1.2439 16.8651ZM10.1935 25.8318C9.90924 26.1166 9.43216 26.0782 9.19959 25.7418L7.00184 22.5606C7.81428 22.1693 8.56451 21.7771 9.24264 21.3895L10.3573 25.1876C10.4244 25.4163 10.3616 25.6632 10.1935 25.8318ZM23.1606 12.092C23.3666 11.8856 23.6999 11.8853 23.9061 12.092C24.1123 12.2986 24.1121 12.6329 23.9061 12.8395L21.9494 14.7999L21.7407 13.5146L23.1606 12.092ZM22.5371 24.9926C22.5744 25.2227 22.4984 25.4584 22.3342 25.6229C22.0204 25.9373 21.4974 25.8989 21.2352 25.5356L14.8422 16.6905L20.2996 11.2224L22.5371 24.9926ZM11.714 18.3303C11.1337 18.9119 10.2844 19.5398 9.1897 20.1967C7.7667 21.0506 6.0827 21.8593 4.5637 22.5057C5.22638 20.9425 6.04871 19.2279 6.91924 17.7858C7.55596 16.7303 8.1655 15.9078 8.73095 15.3415C21.6126 2.4656 20.8494 3.12978 21.6311 2.50337C22.4984 2.44785 23.2618 2.70584 23.7932 3.23835C24.3247 3.77085 24.5824 4.53597 24.527 5.40469C23.9003 6.18982 24.5554 5.43255 11.714 18.3303ZM25.4294 4.01626C25.2609 3.43381 24.9616 2.91451 24.5391 2.49119C24.1166 2.06808 23.5984 1.76798 23.0173 1.59914C23.7805 1.21132 25.0657 0.777064 25.6579 1.37004C26.1255 1.83877 26.0093 2.87055 25.4294 4.01626Z"/>
</svg>
