<svg width="20" height="20" viewBox="0 0 20 20" fill="none" xmlns="http://www.w3.org/2000/svg">
<circle cx="10" cy="10" r="9" fill="white" stroke="#BDBDBD" stroke-width="2"/>
<path d="M8.99512 7.47363H10.9912V15H8.99512V7.47363ZM9.99316 6.65332C9.69694 6.65332 9.44401 6.55306 9.23438 6.35254C9.02474 6.15202 8.91992 5.90365 8.91992 5.60742C8.91992 5.3112 9.02474 5.06283 9.23438 4.8623C9.44401 4.66634 9.69694 4.56836 9.99316 4.56836C10.2939 4.56836 10.5492 4.66634 10.7588 4.8623C10.9684 5.06283 11.0732 5.3112 11.0732 5.60742C11.0732 5.90365 10.9684 6.15202 10.7588 6.35254C10.5492 6.55306 10.2939 6.65332 9.99316 6.65332Z" fill="#BDBDBD"/>
</svg>
