<svg width="32" height="32" viewBox="0 0 32 32" fill="none" xmlns="http://www.w3.org/2000/svg">
<g clip-path="url(#clip0_49_507)">
<path d="M29.9185 19.9945L29.1275 19.3615C27.4575 18.026 26.5 16.0335 26.5 13.8955V11.2345L28.709 9.394C29.2115 8.9745 29.5 8.3585 29.5 7.704C29.5 7.117 29.2715 6.565 28.8535 6.1465C28.4365 5.7295 27.8825 5.5 27.293 5.5H27.207C26.772 5.5 26.356 5.625 26 5.8585C25.7185 5.674 25.399 5.56 25.0625 5.5195C23.673 3.629 21.4765 2.5 19.1235 2.5C18.2135 2.5 17.3055 2.679 16.456 3.008C16.22 1.5875 14.9865 0.5 13.5 0.5H11.1725C9.7295 0.5 8.329 0.78 7.0015 1.3265C6.9525 1.266 6.9095 1.2025 6.8535 1.1465C6.4365 0.7295 5.8825 0.5 5.293 0.5H5.207C4.772 0.5 4.356 0.625 4 0.8585C3.644 0.625 3.228 0.5 2.793 0.5H2.707C2.1175 0.5 1.5635 0.7295 1.1435 1.149C0.7285 1.5645 0.5 2.117 0.5 2.704C0.5 3.359 0.7885 3.9745 1.291 4.3935L2.8005 5.651C2.605 6.28 2.5 6.9305 2.5 7.5925C2.5 9.5945 3.3965 11.4595 4.96 12.709L7.5 14.7405V16.682C6.6215 17.043 6 17.9055 6 18.9125C6 18.9415 6.0035 18.971 6.004 19H6V31.5H25.5H26.238L25.9645 30.8145C25.9555 30.793 25.1885 28.8495 25.0305 27.094C25.489 27.3505 26.0105 27.5 26.5615 27.5H27.285C29.609 27.5 31.5 25.6095 31.5 23.2855C31.5 21.9985 30.9235 20.7985 29.9185 19.9945ZM26 7.207L26.3535 6.854C26.5815 6.6255 26.885 6.5 27.207 6.5H27.293C27.6155 6.5 27.9185 6.6255 28.1485 6.8555C28.375 7.0825 28.5 7.384 28.5 7.704C28.5 8.061 28.343 8.397 28.0685 8.6255L26 10.349L23.9315 8.6255C23.657 8.397 23.5 8.061 23.5 7.704C23.5 7.384 23.625 7.0825 23.8535 6.854C24.0815 6.6255 24.385 6.5 24.707 6.5H24.793C25.1155 6.5 25.4185 6.6255 25.6465 6.854L26 7.207ZM1.5 2.704C1.5 2.384 1.625 2.0825 1.8535 1.854C2.0815 1.6255 2.385 1.5 2.707 1.5H2.793C3.115 1.5 3.4185 1.6255 3.6465 1.854L4 2.207L4.3535 1.854C4.5815 1.6255 4.885 1.5 5.207 1.5H5.293C5.6155 1.5 5.9185 1.6255 6.1485 1.8555C6.375 2.0825 6.5 2.384 6.5 2.704C6.5 3.061 6.343 3.397 6.0685 3.6255L4 5.349L1.9315 3.6255C1.657 3.397 1.5 3.061 1.5 2.704ZM5.5845 11.928C4.26 10.869 3.5 9.289 3.5 7.5925C3.5 7.1735 3.552 6.76 3.645 6.355L4 6.651L6.709 4.3935C7.2115 3.9745 7.5 3.3585 7.5 2.704C7.5 2.5405 7.478 2.381 7.4435 2.2245C8.6315 1.745 9.8835 1.5 11.1725 1.5H13.5C14.603 1.5 15.5 2.397 15.5 3.5C15.5 4.6025 14.6025 5.5 13.5 5.5H10.5C9.9485 5.5 9.5 5.0515 9.5 4.5C9.5 3.9485 9.9485 3.5 10.5 3.5H11V2.5H10.5C9.397 2.5 8.5 3.397 8.5 4.5C8.5 5.0435 8.7195 5.536 9.0725 5.897C8.422 6.5075 7.943 7.274 7.6865 8.132C7.49 8.046 7.2765 8 7.0605 8C6.2 8 5.5 8.7 5.5 9.5605C5.5 10.8405 6.3095 11.963 7.5 12.378V13.46L5.5845 11.928ZM15.9765 9.5H18.9235C19.896 9.7635 20.626 10.602 20.744 11.6055L21.255 15.9515C21.3895 17.094 21.8285 18.1835 22.5075 19.1045C21.85 19.2845 21.2695 19.693 20.8815 20.2755C20.8575 20.3115 20.838 20.3505 20.8155 20.3875L19.658 19.9245C19.8735 19.601 20 19.2235 20 18.825V17.0525L17.936 16.823C16.5055 16.6645 15.3865 15.507 15.2765 14.0715L15.0245 10.797L16 10.309V10C16 9.8325 15.984 9.6665 15.9765 9.5ZM20 27.5V25.2675L20.8995 24.668C21.0645 24.558 21.2565 24.5 21.5 24.5C21.776 24.5 22 24.7245 22 25V25.5H23C23.5515 25.5 24 25.9485 24 26.5C24 27.0515 23.5515 27.5 23 27.5H20ZM14 23V24.5H11.915L10.7835 18.468C10.747 18.274 10.681 18.093 10.602 17.9195C12.5945 18.747 14 20.712 14 23ZM11.5 17.2395V15.877L12.0985 15.706C13.0075 15.446 13.7625 14.8715 14.2775 14.128L14.279 14.148C14.426 16.062 15.9175 17.605 17.8255 17.8165L19 17.9475V18.825C19 19.1225 18.8685 19.4025 18.6405 19.5935L17.346 20.6715C16.4905 21.3845 16 22.4325 16 23.546C16 23.868 16.0465 24.1885 16.1285 24.5H15V23C15 20.498 13.577 18.3255 11.5 17.2395ZM17.1725 24.5C17.0595 24.1955 17 23.871 17 23.546C17 22.73 17.3595 21.962 17.9865 21.4395L18.884 20.692L20.457 21.321C20.448 21.3675 20.4355 21.4135 20.429 21.46L20.0625 24.0235L19.3485 24.5H17.1725ZM24.0095 24.7835C23.712 24.6075 23.37 24.5 23 24.5H22.914C22.706 23.918 22.142 23.5 21.454 23.5C21.3495 23.5 21.2465 23.509 21.1445 23.525L21.4195 21.602C21.4585 21.3275 21.56 21.061 21.714 20.831C22.0605 20.3105 22.6405 20 23.266 20H23.4395C23.9905 20 24.5075 20.2145 24.897 20.604L24.99 20.6965C25.347 21.054 25.542 21.551 25.5225 22.098C25.496 22.88 25.1785 23.614 24.629 24.1645L24.0095 24.7835ZM14.995 9.6935L14 10.191V11.86C14 13.1925 13.105 14.3785 11.824 14.745L10.5 15.123V16.8185C9.8695 16.6135 9.198 16.5 8.5 16.5V11.609L8.003 11.485C7.118 11.264 6.5 10.4725 6.5 9.5605C6.5 9.2515 6.7515 9 7.0605 9C7.208 9 7.3525 9.06 7.457 9.164L8.307 10.014L8.5515 8.7905C8.739 7.8515 9.248 7.022 9.9875 6.425C10.1525 6.469 10.322 6.5 10.5 6.5H13.5C13.782 6.5 14.054 6.458 14.3125 6.385C14.73 7.4455 14.9605 8.5565 14.995 9.6935ZM8.4125 17.5C9.092 17.5 9.6755 17.9845 9.801 18.652L10.9475 24.767L9.7225 25.5835L10.277 26.4155L11.6515 25.5H19V27.5H10.0975C9.125 27.5 8.2965 26.805 8.1275 25.8475L7.0945 19.9915C7.0315 19.636 7 19.273 7 18.9125C7 18.134 7.634 17.5 8.4125 17.5ZM7 25.2105L7.143 26.0215C7.3965 27.458 8.639 28.5 10.0975 28.5H11.278C11.106 28.7955 11 29.134 11 29.5C11 29.866 11.106 30.2045 11.278 30.5H7V25.2105ZM13 30.5C12.4485 30.5 12 30.0515 12 29.5C12 28.9485 12.4485 28.5 13 28.5H21.4095L21.285 29.2465C21.164 29.973 20.542 30.5 19.8055 30.5H13ZM21.7985 30.5C22.033 30.1875 22.2035 29.821 22.2715 29.411L22.4235 28.5H23C23.4345 28.5 23.834 28.3575 24.162 28.1215C24.3295 29.051 24.5925 29.925 24.787 30.5H21.7985ZM27.285 26.5H26.5615C25.8045 26.5 25.1175 26.106 24.7335 25.4735L25.336 24.8715C25.7295 24.478 26.0295 24.012 26.2315 23.5H27C27.276 23.5 27.5 23.7245 27.5 24C27.5 24.2755 27.276 24.5 27 24.5H26.5V25.5H27C27.827 25.5 28.5 24.827 28.5 24C28.5 23.173 27.827 22.5 27 22.5H26.49C26.507 22.367 26.518 22.2325 26.5225 22.096C26.5505 21.31 26.2495 20.5425 25.6965 19.989L25.6035 19.8965C25.0955 19.388 24.4395 19.081 23.732 19.0145C22.9155 18.143 22.3885 17.023 22.2485 15.835L21.7375 11.489C21.619 10.485 21.06 9.604 20.257 9.043C20.7065 8.676 21 8.1245 21 7.5H20C20 8.0515 19.5515 8.5 19 8.5H15.8845C15.764 7.6315 15.5505 6.7795 15.2215 5.9575L15.22 5.954C15.8355 5.521 16.283 4.8645 16.439 4.1015C17.2775 3.7125 18.1995 3.5 19.1235 3.5C20.9635 3.5 22.6985 4.2935 23.902 5.655C23.622 5.765 23.3635 5.929 23.1435 6.149C22.7285 6.5645 22.5 7.117 22.5 7.704C22.5 8.359 22.7885 8.9745 23.291 9.3935L25.5 11.2345V13.8955C25.5 16.3395 26.594 18.616 28.5025 20.1425L29.2935 20.7755C30.06 21.3885 30.5 22.3035 30.5 23.2855C30.5 25.058 29.0575 26.5 27.285 26.5Z" fill="#185C5C"/>
<path d="M29.9185 19.9945L29.1275 19.3615C27.4575 18.026 26.5 16.0335 26.5 13.8955V11.2345L28.709 9.394C29.2115 8.9745 29.5 8.3585 29.5 7.704C29.5 7.117 29.2715 6.565 28.8535 6.1465C28.4365 5.7295 27.8825 5.5 27.293 5.5H27.207C26.772 5.5 26.356 5.625 26 5.8585C25.7185 5.674 25.399 5.56 25.0625 5.5195C23.673 3.629 21.4765 2.5 19.1235 2.5C18.2135 2.5 17.3055 2.679 16.456 3.008C16.22 1.5875 14.9865 0.5 13.5 0.5H11.1725C9.7295 0.5 8.329 0.78 7.0015 1.3265C6.9525 1.266 6.9095 1.2025 6.8535 1.1465C6.4365 0.7295 5.8825 0.5 5.293 0.5H5.207C4.772 0.5 4.356 0.625 4 0.8585C3.644 0.625 3.228 0.5 2.793 0.5H2.707C2.1175 0.5 1.5635 0.7295 1.1435 1.149C0.7285 1.5645 0.5 2.117 0.5 2.704C0.5 3.359 0.7885 3.9745 1.291 4.3935L2.8005 5.651C2.605 6.28 2.5 6.9305 2.5 7.5925C2.5 9.5945 3.3965 11.4595 4.96 12.709L7.5 14.7405V16.682C6.6215 17.043 6 17.9055 6 18.9125C6 18.9415 6.0035 18.971 6.004 19H6V31.5H25.5H26.238L25.9645 30.8145C25.9555 30.793 25.1885 28.8495 25.0305 27.094C25.489 27.3505 26.0105 27.5 26.5615 27.5H27.285C29.609 27.5 31.5 25.6095 31.5 23.2855C31.5 21.9985 30.9235 20.7985 29.9185 19.9945ZM26 7.207L26.3535 6.854C26.5815 6.6255 26.885 6.5 27.207 6.5H27.293C27.6155 6.5 27.9185 6.6255 28.1485 6.8555C28.375 7.0825 28.5 7.384 28.5 7.704C28.5 8.061 28.343 8.397 28.0685 8.6255L26 10.349L23.9315 8.6255C23.657 8.397 23.5 8.061 23.5 7.704C23.5 7.384 23.625 7.0825 23.8535 6.854C24.0815 6.6255 24.385 6.5 24.707 6.5H24.793C25.1155 6.5 25.4185 6.6255 25.6465 6.854L26 7.207ZM1.5 2.704C1.5 2.384 1.625 2.0825 1.8535 1.854C2.0815 1.6255 2.385 1.5 2.707 1.5H2.793C3.115 1.5 3.4185 1.6255 3.6465 1.854L4 2.207L4.3535 1.854C4.5815 1.6255 4.885 1.5 5.207 1.5H5.293C5.6155 1.5 5.9185 1.6255 6.1485 1.8555C6.375 2.0825 6.5 2.384 6.5 2.704C6.5 3.061 6.343 3.397 6.0685 3.6255L4 5.349L1.9315 3.6255C1.657 3.397 1.5 3.061 1.5 2.704ZM5.5845 11.928C4.26 10.869 3.5 9.289 3.5 7.5925C3.5 7.1735 3.552 6.76 3.645 6.355L4 6.651L6.709 4.3935C7.2115 3.9745 7.5 3.3585 7.5 2.704C7.5 2.5405 7.478 2.381 7.4435 2.2245C8.6315 1.745 9.8835 1.5 11.1725 1.5H13.5C14.603 1.5 15.5 2.397 15.5 3.5C15.5 4.6025 14.6025 5.5 13.5 5.5H10.5C9.9485 5.5 9.5 5.0515 9.5 4.5C9.5 3.9485 9.9485 3.5 10.5 3.5H11V2.5H10.5C9.397 2.5 8.5 3.397 8.5 4.5C8.5 5.0435 8.7195 5.536 9.0725 5.897C8.422 6.5075 7.943 7.274 7.6865 8.132C7.49 8.046 7.2765 8 7.0605 8C6.2 8 5.5 8.7 5.5 9.5605C5.5 10.8405 6.3095 11.963 7.5 12.378V13.46L5.5845 11.928ZM15.9765 9.5H18.9235C19.896 9.7635 20.626 10.602 20.744 11.6055L21.255 15.9515C21.3895 17.094 21.8285 18.1835 22.5075 19.1045C21.85 19.2845 21.2695 19.693 20.8815 20.2755C20.8575 20.3115 20.838 20.3505 20.8155 20.3875L19.658 19.9245C19.8735 19.601 20 19.2235 20 18.825V17.0525L17.936 16.823C16.5055 16.6645 15.3865 15.507 15.2765 14.0715L15.0245 10.797L16 10.309V10C16 9.8325 15.984 9.6665 15.9765 9.5ZM20 27.5V25.2675L20.8995 24.668C21.0645 24.558 21.2565 24.5 21.5 24.5C21.776 24.5 22 24.7245 22 25V25.5H23C23.5515 25.5 24 25.9485 24 26.5C24 27.0515 23.5515 27.5 23 27.5H20ZM14 23V24.5H11.915L10.7835 18.468C10.747 18.274 10.681 18.093 10.602 17.9195C12.5945 18.747 14 20.712 14 23ZM11.5 17.2395V15.877L12.0985 15.706C13.0075 15.446 13.7625 14.8715 14.2775 14.128L14.279 14.148C14.426 16.062 15.9175 17.605 17.8255 17.8165L19 17.9475V18.825C19 19.1225 18.8685 19.4025 18.6405 19.5935L17.346 20.6715C16.4905 21.3845 16 22.4325 16 23.546C16 23.868 16.0465 24.1885 16.1285 24.5H15V23C15 20.498 13.577 18.3255 11.5 17.2395ZM17.1725 24.5C17.0595 24.1955 17 23.871 17 23.546C17 22.73 17.3595 21.962 17.9865 21.4395L18.884 20.692L20.457 21.321C20.448 21.3675 20.4355 21.4135 20.429 21.46L20.0625 24.0235L19.3485 24.5H17.1725ZM24.0095 24.7835C23.712 24.6075 23.37 24.5 23 24.5H22.914C22.706 23.918 22.142 23.5 21.454 23.5C21.3495 23.5 21.2465 23.509 21.1445 23.525L21.4195 21.602C21.4585 21.3275 21.56 21.061 21.714 20.831C22.0605 20.3105 22.6405 20 23.266 20H23.4395C23.9905 20 24.5075 20.2145 24.897 20.604L24.99 20.6965C25.347 21.054 25.542 21.551 25.5225 22.098C25.496 22.88 25.1785 23.614 24.629 24.1645L24.0095 24.7835ZM14.995 9.6935L14 10.191V11.86C14 13.1925 13.105 14.3785 11.824 14.745L10.5 15.123V16.8185C9.8695 16.6135 9.198 16.5 8.5 16.5V11.609L8.003 11.485C7.118 11.264 6.5 10.4725 6.5 9.5605C6.5 9.2515 6.7515 9 7.0605 9C7.208 9 7.3525 9.06 7.457 9.164L8.307 10.014L8.5515 8.7905C8.739 7.8515 9.248 7.022 9.9875 6.425C10.1525 6.469 10.322 6.5 10.5 6.5H13.5C13.782 6.5 14.054 6.458 14.3125 6.385C14.73 7.4455 14.9605 8.5565 14.995 9.6935ZM8.4125 17.5C9.092 17.5 9.6755 17.9845 9.801 18.652L10.9475 24.767L9.7225 25.5835L10.277 26.4155L11.6515 25.5H19V27.5H10.0975C9.125 27.5 8.2965 26.805 8.1275 25.8475L7.0945 19.9915C7.0315 19.636 7 19.273 7 18.9125C7 18.134 7.634 17.5 8.4125 17.5ZM7 25.2105L7.143 26.0215C7.3965 27.458 8.639 28.5 10.0975 28.5H11.278C11.106 28.7955 11 29.134 11 29.5C11 29.866 11.106 30.2045 11.278 30.5H7V25.2105ZM13 30.5C12.4485 30.5 12 30.0515 12 29.5C12 28.9485 12.4485 28.5 13 28.5H21.4095L21.285 29.2465C21.164 29.973 20.542 30.5 19.8055 30.5H13ZM21.7985 30.5C22.033 30.1875 22.2035 29.821 22.2715 29.411L22.4235 28.5H23C23.4345 28.5 23.834 28.3575 24.162 28.1215C24.3295 29.051 24.5925 29.925 24.787 30.5H21.7985ZM27.285 26.5H26.5615C25.8045 26.5 25.1175 26.106 24.7335 25.4735L25.336 24.8715C25.7295 24.478 26.0295 24.012 26.2315 23.5H27C27.276 23.5 27.5 23.7245 27.5 24C27.5 24.2755 27.276 24.5 27 24.5H26.5V25.5H27C27.827 25.5 28.5 24.827 28.5 24C28.5 23.173 27.827 22.5 27 22.5H26.49C26.507 22.367 26.518 22.2325 26.5225 22.096C26.5505 21.31 26.2495 20.5425 25.6965 19.989L25.6035 19.8965C25.0955 19.388 24.4395 19.081 23.732 19.0145C22.9155 18.143 22.3885 17.023 22.2485 15.835L21.7375 11.489C21.619 10.485 21.06 9.604 20.257 9.043C20.7065 8.676 21 8.1245 21 7.5H20C20 8.0515 19.5515 8.5 19 8.5H15.8845C15.764 7.6315 15.5505 6.7795 15.2215 5.9575L15.22 5.954C15.8355 5.521 16.283 4.8645 16.439 4.1015C17.2775 3.7125 18.1995 3.5 19.1235 3.5C20.9635 3.5 22.6985 4.2935 23.902 5.655C23.622 5.765 23.3635 5.929 23.1435 6.149C22.7285 6.5645 22.5 7.117 22.5 7.704C22.5 8.359 22.7885 8.9745 23.291 9.3935L25.5 11.2345V13.8955C25.5 16.3395 26.594 18.616 28.5025 20.1425L29.2935 20.7755C30.06 21.3885 30.5 22.3035 30.5 23.2855C30.5 25.058 29.0575 26.5 27.285 26.5Z" fill="black" fill-opacity="0.2"/>
</g>
<defs>
<clipPath id="clip0_49_507">
<rect width="32" height="32" fill="white"/>
</clipPath>
</defs>
</svg>
