<svg width="74" height="55" viewBox="0 0 74 55" fill="none" xmlns="http://www.w3.org/2000/svg">
<path fill-rule="evenodd" clip-rule="evenodd" d="M37.0406 0.101142C35.746 0.303918 33.864 0.929668 32.5639 1.58982C28.1134 3.84994 25.0552 8.2031 24.3932 13.2201C24.0765 15.6197 24.4543 19.059 25.3314 21.7622C25.5268 22.3643 25.6597 22.8845 25.6264 22.9181C25.5934 22.9516 24.6388 22.8299 23.5054 22.6478C21.3736 22.305 19.8376 21.7794 19.9651 21.4365C20.4458 20.1445 20.8224 18.6759 20.7489 18.3792C20.6995 18.1795 20.011 17.4165 19.2074 16.6708C18.0482 15.5951 17.6674 15.3233 17.3198 15.3233C16.9493 15.3233 16.4387 15.7613 13.8936 18.263L10.9028 21.2027L8.49031 22.4331C7.16349 23.11 6.01935 23.7801 5.94787 23.9224C5.87624 24.0646 5.54064 25.3181 5.20185 26.7081L4.5861 29.2353L5.0368 31.06C5.28475 32.0635 5.48749 32.9484 5.48749 33.0264C5.48749 33.1044 5.04705 33.312 4.50884 33.4877L3.53019 33.8073L2.49074 33.2766C1.2679 32.6522 0.835543 32.6175 0.354521 33.1053C0.0220944 33.4422 0 33.5628 0 35.0356V36.6065L2.49103 40.4562C4.23288 43.1481 5.09485 44.3533 5.35695 44.4638C6.00635 44.7375 6.45358 44.4842 7.62184 43.1812C8.56583 42.1285 8.92945 41.8395 9.99431 41.2964C11.5793 40.4881 11.8449 40.0391 11.3323 39.0341L11.112 38.6022H12.2277H13.3436L15.0964 40.3591C17.3177 42.5856 17.3191 42.5859 18.9154 41.0109L20.0356 39.9057L21.7259 40.3389C22.6556 40.5771 23.4361 40.7944 23.4603 40.8218C23.4847 40.8492 23.738 41.3443 24.0234 41.9222C24.3087 42.4999 24.625 43.027 24.7262 43.0935C24.8274 43.1598 25.3602 43.247 25.9098 43.2873L26.9094 43.3605L27.4048 44.8697L27.9003 46.3789L29.9425 47.7613C31.0657 48.5216 32.115 49.1437 32.2741 49.1437C32.4333 49.1437 33.2728 48.904 34.1399 48.611L35.7164 48.0785L36.778 48.611C37.3619 48.904 38.0019 49.1437 38.2003 49.1437C38.4086 49.1437 38.7853 48.9355 39.091 48.6513L39.621 48.1589L42.8039 49.2369C44.5544 49.8299 46.1035 50.3149 46.2461 50.3149C46.389 50.3149 47.0226 50.0514 47.6545 49.7293C48.7227 49.1848 48.8887 49.1437 50.0181 49.1437C51.5886 49.1437 51.7102 49.0394 52.3247 47.1671C52.796 45.7309 52.8142 45.7022 53.2844 45.6555C53.712 45.6132 53.8823 45.7262 54.8609 46.7036C55.7053 47.5468 56.265 47.9539 57.2909 48.4713C58.7449 49.2047 59.009 49.2551 59.6476 48.9202C59.8818 48.7974 60.0736 48.733 60.0736 48.7772C60.0736 48.8213 59.8137 49.3814 59.496 50.0221C58.8347 51.3553 58.7758 51.8907 59.2433 52.3172C59.7111 52.744 64.377 55 64.7918 55C64.9839 55 65.3005 54.8382 65.4954 54.6406L65.8499 54.2813V49.222V44.1627L64.5527 41.5354C63.8327 40.077 63.1301 38.84 62.9738 38.7551C62.8187 38.671 62.4345 38.6022 62.12 38.6022H61.548L61.8817 37.2724C62.0653 36.5411 62.2371 35.9237 62.2637 35.9007C62.2903 35.8776 63.3361 35.335 64.5878 34.6947L66.8637 33.5309L67.0034 34.057C67.1077 34.4495 67.6508 35.0931 69.1436 36.5926C70.8802 38.3374 71.2051 38.6022 71.6083 38.6022C71.9087 38.6022 72.1977 38.4754 72.427 38.2428L72.7815 37.8835V34.5789V31.2745L72.2742 30.2533L71.767 29.2321L72.2535 28.2438C72.5575 27.6264 72.9763 26.2811 73.37 24.6581L74 22.0605L73.5307 21.0956L73.0612 20.1306L73.4991 19.6252C73.7398 19.3471 73.9368 18.9561 73.9368 18.7561C73.9368 18.1478 72.539 15.4847 72.1175 15.2902C71.8092 15.1477 71.3263 15.2243 69.1248 15.7648L66.4998 16.4093L64.8391 18.0481L63.1784 19.6868L61.8065 19.1939C61.052 18.9226 60.2925 18.6984 60.119 18.6956C59.9454 18.6928 58.3208 19.4407 56.5088 20.3575C54.6967 21.2742 53.1973 22.0091 53.1766 21.9908C53.1559 21.9724 53.2382 21.6723 53.3594 21.3238C53.747 20.2102 54.1574 17.852 54.2504 16.2054C54.673 8.71612 50.0146 2.26916 42.8169 0.3821C41.4863 0.0333542 38.4253 -0.115543 37.0406 0.101142ZM41.5229 2.51762C46.3677 3.37411 50.2644 7.05424 51.5943 12.0291C52.0019 13.5539 52.0288 16.662 51.6512 18.5838C50.5212 24.3328 46.5339 30.9585 40.6638 36.8424L39.279 38.2302L37.9677 36.9156C34.3267 33.2655 31.23 29.1366 29.4404 25.5456C28.2978 23.253 28.1903 23.0077 27.7361 21.6572C26.3284 17.4714 26.2292 13.6062 27.45 10.507C28.9732 6.6399 32.2129 3.72812 36.1019 2.73049C38.007 2.24178 39.6073 2.17897 41.5229 2.51762ZM37.7626 7.11704C34.7627 7.77413 32.5436 9.81184 31.5368 12.8343C31.3428 13.4164 31.2685 14.0655 31.2685 15.1768C31.2685 17.5419 31.9969 19.3439 33.6162 20.9858C36.7321 24.1448 41.8237 24.1312 44.956 20.9556C47.4384 18.4388 48.0335 14.8092 46.4951 11.5701C45.2097 8.86355 42.6453 7.17078 39.6399 7.04501C38.9251 7.015 38.0803 7.0475 37.7626 7.11704ZM41.6514 9.87978C42.9544 10.4981 43.7974 11.3387 44.4436 12.6645C44.9533 13.7098 44.983 13.8482 44.983 15.1768C44.983 16.5055 44.9533 16.6439 44.4436 17.6892C43.7941 19.0218 42.958 19.8518 41.6154 20.4966C40.743 20.9156 40.5195 20.96 39.2789 20.96C38.0383 20.96 37.8148 20.9156 36.9424 20.4966C35.5998 19.8518 34.7637 19.0218 34.1142 17.6892C33.6051 16.645 33.5748 16.5043 33.5748 15.1845C33.5748 13.918 33.618 13.6936 34.0318 12.808C34.6121 11.5661 35.4382 10.6571 36.5158 10.0748C37.6533 9.46017 38.2757 9.32108 39.6037 9.38521C40.4704 9.42708 40.9321 9.5385 41.6514 9.87978ZM71.1968 18.112C71.3295 18.3634 71.2834 18.4948 70.913 18.9224C70.6698 19.2032 70.471 19.5941 70.471 19.7913C70.471 19.9886 70.7124 20.6445 71.0074 21.249L71.5439 22.3482L71.0591 24.3627C70.7312 25.7257 70.3709 26.7904 69.945 27.6553C69.5989 28.3583 69.3157 29.068 69.3157 29.2324C69.3157 29.3968 69.5756 30.0555 69.8933 30.6962C70.443 31.8043 70.471 31.9267 70.471 33.2166V34.5722L69.8288 33.9152C69.2055 33.2776 69.1697 33.1895 68.6087 30.9158C67.9918 28.4161 67.7942 28.0608 67.0214 28.0608C66.2983 28.0608 66.0421 28.4128 65.4619 30.2026L64.9113 31.9017L62.6324 33.059C61.0699 33.8524 60.3102 34.3189 60.216 34.5426C60.0138 35.0227 58.9184 39.5625 58.9184 39.9199C58.9184 40.0883 59.0779 40.3877 59.2729 40.5853C59.582 40.8989 59.7571 40.9448 60.6436 40.9448H61.6601L62.5997 42.846L63.5394 44.7471V48.3283V51.9093L62.7091 51.5396C62.2523 51.3363 61.8248 51.1174 61.7591 51.0531C61.6933 50.9887 61.8069 50.6009 62.0119 50.1912C62.3423 49.53 62.3841 49.2718 62.3841 47.8974C62.3841 46.4481 62.3613 46.3254 62.0296 45.9893C61.5512 45.5041 61.1164 45.5361 59.925 46.1445L58.9172 46.659L58.1596 46.2745C57.7254 46.0541 56.8402 45.3345 56.0858 44.5887L54.7694 43.2873H53.1774C51.8741 43.2873 51.5302 43.3337 51.2798 43.5435C51.1005 43.6937 50.7752 44.4053 50.4935 45.2638L50.0127 46.7279L49.0141 46.8068C48.2736 46.8654 47.7696 47.0124 47.0638 47.3758L46.112 47.8658L42.8037 46.7478C40.9841 46.1329 39.3514 45.6298 39.1755 45.6298C38.9996 45.6298 38.6302 45.8306 38.3545 46.076L37.8535 46.5221L36.9818 46.076C36.5024 45.8306 35.9948 45.6298 35.8535 45.6298C35.7125 45.6298 34.9003 45.8653 34.0486 46.153L32.5003 46.6761L31.1697 45.7503L29.8393 44.8246L29.2892 43.1409C28.9533 42.1122 28.6203 41.3575 28.4334 41.201C28.2076 41.0118 27.8674 40.9448 27.1345 40.9448H26.1414L25.6298 39.9148C25.33 39.3111 24.9854 38.8273 24.7977 38.746C24.3203 38.5396 19.8454 37.431 19.489 37.431C19.3083 37.431 18.7977 37.8045 18.2527 38.3349L17.3243 39.2388L15.8313 37.7493L14.3382 36.2597H11.5671C8.81725 36.2597 8.79299 36.2625 8.44135 36.6191C7.9895 37.0771 7.99355 37.5469 8.45753 38.4753C8.66143 38.8832 8.80772 39.2353 8.78244 39.2577C8.75732 39.28 8.44424 39.4433 8.08683 39.6206C7.72942 39.7979 7.10919 40.3095 6.70861 40.7574L5.98021 41.5715L4.24068 38.8791C2.04481 35.4801 2.18807 35.7487 2.72064 36.0279C3.35055 36.3582 3.59864 36.3197 5.77356 35.5541C8.41059 34.6258 8.33189 34.7978 7.56061 31.6474L6.96652 29.2205L7.44119 27.3121C7.70227 26.2625 7.93809 25.383 7.96524 25.358C7.99239 25.3328 8.95689 24.8357 10.1085 24.2534L12.2025 23.1948L14.7772 20.6326L17.352 18.0703L17.8292 18.5391L18.3063 19.0081L17.7876 20.6C17.0924 22.7336 17.1114 22.7836 18.9896 23.7617C20.4009 24.4965 20.5059 24.5259 23.6107 25.0498C25.358 25.3445 26.8042 25.6332 26.8246 25.6913C26.845 25.7494 27.3193 26.6193 27.8788 27.6244C29.0974 29.8139 30.7981 32.299 32.554 34.4558C34.2063 36.4856 38.439 40.7628 38.9151 40.884C39.1151 40.9348 39.4463 40.9339 39.6508 40.882C40.1318 40.7594 44.3177 36.525 46.0031 34.4558C48.1731 31.7917 50.7999 27.7585 51.6984 25.7112C51.8271 25.418 52.7503 24.8889 56.0134 23.2378L60.1647 21.1374L61.744 21.6709C62.6126 21.9643 63.48 22.2045 63.6717 22.2045C63.9238 22.2045 64.5222 21.7013 65.8375 20.3837L67.655 18.5628L69.0269 18.2009C70.7464 17.747 70.9986 17.7368 71.1968 18.112Z" fill="#185C5C"/>
<path fill-rule="evenodd" clip-rule="evenodd" d="M37.0406 0.101142C35.746 0.303918 33.864 0.929668 32.5639 1.58982C28.1134 3.84994 25.0552 8.2031 24.3932 13.2201C24.0765 15.6197 24.4543 19.059 25.3314 21.7622C25.5268 22.3643 25.6597 22.8845 25.6264 22.9181C25.5934 22.9516 24.6388 22.8299 23.5054 22.6478C21.3736 22.305 19.8376 21.7794 19.9651 21.4365C20.4458 20.1445 20.8224 18.6759 20.7489 18.3792C20.6995 18.1795 20.011 17.4165 19.2074 16.6708C18.0482 15.5951 17.6674 15.3233 17.3198 15.3233C16.9493 15.3233 16.4387 15.7613 13.8936 18.263L10.9028 21.2027L8.49031 22.4331C7.16349 23.11 6.01935 23.7801 5.94787 23.9224C5.87624 24.0646 5.54064 25.3181 5.20185 26.7081L4.5861 29.2353L5.0368 31.06C5.28475 32.0635 5.48749 32.9484 5.48749 33.0264C5.48749 33.1044 5.04705 33.312 4.50884 33.4877L3.53019 33.8073L2.49074 33.2766C1.2679 32.6522 0.835543 32.6175 0.354521 33.1053C0.0220944 33.4422 0 33.5628 0 35.0356V36.6065L2.49103 40.4562C4.23288 43.1481 5.09485 44.3533 5.35695 44.4638C6.00635 44.7375 6.45358 44.4842 7.62184 43.1812C8.56583 42.1285 8.92945 41.8395 9.99431 41.2964C11.5793 40.4881 11.8449 40.0391 11.3323 39.0341L11.112 38.6022H12.2277H13.3436L15.0964 40.3591C17.3177 42.5856 17.3191 42.5859 18.9154 41.0109L20.0356 39.9057L21.7259 40.3389C22.6556 40.5771 23.4361 40.7944 23.4603 40.8218C23.4847 40.8492 23.738 41.3443 24.0234 41.9222C24.3087 42.4999 24.625 43.027 24.7262 43.0935C24.8274 43.1598 25.3602 43.247 25.9098 43.2873L26.9094 43.3605L27.4048 44.8697L27.9003 46.3789L29.9425 47.7613C31.0657 48.5216 32.115 49.1437 32.2741 49.1437C32.4333 49.1437 33.2728 48.904 34.1399 48.611L35.7164 48.0785L36.778 48.611C37.3619 48.904 38.0019 49.1437 38.2003 49.1437C38.4086 49.1437 38.7853 48.9355 39.091 48.6513L39.621 48.1589L42.8039 49.2369C44.5544 49.8299 46.1035 50.3149 46.2461 50.3149C46.389 50.3149 47.0226 50.0514 47.6545 49.7293C48.7227 49.1848 48.8887 49.1437 50.0181 49.1437C51.5886 49.1437 51.7102 49.0394 52.3247 47.1671C52.796 45.7309 52.8142 45.7022 53.2844 45.6555C53.712 45.6132 53.8823 45.7262 54.8609 46.7036C55.7053 47.5468 56.265 47.9539 57.2909 48.4713C58.7449 49.2047 59.009 49.2551 59.6476 48.9202C59.8818 48.7974 60.0736 48.733 60.0736 48.7772C60.0736 48.8213 59.8137 49.3814 59.496 50.0221C58.8347 51.3553 58.7758 51.8907 59.2433 52.3172C59.7111 52.744 64.377 55 64.7918 55C64.9839 55 65.3005 54.8382 65.4954 54.6406L65.8499 54.2813V49.222V44.1627L64.5527 41.5354C63.8327 40.077 63.1301 38.84 62.9738 38.7551C62.8187 38.671 62.4345 38.6022 62.12 38.6022H61.548L61.8817 37.2724C62.0653 36.5411 62.2371 35.9237 62.2637 35.9007C62.2903 35.8776 63.3361 35.335 64.5878 34.6947L66.8637 33.5309L67.0034 34.057C67.1077 34.4495 67.6508 35.0931 69.1436 36.5926C70.8802 38.3374 71.2051 38.6022 71.6083 38.6022C71.9087 38.6022 72.1977 38.4754 72.427 38.2428L72.7815 37.8835V34.5789V31.2745L72.2742 30.2533L71.767 29.2321L72.2535 28.2438C72.5575 27.6264 72.9763 26.2811 73.37 24.6581L74 22.0605L73.5307 21.0956L73.0612 20.1306L73.4991 19.6252C73.7398 19.3471 73.9368 18.9561 73.9368 18.7561C73.9368 18.1478 72.539 15.4847 72.1175 15.2902C71.8092 15.1477 71.3263 15.2243 69.1248 15.7648L66.4998 16.4093L64.8391 18.0481L63.1784 19.6868L61.8065 19.1939C61.052 18.9226 60.2925 18.6984 60.119 18.6956C59.9454 18.6928 58.3208 19.4407 56.5088 20.3575C54.6967 21.2742 53.1973 22.0091 53.1766 21.9908C53.1559 21.9724 53.2382 21.6723 53.3594 21.3238C53.747 20.2102 54.1574 17.852 54.2504 16.2054C54.673 8.71612 50.0146 2.26916 42.8169 0.3821C41.4863 0.0333542 38.4253 -0.115543 37.0406 0.101142ZM41.5229 2.51762C46.3677 3.37411 50.2644 7.05424 51.5943 12.0291C52.0019 13.5539 52.0288 16.662 51.6512 18.5838C50.5212 24.3328 46.5339 30.9585 40.6638 36.8424L39.279 38.2302L37.9677 36.9156C34.3267 33.2655 31.23 29.1366 29.4404 25.5456C28.2978 23.253 28.1903 23.0077 27.7361 21.6572C26.3284 17.4714 26.2292 13.6062 27.45 10.507C28.9732 6.6399 32.2129 3.72812 36.1019 2.73049C38.007 2.24178 39.6073 2.17897 41.5229 2.51762ZM37.7626 7.11704C34.7627 7.77413 32.5436 9.81184 31.5368 12.8343C31.3428 13.4164 31.2685 14.0655 31.2685 15.1768C31.2685 17.5419 31.9969 19.3439 33.6162 20.9858C36.7321 24.1448 41.8237 24.1312 44.956 20.9556C47.4384 18.4388 48.0335 14.8092 46.4951 11.5701C45.2097 8.86355 42.6453 7.17078 39.6399 7.04501C38.9251 7.015 38.0803 7.0475 37.7626 7.11704ZM41.6514 9.87978C42.9544 10.4981 43.7974 11.3387 44.4436 12.6645C44.9533 13.7098 44.983 13.8482 44.983 15.1768C44.983 16.5055 44.9533 16.6439 44.4436 17.6892C43.7941 19.0218 42.958 19.8518 41.6154 20.4966C40.743 20.9156 40.5195 20.96 39.2789 20.96C38.0383 20.96 37.8148 20.9156 36.9424 20.4966C35.5998 19.8518 34.7637 19.0218 34.1142 17.6892C33.6051 16.645 33.5748 16.5043 33.5748 15.1845C33.5748 13.918 33.618 13.6936 34.0318 12.808C34.6121 11.5661 35.4382 10.6571 36.5158 10.0748C37.6533 9.46017 38.2757 9.32108 39.6037 9.38521C40.4704 9.42708 40.9321 9.5385 41.6514 9.87978ZM71.1968 18.112C71.3295 18.3634 71.2834 18.4948 70.913 18.9224C70.6698 19.2032 70.471 19.5941 70.471 19.7913C70.471 19.9886 70.7124 20.6445 71.0074 21.249L71.5439 22.3482L71.0591 24.3627C70.7312 25.7257 70.3709 26.7904 69.945 27.6553C69.5989 28.3583 69.3157 29.068 69.3157 29.2324C69.3157 29.3968 69.5756 30.0555 69.8933 30.6962C70.443 31.8043 70.471 31.9267 70.471 33.2166V34.5722L69.8288 33.9152C69.2055 33.2776 69.1697 33.1895 68.6087 30.9158C67.9918 28.4161 67.7942 28.0608 67.0214 28.0608C66.2983 28.0608 66.0421 28.4128 65.4619 30.2026L64.9113 31.9017L62.6324 33.059C61.0699 33.8524 60.3102 34.3189 60.216 34.5426C60.0138 35.0227 58.9184 39.5625 58.9184 39.9199C58.9184 40.0883 59.0779 40.3877 59.2729 40.5853C59.582 40.8989 59.7571 40.9448 60.6436 40.9448H61.6601L62.5997 42.846L63.5394 44.7471V48.3283V51.9093L62.7091 51.5396C62.2523 51.3363 61.8248 51.1174 61.7591 51.0531C61.6933 50.9887 61.8069 50.6009 62.0119 50.1912C62.3423 49.53 62.3841 49.2718 62.3841 47.8974C62.3841 46.4481 62.3613 46.3254 62.0296 45.9893C61.5512 45.5041 61.1164 45.5361 59.925 46.1445L58.9172 46.659L58.1596 46.2745C57.7254 46.0541 56.8402 45.3345 56.0858 44.5887L54.7694 43.2873H53.1774C51.8741 43.2873 51.5302 43.3337 51.2798 43.5435C51.1005 43.6937 50.7752 44.4053 50.4935 45.2638L50.0127 46.7279L49.0141 46.8068C48.2736 46.8654 47.7696 47.0124 47.0638 47.3758L46.112 47.8658L42.8037 46.7478C40.9841 46.1329 39.3514 45.6298 39.1755 45.6298C38.9996 45.6298 38.6302 45.8306 38.3545 46.076L37.8535 46.5221L36.9818 46.076C36.5024 45.8306 35.9948 45.6298 35.8535 45.6298C35.7125 45.6298 34.9003 45.8653 34.0486 46.153L32.5003 46.6761L31.1697 45.7503L29.8393 44.8246L29.2892 43.1409C28.9533 42.1122 28.6203 41.3575 28.4334 41.201C28.2076 41.0118 27.8674 40.9448 27.1345 40.9448H26.1414L25.6298 39.9148C25.33 39.3111 24.9854 38.8273 24.7977 38.746C24.3203 38.5396 19.8454 37.431 19.489 37.431C19.3083 37.431 18.7977 37.8045 18.2527 38.3349L17.3243 39.2388L15.8313 37.7493L14.3382 36.2597H11.5671C8.81725 36.2597 8.79299 36.2625 8.44135 36.6191C7.9895 37.0771 7.99355 37.5469 8.45753 38.4753C8.66143 38.8832 8.80772 39.2353 8.78244 39.2577C8.75732 39.28 8.44424 39.4433 8.08683 39.6206C7.72942 39.7979 7.10919 40.3095 6.70861 40.7574L5.98021 41.5715L4.24068 38.8791C2.04481 35.4801 2.18807 35.7487 2.72064 36.0279C3.35055 36.3582 3.59864 36.3197 5.77356 35.5541C8.41059 34.6258 8.33189 34.7978 7.56061 31.6474L6.96652 29.2205L7.44119 27.3121C7.70227 26.2625 7.93809 25.383 7.96524 25.358C7.99239 25.3328 8.95689 24.8357 10.1085 24.2534L12.2025 23.1948L14.7772 20.6326L17.352 18.0703L17.8292 18.5391L18.3063 19.0081L17.7876 20.6C17.0924 22.7336 17.1114 22.7836 18.9896 23.7617C20.4009 24.4965 20.5059 24.5259 23.6107 25.0498C25.358 25.3445 26.8042 25.6332 26.8246 25.6913C26.845 25.7494 27.3193 26.6193 27.8788 27.6244C29.0974 29.8139 30.7981 32.299 32.554 34.4558C34.2063 36.4856 38.439 40.7628 38.9151 40.884C39.1151 40.9348 39.4463 40.9339 39.6508 40.882C40.1318 40.7594 44.3177 36.525 46.0031 34.4558C48.1731 31.7917 50.7999 27.7585 51.6984 25.7112C51.8271 25.418 52.7503 24.8889 56.0134 23.2378L60.1647 21.1374L61.744 21.6709C62.6126 21.9643 63.48 22.2045 63.6717 22.2045C63.9238 22.2045 64.5222 21.7013 65.8375 20.3837L67.655 18.5628L69.0269 18.2009C70.7464 17.747 70.9986 17.7368 71.1968 18.112Z" fill="black" fill-opacity="0.2"/>
</svg>
