<svg width="27" height="11" viewBox="0 0 27 11" fill="none" xmlns="http://www.w3.org/2000/svg">
<path fill-rule="evenodd" clip-rule="evenodd" d="M13.5513 0.0382144C12.3124 0.186153 11.2097 0.427254 10.1953 0.771869C9.18282 1.11589 8.42035 1.4714 6.86578 2.32431L6.15231 2.71572L5.43884 2.77729C4.03235 2.8987 2.77691 3.25097 1.52796 3.8747C0.784527 4.24594 0.3788 4.59956 0.150965 5.07497C0.0229106 5.34211 0.0215893 5.3605 0.00652719 7.13511C-0.00827072 8.87566 -0.00568109 8.92876 0.0990141 9.03556C0.198372 9.13692 0.271938 9.14544 1.04899 9.14544H1.89131L2.06058 9.49625C2.25216 9.89327 2.63495 10.3174 3.03064 10.5711C4.37328 11.4321 6.09819 10.9546 6.83872 9.5169L7.03009 9.14544H13.0249H19.0197L19.1848 9.47916C19.6406 10.4001 20.6194 11.0038 21.6373 10.9918C22.6562 10.9797 23.5446 10.4116 23.9978 9.4824C24.1379 9.19509 24.1829 9.14544 24.3032 9.14544C24.4663 9.14544 25.8974 8.56846 26.2351 8.3666C26.3604 8.29166 26.5457 8.11483 26.6469 7.97358C26.9953 7.48728 27.0017 7.43573 26.9998 5.11352C26.9981 2.92544 26.998 2.92506 26.7609 2.79627C26.7013 2.76386 25.9545 2.63539 25.1015 2.51079L23.5504 2.28419L23.1062 2.02245C21.5182 1.08689 19.6051 0.418628 17.634 0.110836C16.9876 0.00990986 14.2029 -0.0396366 13.5513 0.0382144ZM14.3704 1.81321V2.72974L11.2127 2.72699L8.0549 2.72424L8.5834 2.44998C10.1972 1.61254 11.9546 1.11977 14.0005 0.931021C14.1022 0.92164 14.2271 0.910049 14.2779 0.905305C14.3627 0.89738 14.3704 0.972966 14.3704 1.81321ZM17.5414 1.03357C18.5745 1.19099 19.9436 1.54973 20.6329 1.84356L20.8339 1.92923L20.4442 2.32948L20.0544 2.72974H17.6616H15.2689V1.8048V0.879804L16.1277 0.914362C16.6001 0.933394 17.2362 0.987038 17.5414 1.03357ZM22.1539 2.54762C22.3639 2.65501 22.6952 2.83907 22.89 2.9566C23.2376 3.16633 23.2682 3.17388 24.5019 3.35314C25.1936 3.45363 25.8368 3.54965 25.9313 3.56653C26.0979 3.59634 26.1031 3.60524 26.1031 3.86434V4.13149H25.4139H24.7247L24.7401 4.57627L24.7554 5.02106L25.4292 5.03615L26.1031 5.05125V6.07668C26.1031 7.16983 26.0838 7.27011 25.8273 7.51445C25.7208 7.61591 24.4741 8.175 24.3544 8.175C24.3333 8.175 24.2991 8.0476 24.2784 7.89195C24.1615 7.01235 23.5962 6.19923 22.8261 5.80264C21.7608 5.25407 20.5373 5.45404 19.6938 6.3145C19.248 6.76926 18.9178 7.49633 18.9161 8.02673L18.9155 8.22891H17.0922H15.2689V5.93759V3.64627H17.841H20.4132L21.0516 2.9999C21.4028 2.64439 21.7086 2.35326 21.7311 2.35294C21.7536 2.35261 21.9438 2.44022 22.1539 2.54762ZM14.3704 5.93759V8.22891H10.779H7.18769L7.15704 8.02673C7.14018 7.91556 7.09113 7.68395 7.04806 7.51213C6.79998 6.52282 5.89467 5.69934 4.86532 5.52682C3.43785 5.28761 2.02697 6.34679 1.78682 7.83804L1.72388 8.22891H1.2782H0.832515L0.849955 6.94846L0.867343 5.66802L1.01685 5.40853C1.19454 5.10015 1.53927 4.85856 2.26786 4.53163C3.22576 4.10189 4.23662 3.81987 5.22744 3.70584C5.44545 3.68077 7.59178 3.6571 9.99712 3.65327L14.3704 3.64627V5.93759ZM11.2106 4.57627L11.2259 5.02106H12.1243H13.0228L13.0381 4.57627L13.0535 4.13149H12.1243H11.1952L11.2106 4.57627ZM5.01916 6.50648C5.12264 6.53382 5.32167 6.6335 5.46146 6.72796C6.59176 7.4917 6.47765 9.23051 5.25387 9.89209C5.0189 10.0191 4.93111 10.0349 4.46112 10.0349C3.99081 10.0349 3.90329 10.0191 3.66594 9.89139C2.57307 9.30308 2.33086 7.83831 3.18279 6.96922C3.67762 6.46443 4.28318 6.31185 5.01916 6.50648ZM22.3847 6.61474C23.1106 6.97149 23.5143 7.79302 23.3538 8.58641C23.2691 9.0051 23.1306 9.2716 22.8571 9.5424C22.5052 9.8909 22.1871 10.0298 21.6901 10.0523C21.096 10.079 20.7353 9.93867 20.3366 9.5258C19.9398 9.11492 19.7971 8.73899 19.8239 8.175C19.8877 6.8319 21.1999 6.03242 22.3847 6.61474Z" fill="#185C5C"/>
<path fill-rule="evenodd" clip-rule="evenodd" d="M13.5513 0.0382144C12.3124 0.186153 11.2097 0.427254 10.1953 0.771869C9.18282 1.11589 8.42035 1.4714 6.86578 2.32431L6.15231 2.71572L5.43884 2.77729C4.03235 2.8987 2.77691 3.25097 1.52796 3.8747C0.784527 4.24594 0.3788 4.59956 0.150965 5.07497C0.0229106 5.34211 0.0215893 5.3605 0.00652719 7.13511C-0.00827072 8.87566 -0.00568109 8.92876 0.0990141 9.03556C0.198372 9.13692 0.271938 9.14544 1.04899 9.14544H1.89131L2.06058 9.49625C2.25216 9.89327 2.63495 10.3174 3.03064 10.5711C4.37328 11.4321 6.09819 10.9546 6.83872 9.5169L7.03009 9.14544H13.0249H19.0197L19.1848 9.47916C19.6406 10.4001 20.6194 11.0038 21.6373 10.9918C22.6562 10.9797 23.5446 10.4116 23.9978 9.4824C24.1379 9.19509 24.1829 9.14544 24.3032 9.14544C24.4663 9.14544 25.8974 8.56846 26.2351 8.3666C26.3604 8.29166 26.5457 8.11483 26.6469 7.97358C26.9953 7.48728 27.0017 7.43573 26.9998 5.11352C26.9981 2.92544 26.998 2.92506 26.7609 2.79627C26.7013 2.76386 25.9545 2.63539 25.1015 2.51079L23.5504 2.28419L23.1062 2.02245C21.5182 1.08689 19.6051 0.418628 17.634 0.110836C16.9876 0.00990986 14.2029 -0.0396366 13.5513 0.0382144ZM14.3704 1.81321V2.72974L11.2127 2.72699L8.0549 2.72424L8.5834 2.44998C10.1972 1.61254 11.9546 1.11977 14.0005 0.931021C14.1022 0.92164 14.2271 0.910049 14.2779 0.905305C14.3627 0.89738 14.3704 0.972966 14.3704 1.81321ZM17.5414 1.03357C18.5745 1.19099 19.9436 1.54973 20.6329 1.84356L20.8339 1.92923L20.4442 2.32948L20.0544 2.72974H17.6616H15.2689V1.8048V0.879804L16.1277 0.914362C16.6001 0.933394 17.2362 0.987038 17.5414 1.03357ZM22.1539 2.54762C22.3639 2.65501 22.6952 2.83907 22.89 2.9566C23.2376 3.16633 23.2682 3.17388 24.5019 3.35314C25.1936 3.45363 25.8368 3.54965 25.9313 3.56653C26.0979 3.59634 26.1031 3.60524 26.1031 3.86434V4.13149H25.4139H24.7247L24.7401 4.57627L24.7554 5.02106L25.4292 5.03615L26.1031 5.05125V6.07668C26.1031 7.16983 26.0838 7.27011 25.8273 7.51445C25.7208 7.61591 24.4741 8.175 24.3544 8.175C24.3333 8.175 24.2991 8.0476 24.2784 7.89195C24.1615 7.01235 23.5962 6.19923 22.8261 5.80264C21.7608 5.25407 20.5373 5.45404 19.6938 6.3145C19.248 6.76926 18.9178 7.49633 18.9161 8.02673L18.9155 8.22891H17.0922H15.2689V5.93759V3.64627H17.841H20.4132L21.0516 2.9999C21.4028 2.64439 21.7086 2.35326 21.7311 2.35294C21.7536 2.35261 21.9438 2.44022 22.1539 2.54762ZM14.3704 5.93759V8.22891H10.779H7.18769L7.15704 8.02673C7.14018 7.91556 7.09113 7.68395 7.04806 7.51213C6.79998 6.52282 5.89467 5.69934 4.86532 5.52682C3.43785 5.28761 2.02697 6.34679 1.78682 7.83804L1.72388 8.22891H1.2782H0.832515L0.849955 6.94846L0.867343 5.66802L1.01685 5.40853C1.19454 5.10015 1.53927 4.85856 2.26786 4.53163C3.22576 4.10189 4.23662 3.81987 5.22744 3.70584C5.44545 3.68077 7.59178 3.6571 9.99712 3.65327L14.3704 3.64627V5.93759ZM11.2106 4.57627L11.2259 5.02106H12.1243H13.0228L13.0381 4.57627L13.0535 4.13149H12.1243H11.1952L11.2106 4.57627ZM5.01916 6.50648C5.12264 6.53382 5.32167 6.6335 5.46146 6.72796C6.59176 7.4917 6.47765 9.23051 5.25387 9.89209C5.0189 10.0191 4.93111 10.0349 4.46112 10.0349C3.99081 10.0349 3.90329 10.0191 3.66594 9.89139C2.57307 9.30308 2.33086 7.83831 3.18279 6.96922C3.67762 6.46443 4.28318 6.31185 5.01916 6.50648ZM22.3847 6.61474C23.1106 6.97149 23.5143 7.79302 23.3538 8.58641C23.2691 9.0051 23.1306 9.2716 22.8571 9.5424C22.5052 9.8909 22.1871 10.0298 21.6901 10.0523C21.096 10.079 20.7353 9.93867 20.3366 9.5258C19.9398 9.11492 19.7971 8.73899 19.8239 8.175C19.8877 6.8319 21.1999 6.03242 22.3847 6.61474Z" fill="black" fill-opacity="0.2"/>
</svg>
