<svg width="16" height="16" viewBox="0 0 16 16" fill="none" xmlns="http://www.w3.org/2000/svg">
<path d="M7.70449 0.909477C7.79751 0.623213 8.20249 0.623212 8.29551 0.909477L9.95087 6.00415C9.99246 6.13217 10.1118 6.21885 10.2464 6.21885H15.6032C15.9042 6.21885 16.0294 6.60401 15.7859 6.78093L11.4521 9.92961C11.3432 10.0087 11.2976 10.149 11.3392 10.277L12.9946 15.3717C13.0876 15.6579 12.7599 15.896 12.5164 15.7191L8.18263 12.5704C8.07373 12.4913 7.92627 12.4913 7.81737 12.5704L3.48358 15.7191C3.24007 15.896 2.91243 15.6579 3.00544 15.3717L4.6608 10.277C4.7024 10.149 4.65683 10.0087 4.54792 9.92962L0.214139 6.78093C-0.029372 6.60401 0.0957757 6.21885 0.396772 6.21885H5.75363C5.88824 6.21885 6.00754 6.13217 6.04913 6.00415L7.70449 0.909477Z" fill="#FC7201"/>
</svg>
