<svg width="32" height="29" viewBox="0 0 32 29" fill="none" xmlns="http://www.w3.org/2000/svg">
<path d="M27.9086 9.97287C26.3735 5.34199 22.5539 1.96802 18.0929 1.15067C18.0188 1.12094 17.9392 1.09822 17.8493 1.09263C17.7935 1.08935 17.7332 1.08997 17.6769 1.08722C17.1245 1.00637 16.5667 0.955872 15.9995 0.955872C10.6695 0.955872 5.86063 4.63193 4.08992 9.97287C1.83051 10.0018 0 12.021 0 14.5003C0 16.9785 1.83051 18.9985 4.09041 19.0271C5.86112 24.3678 10.6695 28.0441 16 28.0441C18.0751 28.0441 20.0677 27.4804 21.8355 26.4851C21.4299 26.0971 21.0371 25.6713 20.6878 25.2136C19.246 25.9404 17.6531 26.3511 15.9995 26.3511C11.1324 26.3511 6.7638 22.871 5.37501 17.8886L5.18036 17.1904L4.52102 17.2985C4.37278 17.3228 4.25074 17.3331 4.13909 17.3331C2.71023 17.3331 1.54814 16.0622 1.54814 14.4993C1.54814 12.937 2.71023 11.6652 4.13909 11.6652C4.25074 11.6652 4.37278 11.6768 4.52199 11.7001L5.18085 11.8065L5.37501 11.1092C6.31648 7.73149 8.62968 5.04868 11.5373 3.66885C10.8881 5.24135 11.7695 7.17922 13.2387 7.93578C15.0697 8.87827 18.0317 9.00038 19.2807 6.95123C19.8439 6.02764 19.3439 4.85965 18.6631 4.22769C17.7086 3.3428 16.3242 3.21713 15.1915 3.70861C14.2748 4.10655 14.674 5.74507 15.6033 5.34216C16.2768 5.05063 16.8895 5.02845 17.5356 5.41618C18.422 5.94928 17.6053 6.55772 16.9858 6.75261C15.8311 7.11576 14.1275 6.81962 13.2246 5.93313C12.0853 4.8143 13.5529 3.54434 14.461 3.1969C15.4462 2.81946 16.5283 2.73595 17.5702 2.77721C21.7827 3.43305 25.3874 6.67132 26.6246 11.1098L26.8192 11.8072L27.4783 11.7008C27.6265 11.6769 27.749 11.6659 27.8607 11.6659C29.2895 11.6659 30.4517 12.9372 30.4517 14.5005C30.4517 16.0623 29.2896 17.3343 27.8607 17.3343C27.749 17.3343 27.6265 17.323 27.4793 17.2992L26.8192 17.1916L26.6246 17.8898C26.5554 18.1373 26.4734 18.3799 26.3898 18.6203C26.6246 18.5598 26.8686 18.5253 27.1196 18.5253C27.671 18.5253 28.1888 18.6766 28.6433 18.9435C30.5514 18.5415 32 16.7046 32 14.5005C31.9995 12.021 30.169 10.0013 27.9086 9.97287Z" fill="#185C5C"/>
<path d="M27.9086 9.97287C26.3735 5.34199 22.5539 1.96802 18.0929 1.15067C18.0188 1.12094 17.9392 1.09822 17.8493 1.09263C17.7935 1.08935 17.7332 1.08997 17.6769 1.08722C17.1245 1.00637 16.5667 0.955872 15.9995 0.955872C10.6695 0.955872 5.86063 4.63193 4.08992 9.97287C1.83051 10.0018 0 12.021 0 14.5003C0 16.9785 1.83051 18.9985 4.09041 19.0271C5.86112 24.3678 10.6695 28.0441 16 28.0441C18.0751 28.0441 20.0677 27.4804 21.8355 26.4851C21.4299 26.0971 21.0371 25.6713 20.6878 25.2136C19.246 25.9404 17.6531 26.3511 15.9995 26.3511C11.1324 26.3511 6.7638 22.871 5.37501 17.8886L5.18036 17.1904L4.52102 17.2985C4.37278 17.3228 4.25074 17.3331 4.13909 17.3331C2.71023 17.3331 1.54814 16.0622 1.54814 14.4993C1.54814 12.937 2.71023 11.6652 4.13909 11.6652C4.25074 11.6652 4.37278 11.6768 4.52199 11.7001L5.18085 11.8065L5.37501 11.1092C6.31648 7.73149 8.62968 5.04868 11.5373 3.66885C10.8881 5.24135 11.7695 7.17922 13.2387 7.93578C15.0697 8.87827 18.0317 9.00038 19.2807 6.95123C19.8439 6.02764 19.3439 4.85965 18.6631 4.22769C17.7086 3.3428 16.3242 3.21713 15.1915 3.70861C14.2748 4.10655 14.674 5.74507 15.6033 5.34216C16.2768 5.05063 16.8895 5.02845 17.5356 5.41618C18.422 5.94928 17.6053 6.55772 16.9858 6.75261C15.8311 7.11576 14.1275 6.81962 13.2246 5.93313C12.0853 4.8143 13.5529 3.54434 14.461 3.1969C15.4462 2.81946 16.5283 2.73595 17.5702 2.77721C21.7827 3.43305 25.3874 6.67132 26.6246 11.1098L26.8192 11.8072L27.4783 11.7008C27.6265 11.6769 27.749 11.6659 27.8607 11.6659C29.2895 11.6659 30.4517 12.9372 30.4517 14.5005C30.4517 16.0623 29.2896 17.3343 27.8607 17.3343C27.749 17.3343 27.6265 17.323 27.4793 17.2992L26.8192 17.1916L26.6246 17.8898C26.5554 18.1373 26.4734 18.3799 26.3898 18.6203C26.6246 18.5598 26.8686 18.5253 27.1196 18.5253C27.671 18.5253 28.1888 18.6766 28.6433 18.9435C30.5514 18.5415 32 16.7046 32 14.5005C31.9995 12.021 30.169 10.0013 27.9086 9.97287Z" fill="black" fill-opacity="0.2"/>
<path d="M12.7303 13.9118C11.3993 13.9118 11.3993 16.1696 12.7303 16.1696C14.0613 16.1696 14.0618 13.9118 12.7303 13.9118Z" fill="#185C5C"/>
<path d="M12.7303 13.9118C11.3993 13.9118 11.3993 16.1696 12.7303 16.1696C14.0613 16.1696 14.0618 13.9118 12.7303 13.9118Z" fill="black" fill-opacity="0.2"/>
<path d="M19.2682 13.7708C17.9367 13.7708 17.9367 16.0291 19.2682 16.0291C20.5992 16.0285 20.5997 13.7708 19.2682 13.7708Z" fill="#185C5C"/>
<path d="M19.2682 13.7708C17.9367 13.7708 17.9367 16.0291 19.2682 16.0291C20.5992 16.0285 20.5997 13.7708 19.2682 13.7708Z" fill="black" fill-opacity="0.2"/>
<path d="M15.9994 21.8388C17.6777 21.8388 19.0443 20.3447 19.0443 18.5089C19.0443 18.0399 18.697 17.6622 18.2696 17.6622C17.8427 17.6622 17.4959 18.0404 17.4959 18.5089C17.4959 19.4114 16.8245 20.1452 15.9998 20.1452C15.1752 20.1452 14.5033 19.4114 14.5033 18.5089C14.5033 18.0399 14.1568 17.6622 13.7293 17.6622C13.3016 17.6622 12.9551 18.0404 12.9551 18.5089C12.9547 20.3447 14.3207 21.8388 15.9994 21.8388Z" fill="#185C5C"/>
<path d="M15.9994 21.8388C17.6777 21.8388 19.0443 20.3447 19.0443 18.5089C19.0443 18.0399 18.697 17.6622 18.2696 17.6622C17.8427 17.6622 17.4959 18.0404 17.4959 18.5089C17.4959 19.4114 16.8245 20.1452 15.9998 20.1452C15.1752 20.1452 14.5033 19.4114 14.5033 18.5089C14.5033 18.0399 14.1568 17.6622 13.7293 17.6622C13.3016 17.6622 12.9551 18.0404 12.9551 18.5089C12.9547 20.3447 14.3207 21.8388 15.9994 21.8388Z" fill="black" fill-opacity="0.2"/>
<path d="M24.8938 20.0636C21.7717 18.1047 17.4926 23.5939 24.8938 27.7453C32.3725 23.5496 27.92 18.1663 24.8938 20.0636ZM24.8938 25.8241C21.1967 23.4259 22.2322 21.3616 23.5326 21.3616C24.1408 21.3616 24.4407 21.8096 24.8938 22.2792C25.3458 21.8107 25.6462 21.3621 26.2549 21.3621C27.4002 21.3621 28.7422 23.3211 24.8938 25.8241Z" fill="#185C5C"/>
<path d="M24.8938 20.0636C21.7717 18.1047 17.4926 23.5939 24.8938 27.7453C32.3725 23.5496 27.92 18.1663 24.8938 20.0636ZM24.8938 25.8241C21.1967 23.4259 22.2322 21.3616 23.5326 21.3616C24.1408 21.3616 24.4407 21.8096 24.8938 22.2792C25.3458 21.8107 25.6462 21.3621 26.2549 21.3621C27.4002 21.3621 28.7422 23.3211 24.8938 25.8241Z" fill="black" fill-opacity="0.2"/>
</svg>
