<svg width="28" height="26" viewBox="0 0 28 26" xmlns="http://www.w3.org/2000/svg">
<path d="M27.9545 17.6994C27.9976 17.5839 28.0129 17.4568 27.9731 17.3284L25.6666 9.83259V2.91665C25.6666 1.309 24.3588 0 22.75 0H5.25C3.64115 0 2.33335 1.309 2.33335 2.91665V9.83265L0.0268516 17.3284C-0.0127969 17.4556 0.00235156 17.5828 0.0455 17.6994C0.0175 17.8231 0 17.9503 0 18.0833V22.7499V25.0833C0 25.4053 0.261352 25.6666 0.583352 25.6666H2.9167C3.23865 25.6666 3.5 25.4053 3.5 25.0833V23.3333H24.5V25.0833C24.5 25.4053 24.7614 25.6666 25.0834 25.6666H27.4167C27.7387 25.6666 28.0001 25.4053 28.0001 25.0833V22.7499V18.0833C28 17.9503 27.9825 17.8231 27.9545 17.6994ZM3.5 2.91665C3.5 1.9518 4.28515 1.16665 5.25 1.16665H22.75C23.7149 1.16665 24.5 1.9518 24.5 2.91665V9.3333H22.9145L22.3709 7.15865C22.1749 6.37815 21.476 5.8333 20.6721 5.8333H16.9166C15.9518 5.8333 15.1666 6.61845 15.1666 7.5833V9.3333H12.8333V7.58445C12.8333 6.61959 12.0481 5.83445 11.0833 5.83445H7.3278C6.52395 5.83445 5.82515 6.38045 5.62915 7.1598L5.0855 9.3333H3.5V2.91665ZM21.7164 10.2759C21.6044 10.4183 21.4364 10.4999 21.2555 10.4999H16.9166C16.5958 10.4999 16.3333 10.2386 16.3333 9.91659V7.5833C16.3333 7.2613 16.5958 6.99994 16.9166 6.99994H20.6733C20.9416 6.99994 21.1738 7.1808 21.2391 7.44095L21.8225 9.7743C21.8669 9.95045 21.8284 10.1324 21.7164 10.2759ZM11.6679 7.5833V9.9108C11.6679 9.91315 11.6667 9.9143 11.6667 9.91665C11.6667 9.9178 11.6667 9.919 11.6667 9.919C11.6656 10.2399 11.4042 10.5 11.0846 10.5H6.7457C6.5637 10.5 6.39685 10.4184 6.28485 10.276C6.17285 10.1325 6.13435 9.94935 6.1787 9.77435L6.76205 7.441C6.82741 7.182 7.05955 7 7.32905 7H11.0846C11.4054 6.99995 11.6679 7.2613 11.6679 7.5833ZM3.34715 10.4999H5.103C5.16485 10.6749 5.24535 10.8429 5.36315 10.9946C5.69915 11.4216 6.202 11.6666 6.7445 11.6666H11.0834C11.8429 11.6666 12.4845 11.1766 12.726 10.4999H15.274C15.5155 11.1778 16.1571 11.6666 16.9166 11.6666H21.2555C21.798 11.6666 22.2996 11.4216 22.6356 10.9946C22.7535 10.8441 22.834 10.6749 22.8958 10.4999H24.6528L26.4541 16.3543C26.3865 16.3461 26.32 16.3333 26.25 16.3333H1.75C1.68 16.3333 1.6135 16.3461 1.547 16.3543L3.34715 10.4999ZM2.33335 24.4999H1.16665V23.3333H2.3333V24.4999H2.33335ZM26.8334 24.4999H25.6667V23.3333H26.8334V24.4999V24.4999ZM26.8334 22.1666H1.16665V18.0833C1.16665 17.7613 1.42915 17.4999 1.75 17.4999H26.25C26.5709 17.4999 26.8334 17.7613 26.8334 18.0833V22.1666Z"/>
</svg>
