<svg width="32" height="30" viewBox="0 0 32 30" fill="none" xmlns="http://www.w3.org/2000/svg">
<path d="M29.3333 0.266663H2.66667C1.19467 0.268504 0.00173333 1.536 0 3.1V14.4333C0.00173333 15.9973 1.19467 17.2648 2.66667 17.2667H29.3333C30.8053 17.2648 31.9983 15.9973 32 14.4333V3.1C31.9983 1.536 30.8053 0.268504 29.3333 0.266663ZM3.73333 1.4H28.2667V3.1C28.2667 4.03889 27.5503 4.8 26.6667 4.8H5.33333C4.44967 4.8 3.73333 4.03889 3.73333 3.1V1.4ZM28.2667 16.1333H3.73333V15.5667H28.2667V16.1333ZM28.2667 14.4333H3.73333V13.8667H28.2667V14.4333ZM28.2667 12.7333H3.73333V12.1667H28.2667V12.7333ZM30.9333 14.4333C30.9333 15.3722 30.217 16.1333 29.3333 16.1333V11.6C29.3333 11.2871 29.0945 11.0333 28.8 11.0333H3.2C2.90547 11.0333 2.66667 11.2871 2.66667 11.6V16.1333C1.783 16.1333 1.06667 15.3722 1.06667 14.4333V3.1C1.06667 2.1611 1.783 1.4 2.66667 1.4V3.1C2.6684 4.664 3.86133 5.93149 5.33333 5.93333H26.6667C28.1387 5.93149 29.3316 4.664 29.3333 3.1V1.4C30.217 1.4 30.9333 2.1611 30.9333 3.1V14.4333Z" fill="#185C5C"/>
<path d="M29.3333 0.266663H2.66667C1.19467 0.268504 0.00173333 1.536 0 3.1V14.4333C0.00173333 15.9973 1.19467 17.2648 2.66667 17.2667H29.3333C30.8053 17.2648 31.9983 15.9973 32 14.4333V3.1C31.9983 1.536 30.8053 0.268504 29.3333 0.266663ZM3.73333 1.4H28.2667V3.1C28.2667 4.03889 27.5503 4.8 26.6667 4.8H5.33333C4.44967 4.8 3.73333 4.03889 3.73333 3.1V1.4ZM28.2667 16.1333H3.73333V15.5667H28.2667V16.1333ZM28.2667 14.4333H3.73333V13.8667H28.2667V14.4333ZM28.2667 12.7333H3.73333V12.1667H28.2667V12.7333ZM30.9333 14.4333C30.9333 15.3722 30.217 16.1333 29.3333 16.1333V11.6C29.3333 11.2871 29.0945 11.0333 28.8 11.0333H3.2C2.90547 11.0333 2.66667 11.2871 2.66667 11.6V16.1333C1.783 16.1333 1.06667 15.3722 1.06667 14.4333V3.1C1.06667 2.1611 1.783 1.4 2.66667 1.4V3.1C2.6684 4.664 3.86133 5.93149 5.33333 5.93333H26.6667C28.1387 5.93149 29.3316 4.664 29.3333 3.1V1.4C30.217 1.4 30.9333 2.1611 30.9333 3.1V14.4333Z" fill="black" fill-opacity="0.2"/>
<path d="M17.6002 9.33334H13.3335C13.039 9.33334 12.8002 9.58707 12.8002 9.90001C12.8002 10.213 13.039 10.4667 13.3335 10.4667H17.6002C17.8947 10.4667 18.1335 10.213 18.1335 9.90001C18.1335 9.58707 17.8947 9.33334 17.6002 9.33334Z" fill="#185C5C"/>
<path d="M17.6002 9.33334H13.3335C13.039 9.33334 12.8002 9.58707 12.8002 9.90001C12.8002 10.213 13.039 10.4667 13.3335 10.4667H17.6002C17.8947 10.4667 18.1335 10.213 18.1335 9.90001C18.1335 9.58707 17.8947 9.33334 17.6002 9.33334Z" fill="black" fill-opacity="0.2"/>
<path d="M27.2001 7.06665H26.6668C26.3722 7.06665 26.1334 7.32038 26.1334 7.63332C26.1334 7.94626 26.3722 8.19999 26.6668 8.19999H27.2001C27.4946 8.19999 27.7334 7.94626 27.7334 7.63332C27.7334 7.32038 27.4946 7.06665 27.2001 7.06665Z" fill="#185C5C"/>
<path d="M27.2001 7.06665H26.6668C26.3722 7.06665 26.1334 7.32038 26.1334 7.63332C26.1334 7.94626 26.3722 8.19999 26.6668 8.19999H27.2001C27.4946 8.19999 27.7334 7.94626 27.7334 7.63332C27.7334 7.32038 27.4946 7.06665 27.2001 7.06665Z" fill="black" fill-opacity="0.2"/>
<path d="M29.3334 7.06665H28.8001C28.5055 7.06665 28.2667 7.32038 28.2667 7.63332C28.2667 7.94626 28.5055 8.19998 28.8001 8.19998H29.3334C29.6279 8.19998 29.8667 7.94626 29.8667 7.63332C29.8667 7.32038 29.6279 7.06665 29.3334 7.06665Z" fill="#185C5C"/>
<path d="M29.3334 7.06665H28.8001C28.5055 7.06665 28.2667 7.32038 28.2667 7.63332C28.2667 7.94626 28.5055 8.19998 28.8001 8.19998H29.3334C29.6279 8.19998 29.8667 7.94626 29.8667 7.63332C29.8667 7.32038 29.6279 7.06665 29.3334 7.06665Z" fill="black" fill-opacity="0.2"/>
<path d="M17.0666 18.9667C17.0666 18.6537 16.8278 18.4 16.5333 18.4C16.2388 18.4 16 18.6537 16 18.9667C16.0096 19.4694 15.8526 19.9596 15.5562 20.3516C14.7257 21.5495 14.7257 23.1822 15.5562 24.38C16.1478 25.1972 16.1478 26.335 15.5562 27.1522C15.1428 27.7309 14.9235 28.4401 14.9333 29.1667C14.9333 29.4796 15.1721 29.7333 15.4666 29.7333C15.7612 29.7333 16 29.4796 16 29.1667C15.9902 28.6636 16.1473 28.1729 16.4437 27.7806C17.2735 26.5821 17.2735 24.9495 16.4437 23.751C15.8522 22.9343 15.8522 21.7967 16.4437 20.98C16.8572 20.4017 17.0764 19.6928 17.0666 18.9667Z" fill="#185C5C"/>
<path d="M17.0666 18.9667C17.0666 18.6537 16.8278 18.4 16.5333 18.4C16.2388 18.4 16 18.6537 16 18.9667C16.0096 19.4694 15.8526 19.9596 15.5562 20.3516C14.7257 21.5495 14.7257 23.1822 15.5562 24.38C16.1478 25.1972 16.1478 26.335 15.5562 27.1522C15.1428 27.7309 14.9235 28.4401 14.9333 29.1667C14.9333 29.4796 15.1721 29.7333 15.4666 29.7333C15.7612 29.7333 16 29.4796 16 29.1667C15.9902 28.6636 16.1473 28.1729 16.4437 27.7806C17.2735 26.5821 17.2735 24.9495 16.4437 23.751C15.8522 22.9343 15.8522 21.7967 16.4437 20.98C16.8572 20.4017 17.0764 19.6928 17.0666 18.9667Z" fill="black" fill-opacity="0.2"/>
<path d="M12.8002 18.9667C12.8002 18.6537 12.5614 18.4 12.2668 18.4C11.9723 18.4 11.7335 18.6537 11.7335 18.9667C11.7432 19.4694 11.5861 19.9596 11.2898 20.3516C10.4592 21.5495 10.4592 23.1822 11.2898 24.3801C11.8813 25.1972 11.8813 26.335 11.2898 27.1522C10.8763 27.731 10.657 28.4401 10.6668 29.1667C10.6668 29.4796 10.9056 29.7334 11.2002 29.7334C11.4947 29.7334 11.7335 29.4796 11.7335 29.1667C11.7238 28.6636 11.8808 28.173 12.1772 27.7806C13.007 26.5821 13.007 24.9496 12.1772 23.7511C11.5857 22.9343 11.5857 21.7968 12.1772 20.9801C12.5907 20.4017 12.81 19.6929 12.8002 18.9667Z" fill="#185C5C"/>
<path d="M12.8002 18.9667C12.8002 18.6537 12.5614 18.4 12.2668 18.4C11.9723 18.4 11.7335 18.6537 11.7335 18.9667C11.7432 19.4694 11.5861 19.9596 11.2898 20.3516C10.4592 21.5495 10.4592 23.1822 11.2898 24.3801C11.8813 25.1972 11.8813 26.335 11.2898 27.1522C10.8763 27.731 10.657 28.4401 10.6668 29.1667C10.6668 29.4796 10.9056 29.7334 11.2002 29.7334C11.4947 29.7334 11.7335 29.4796 11.7335 29.1667C11.7238 28.6636 11.8808 28.173 12.1772 27.7806C13.007 26.5821 13.007 24.9496 12.1772 23.7511C11.5857 22.9343 11.5857 21.7968 12.1772 20.9801C12.5907 20.4017 12.81 19.6929 12.8002 18.9667Z" fill="black" fill-opacity="0.2"/>
<path d="M21.3335 18.9667C21.3335 18.6537 21.0947 18.4 20.8001 18.4C20.5056 18.4 20.2668 18.6537 20.2668 18.9667C20.2765 19.4694 20.1194 19.9596 19.8231 20.3516C18.9925 21.5495 18.9925 23.1822 19.8231 24.38C20.4146 25.1972 20.4146 26.335 19.8231 27.1522C19.4096 27.7309 19.1903 28.4401 19.2001 29.1667C19.2001 29.4796 19.4389 29.7333 19.7335 29.7333C20.028 29.7333 20.2668 29.4796 20.2668 29.1667C20.2571 28.6636 20.4141 28.1729 20.7105 27.7806C21.5404 26.5821 21.5404 24.9495 20.7105 23.751C20.119 22.9343 20.119 21.7967 20.7105 20.98C21.124 20.4017 21.3433 19.6928 21.3335 18.9667Z" fill="#185C5C"/>
<path d="M21.3335 18.9667C21.3335 18.6537 21.0947 18.4 20.8001 18.4C20.5056 18.4 20.2668 18.6537 20.2668 18.9667C20.2765 19.4694 20.1194 19.9596 19.8231 20.3516C18.9925 21.5495 18.9925 23.1822 19.8231 24.38C20.4146 25.1972 20.4146 26.335 19.8231 27.1522C19.4096 27.7309 19.1903 28.4401 19.2001 29.1667C19.2001 29.4796 19.4389 29.7333 19.7335 29.7333C20.028 29.7333 20.2668 29.4796 20.2668 29.1667C20.2571 28.6636 20.4141 28.1729 20.7105 27.7806C21.5404 26.5821 21.5404 24.9495 20.7105 23.751C20.119 22.9343 20.119 21.7967 20.7105 20.98C21.124 20.4017 21.3433 19.6928 21.3335 18.9667Z" fill="black" fill-opacity="0.2"/>
</svg>
