<svg width="56" height="45" viewBox="0 0 56 45" fill="none" xmlns="http://www.w3.org/2000/svg">
<path fill-rule="evenodd" clip-rule="evenodd" d="M12.0348 0.0997222C10.955 0.30796 9.96389 1.10524 9.60748 2.05235C9.49309 2.35627 8.81577 5.88457 8.1023 9.89321L6.80496 17.1815H4.59781H2.39056L1.72014 17.5081C1.00951 17.8542 0.634041 18.2155 0.241258 18.9312L0 19.3707V31.0641V42.7574L0.294286 43.301C0.638314 43.9366 1.21232 44.4598 1.91177 44.7751L2.41039 45H23.6108H44.8113L45.4338 44.7021C46.1391 44.3645 46.6537 43.8471 46.9909 43.1366C47.2112 42.6729 47.2231 42.4599 47.2538 38.4746L47.2859 34.2986L47.8564 34.4009C48.8261 34.5749 50.019 34.4554 50.5944 34.1268C51.2425 33.7565 51.8286 33.0811 52.037 32.464C52.1285 32.1933 53.0714 27.1182 54.1325 21.1861C55.682 12.5232 56.0486 10.2888 55.9951 9.83277C55.8482 8.58345 54.8852 7.47156 53.676 7.15568C53.2812 7.05252 48.3056 6.18059 26.7334 2.43455C14.9578 0.389547 12.6136 -0.0127263 12.5487 0.000301948C12.5165 0.00670927 12.2853 0.0514537 12.0348 0.0997222ZM33.0425 5.32724C46.593 7.68311 53.3996 8.90915 53.5847 9.02737C53.9527 9.2623 54.1788 9.71124 54.1796 10.2082C54.1799 10.4314 54.0481 11.3697 53.8866 12.2933C53.6105 13.8726 53.5794 13.9695 53.3655 13.9213C53.2404 13.893 49.391 13.2202 44.8113 12.4262C40.2316 11.6323 34.9808 10.7211 33.1428 10.4016C14.9834 7.24474 10.6239 6.4812 10.5944 6.45248C10.5058 6.36608 11.2462 2.70366 11.3981 2.47791C11.618 2.15081 12.1962 1.80492 12.524 1.80439C12.6631 1.80418 21.8964 3.38945 33.0425 5.32724ZM31.7185 11.9484C43.2582 13.952 52.8275 15.6248 52.9835 15.6657L53.2672 15.7399L51.8665 23.5889C51.0963 27.9058 50.4119 31.6182 50.3458 31.8387C50.131 32.5552 49.4599 32.7962 48.1256 32.636L47.2765 32.5341V26.212C47.2765 19.2013 47.2798 19.2379 46.5675 18.3286C46.3111 18.0014 45.9632 17.733 45.5084 17.5114L44.8311 17.1815H26.7706C8.86562 17.1815 8.71026 17.1797 8.71026 16.9708C8.71026 16.7894 10.0205 9.33983 10.2009 8.49599C10.2531 8.25155 10.311 8.20413 10.5014 8.2493C10.6311 8.28017 20.1788 9.94468 31.7185 11.9484ZM44.5773 19.0374C44.7761 19.1184 45.0458 19.3171 45.1764 19.479L45.4139 19.7733V31.0353C45.4139 41.4589 45.4 42.3202 45.227 42.6058C44.8161 43.2836 46.3804 43.238 23.5614 43.238C5.20293 43.238 2.74554 43.2191 2.46155 43.076C1.77185 42.7284 1.80779 43.3899 1.80779 31.0397C1.80779 18.5993 1.75268 19.5423 2.50538 19.095C2.84009 18.896 3.36446 18.8909 23.5322 18.8906C40.8624 18.8903 44.2743 18.9141 44.5773 19.0374ZM6.41054 28.3213C5.8361 28.4995 5.15604 29.2188 5.00353 29.8092C4.84455 30.4244 4.83644 33.0047 4.99169 33.5498C5.14125 34.0748 5.6918 34.6783 6.24411 34.9229C6.64149 35.0989 7.04447 35.1176 10.4735 35.1197C14.2318 35.122 14.2675 35.12 14.7464 34.8735C15.012 34.737 15.3772 34.4207 15.558 34.1707L15.8866 33.7163L15.9224 31.8829C15.9439 30.7753 15.9113 29.8963 15.8399 29.6625C15.6899 29.1709 14.8932 28.4469 14.3369 28.2962C13.7584 28.1397 6.92603 28.1612 6.41054 28.3213ZM14.0569 30.1243C14.1457 30.2108 14.1884 30.7027 14.1884 31.6376C14.1884 32.7767 14.1562 33.0575 14.0071 33.2181C13.839 33.3992 13.5826 33.4134 10.4938 33.4134C8.40666 33.4134 7.08281 33.3721 6.95002 33.3029C6.75566 33.2014 6.73813 33.0657 6.73813 31.6654C6.73813 30.8257 6.771 30.1065 6.81121 30.0674C6.85131 30.0282 8.46846 29.9962 10.4049 29.9962C12.997 29.9962 13.9601 30.0299 14.0569 30.1243ZM5.552 38.2524C5.22539 38.5914 5.23887 39.1167 5.58279 39.4518L5.85165 39.714H8.73568C11.8563 39.714 11.9965 39.69 12.2189 39.1199C12.3421 38.8041 12.1592 38.2538 11.8833 38.1099C11.7669 38.0491 10.4489 38.0053 8.73656 38.0053C5.79852 38.0053 5.78964 38.006 5.552 38.2524ZM15.4016 38.2867C15.0942 38.6675 15.1107 39.1276 15.4435 39.4518L15.7123 39.714H18.6291H21.546L21.8791 39.3893C22.1578 39.1176 22.2011 39.0087 22.1442 38.7219C22.0044 38.0165 21.9491 38.0053 18.6216 38.0053H15.6286L15.4016 38.2867ZM25.2623 38.2867C25.0056 38.6047 24.9768 38.8735 25.1626 39.2138C25.427 39.6975 25.4923 39.707 28.5738 39.7105L31.5098 39.714L31.7786 39.4314C32.107 39.0858 32.1225 38.6613 31.8201 38.2867L31.5931 38.0053H28.5412H25.4893L25.2623 38.2867ZM35.237 38.1922C35.11 38.2949 34.9755 38.5333 34.9381 38.7219C34.8813 39.0087 34.9245 39.1176 35.2033 39.3893L35.5363 39.714H38.4532H41.37L41.6389 39.4518C41.9948 39.105 42.0018 38.5556 41.6543 38.2375C41.4068 38.0109 41.3292 38.0053 38.4343 38.0053C35.7702 38.0053 35.4444 38.0243 35.237 38.1922Z" fill="#123535"/>
</svg>
