<svg width="54" height="50" viewBox="0 0 54 50" fill="none" xmlns="http://www.w3.org/2000/svg">
<path d="M52.2 11.6667V6.66667H36V0H18V6.66667H1.8V11.6667H0V18.3333H1.8V50H52.2V18.3333H54V11.6667H52.2ZM19.8 1.66667H34.2V6.66667H19.8V1.66667ZM3.6 8.33333H50.4V11.6667H3.6V8.33333ZM26.1 42.5H24.3V44.1667H26.1V48.3333H19.8V38.3333H26.1V42.5ZM34.2 48.3333H27.9V44.1667H29.7V42.5H27.9V38.3333H34.2V48.3333ZM50.4 48.3333H36V36.6667H18V48.3333H3.6V18.3333H50.4V48.3333ZM52.2 16.6667H1.8V13.3333H52.2V16.6667Z" fill="#123535"/>
<path d="M5.3999 36.6665V43.3332H16.1999V36.6665H5.3999ZM14.3999 41.6665H7.1999V38.3332H14.3999V41.6665Z" fill="#123535"/>
<path d="M5.3999 28.3335V35.0002H16.1999V28.3335H5.3999ZM14.3999 33.3335H7.1999V30.0002H14.3999V33.3335Z" fill="#123535"/>
<path d="M5.3999 20V26.6667H16.1999V20H5.3999ZM14.3999 25H7.1999V21.6667H14.3999V25Z" fill="#123535"/>
<path d="M25.2001 3.33334H21.6001V5H25.2001V3.33334Z" fill="#123535"/>
<path d="M32.4 3.33334H27V5H32.4V3.33334Z" fill="#123535"/>
<path d="M37.7998 36.667V43.3337H48.5998V36.667H37.7998ZM46.7998 41.667H39.5998V38.3337H46.7998V41.667Z" fill="#123535"/>
<path d="M37.7998 28.333V34.9997H48.5998V28.333H37.7998ZM46.7998 33.333H39.5998V29.9997H46.7998V33.333Z" fill="#123535"/>
<path d="M37.7998 20V26.6667H48.5998V20H37.7998ZM46.7998 25H39.5998V21.6667H46.7998V25Z" fill="#123535"/>
<path d="M30.7802 21.167C27.9967 19.234 24.0478 19.7564 21.9602 22.3337C20.2802 24.4077 20.2802 27.2596 21.9602 29.3337L27.0002 35.5562L32.0402 29.3337C34.1278 26.7564 33.5636 23.1 30.7802 21.167ZM30.6002 28.3337L27.0002 32.7778L23.4002 28.3337C21.909 26.4927 22.312 23.8811 24.3002 22.5003C25.0791 21.9594 26.0265 21.667 27.0002 21.667C29.4854 21.667 31.5002 23.5325 31.5002 25.8337C31.5002 26.7352 31.1844 27.6124 30.6002 28.3337Z" fill="#123535"/>
<path d="M26.9998 23.333C25.5086 23.333 24.2998 24.4523 24.2998 25.833C24.2998 27.2137 25.5086 28.333 26.9998 28.333C28.491 28.333 29.6998 27.2137 29.6998 25.833C29.6998 24.4523 28.491 23.333 26.9998 23.333ZM26.9998 26.6663C26.5028 26.6663 26.0998 26.2932 26.0998 25.833C26.0998 25.3728 26.5028 24.9997 26.9998 24.9997C27.4968 24.9997 27.8998 25.3728 27.8998 25.833C27.8998 26.2932 27.4968 26.6663 26.9998 26.6663Z" fill="#123535"/>
</svg>
