<svg width="30" height="30" viewBox="0 0 30 30" fill="none" xmlns="http://www.w3.org/2000/svg">
<path d="M14.6458 1.54167C12.9249 1.54177 11.2208 1.88084 9.63085 2.53952C8.04092 3.19819 6.5963 4.16358 5.37947 5.38056C4.16263 6.59754 3.19742 8.04227 2.53893 9.63227C1.88043 11.2223 1.54157 12.9264 1.54167 14.6474C1.54177 16.3683 1.88084 18.0724 2.53952 19.6624C3.19819 21.2523 4.16358 22.6969 5.38056 23.9137C6.59754 25.1306 8.04227 26.0958 9.63227 26.7543C11.2223 27.4128 12.9264 27.7516 14.6474 27.7515C18.123 27.7513 21.4562 26.3704 23.9137 23.9127C26.3712 21.4549 27.7517 18.1215 27.7515 14.6458C27.7513 11.1702 26.3704 7.83698 23.9126 5.37947C21.4549 2.92196 18.1215 1.54146 14.6458 1.54167ZM14.6458 0C18.5301 0 22.2554 1.54304 25.002 4.28967C27.7486 7.03629 29.2917 10.7615 29.2917 14.6458C29.2917 18.5302 27.7486 22.2554 25.002 25.002C22.2554 27.7486 18.5301 29.2917 14.6458 29.2917C10.7615 29.2917 7.03629 27.7486 4.28967 25.002C1.54304 22.2554 0 18.5302 0 14.6458C0 10.7615 1.54304 7.03629 4.28967 4.28967C7.03629 1.54304 10.7615 0 14.6458 0ZM13.875 21.5833H15.4167V24.6667H13.875V21.5833ZM14.6458 4.625C16.0769 4.625 17.4493 5.19349 18.4613 6.2054C19.4732 7.21732 20.0417 8.58977 20.0417 10.0208C20.0417 11.4037 18.964 12.3626 17.8232 13.3755L16.3818 14.7676C15.4753 15.8067 15.3766 17.7816 15.4151 18.4553V18.5H13.875C13.8688 18.4198 13.7177 15.4722 15.2224 13.7532L16.798 12.2239C17.7107 11.413 18.5 10.7115 18.5 10.0208C18.5 8.99864 18.0939 8.01832 17.3711 7.29553C16.6483 6.57273 15.668 6.16667 14.6458 6.16667C13.6236 6.16667 12.6433 6.57273 11.9205 7.29553C11.1977 8.01832 10.7917 8.99864 10.7917 10.0208H9.25C9.25 8.58977 9.81849 7.21732 10.8304 6.2054C11.8423 5.19349 13.2148 4.625 14.6458 4.625Z" fill="white"/>
</svg>
