<svg width="18" height="21" viewBox="0 0 18 21" fill="none" xmlns="http://www.w3.org/2000/svg">
<path d="M2.55044 2.67794C4.18338 0.963283 6.39812 0 8.70744 0C11.0168 0 13.2315 0.963283 14.8644 2.67794C16.4974 4.39259 17.4148 6.71817 17.4148 9.14305C17.4148 11.5679 16.4974 13.8935 14.8644 15.6082L13.6774 16.8409C12.8024 17.7419 11.6674 18.9011 10.2714 20.3187C9.85187 20.7447 9.29107 20.9828 8.70744 20.9828C8.12381 20.9828 7.56302 20.7447 7.14344 20.3187L3.65244 16.7527C3.21344 16.3001 2.84644 15.919 2.55044 15.6082C1.74186 14.7592 1.10045 13.7513 0.662841 12.642C0.225234 11.5327 0 10.3438 0 9.14305C0 7.94236 0.225234 6.75342 0.662841 5.64413C1.10045 4.53484 1.74186 3.52693 2.55044 2.67794ZM13.8034 3.79098C12.4516 2.37181 10.6183 1.57463 8.70674 1.57483C6.79518 1.57502 4.96199 2.37258 3.61044 3.79203C2.2589 5.21149 1.49972 7.13658 1.4999 9.1438C1.50009 11.151 2.25963 13.0759 3.61144 14.4951L5.09744 16.0366C6.12392 17.0897 7.15326 18.1398 8.18544 19.1867C8.32532 19.3288 8.51232 19.4083 8.70694 19.4083C8.90157 19.4083 9.08857 19.3288 9.22844 19.1867L12.6224 15.7216C13.0924 15.2375 13.4854 14.829 13.8024 14.4951C15.1539 13.0759 15.9132 11.1511 15.9132 9.1441C15.9132 7.1371 15.1539 5.21229 13.8024 3.79308L13.8034 3.79098ZM8.70744 6.28064C9.10167 6.28064 9.49204 6.36217 9.85626 6.52059C10.2205 6.679 10.5514 6.91119 10.8302 7.2039C11.1089 7.49661 11.3301 7.84411 11.4809 8.22656C11.6318 8.60901 11.7094 9.01891 11.7094 9.43287C11.7094 9.84682 11.6318 10.2567 11.4809 10.6392C11.3301 11.0216 11.1089 11.3691 10.8302 11.6618C10.5514 11.9545 10.2205 12.1867 9.85626 12.3451C9.49204 12.5036 9.10167 12.5851 8.70744 12.5851C7.92088 12.57 7.17139 12.2313 6.62021 11.6419C6.06904 11.0525 5.76023 10.2595 5.76023 9.43339C5.76023 8.60733 6.06904 7.81428 6.62021 7.22486C7.17139 6.63544 7.92088 6.29676 8.70744 6.28169V6.28064ZM8.70744 7.8557C8.5102 7.8557 8.31488 7.8965 8.13265 7.97576C7.95042 8.05502 7.78484 8.17119 7.64537 8.31764C7.50589 8.4641 7.39526 8.63796 7.31978 8.82931C7.24429 9.02066 7.20544 9.22575 7.20544 9.43287C7.20544 9.63998 7.24429 9.84507 7.31978 10.0364C7.39526 10.2278 7.50589 10.4016 7.64537 10.5481C7.78484 10.6945 7.95042 10.8107 8.13265 10.89C8.31488 10.9692 8.5102 11.01 8.70744 11.01C9.10567 11.01 9.48758 10.8439 9.76916 10.5482C10.0507 10.2526 10.2089 9.85154 10.2089 9.43339C10.2089 9.01524 10.0507 8.61422 9.76916 8.31854C9.48758 8.02286 9.10567 7.85675 8.70744 7.85675V7.8557Z" fill="#FC7201"/>
</svg>
