<svg width="44" height="35" viewBox="0 0 44 35" fill="none" xmlns="http://www.w3.org/2000/svg">
<path d="M37.5 12C40.8137 12 43.5 9.31371 43.5 6C43.5 2.68629 40.8137 0 37.5 0C34.1863 0 31.5 2.68629 31.5 6C31.5 9.31371 34.1863 12 37.5 12Z" fill="white"/>
<path d="M32.8969 13.0687L21 21L4.5 10.0031V6L21 16.9969L30.4781 10.6781C29.5875 9.3375 29.0625 7.725 29.0625 6C29.0625 4.35 29.5406 2.80312 30.3656 1.5H4.00312C1.8 1.5 0 3.3 0 5.50312V30.5062C0 32.7094 1.8 34.5094 4.00312 34.5094H38.0062C40.2094 34.5094 42.0094 32.7094 42.0094 30.5062V13.1344C40.7062 13.9594 39.1594 14.4375 37.5094 14.4375C35.8031 14.4375 34.2188 13.9312 32.8969 13.0687Z" fill="white"/>
</svg>
