<svg width="20" height="20" viewBox="0 0 20 20" fill="none" xmlns="http://www.w3.org/2000/svg">
<path fill-rule="evenodd" clip-rule="evenodd" d="M2.23417 0.0753646C2.10057 0.143905 2.02591 0.218922 1.95826 0.352582L1.86557 0.535846L1.87685 2.559C1.88788 4.52974 1.89032 4.58505 1.9721 4.69456C2.01826 4.75638 2.10659 4.84475 2.16839 4.89093C2.27793 4.97279 2.33276 4.97519 4.33523 4.98619C6.17509 4.99629 6.40447 4.99043 6.53123 4.93028C6.91859 4.74636 6.98975 4.20414 6.66487 3.91153C6.48495 3.74944 6.34207 3.73287 5.10809 3.73087L3.92349 3.72896L4.18808 3.48355C4.76469 2.94878 5.66312 2.3603 6.4155 2.0246C8.4584 1.11313 10.6804 1.00545 12.803 1.71505C15.0102 2.45295 16.8733 4.09988 17.8951 6.21638C19.311 9.1493 18.9595 12.652 16.9852 15.2843C16.6882 15.6804 15.9941 16.4039 15.5787 16.7506C14.2724 17.8406 12.5596 18.5506 10.8291 18.7194C9.64133 18.8352 8.44924 18.6982 7.28157 18.3118C5.98552 17.8829 4.92047 17.2393 3.9495 16.2981C3.42219 15.787 3.08978 15.3903 2.70123 14.8085C1.81929 13.4878 1.26039 11.6789 1.25656 10.1325C1.25534 9.64733 1.00133 9.37272 0.582704 9.40404C0.329876 9.42293 0.187322 9.52023 0.0725701 9.75228C-0.00778461 9.91473 -0.0120588 9.96597 0.0149297 10.4446C0.158827 12.9969 1.16371 15.2792 2.92504 17.0543C4.44042 18.5815 6.40549 19.5756 8.56403 19.9071C9.37022 20.031 10.648 20.031 11.4542 19.9071C13.5792 19.5808 15.5122 18.6164 17.0118 17.1345C18.5774 15.5873 19.572 13.6348 19.9072 11.4502C20.0309 10.6437 20.0309 9.36531 19.9072 8.55874C19.4042 5.28043 17.4041 2.52996 14.4415 1.04259C13.027 0.332423 11.6364 0.0110186 9.98876 0.0135028C9.00138 0.0149689 8.33909 0.0980487 7.45987 0.330794C5.9694 0.725341 4.43879 1.55162 3.37765 2.53448L3.13325 2.76088L3.12133 1.58C3.10997 0.46083 3.10496 0.393226 3.02542 0.286729C2.81232 0.00140738 2.52705 -0.0748305 2.23417 0.0753646ZM9.69327 5.72572C9.45888 5.87294 9.39884 6.02322 9.39868 6.46326L9.39851 6.85206L9.10718 6.90203C8.47387 7.01069 7.96654 7.39192 7.69552 7.96289C7.56469 8.23852 7.54673 8.31614 7.53265 8.66634C7.52076 8.96233 7.53428 9.11395 7.58708 9.27767C7.7278 9.71396 8.01396 10.0947 8.37552 10.3269C8.75173 10.5684 8.84983 10.5872 9.86664 10.6125C10.9515 10.6394 11.0174 10.6584 11.1832 10.9916C11.2998 11.226 11.2768 11.4498 11.1165 11.6405C10.9223 11.8713 10.874 11.8779 9.37784 11.8779C8.0826 11.8779 8.00277 11.8822 7.84845 11.9609C7.63397 12.0704 7.52634 12.2518 7.52618 12.5043C7.52597 12.7617 7.63971 12.9464 7.86604 13.056C8.02084 13.131 8.11565 13.1403 8.71937 13.1403H9.39851L9.39868 13.5374C9.39884 13.9865 9.45762 14.1353 9.69327 14.2833C9.88142 14.4014 10.2492 14.3775 10.3991 14.2374C10.5821 14.0663 10.6197 13.9467 10.6197 13.5352V13.1523L10.9126 13.1039C11.5472 12.999 12.0491 12.6225 12.3228 12.0459C12.4535 11.7705 12.4715 11.6928 12.4856 11.3426C12.4975 11.0467 12.4839 10.895 12.4312 10.7313C12.2904 10.295 12.0043 9.91424 11.6427 9.68211C11.2665 9.44057 11.1684 9.42179 10.1516 9.3965C9.06672 9.36954 9.00085 9.35061 8.83501 9.01735C8.71843 8.78302 8.74147 8.55915 8.90177 8.36851C9.09558 8.13809 9.14548 8.13121 10.6286 8.13023C11.8765 8.12941 11.997 8.12318 12.1555 8.05114C12.3782 7.95002 12.4918 7.76549 12.492 7.50469C12.4923 7.24726 12.3785 7.06261 12.1522 6.95298C11.9974 6.87801 11.9026 6.86864 11.2989 6.86864H10.6197V6.47971C10.6197 6.06191 10.5827 5.94324 10.3991 5.77162C10.2492 5.63144 9.88142 5.60754 9.69327 5.72572Z" fill="#024849"/>
</svg>
