<svg width="32" height="32" viewBox="0 0 32 32" fill="none" xmlns="http://www.w3.org/2000/svg">
<g clip-path="url(#clip0_49_511)">
<path d="M30.4305 28.9379H27.8903L27.3291 26.7142C27.8163 26.6639 28.1973 26.251 28.1973 25.7509V24.876C28.1983 24.3303 27.7422 23.8904 27.1975 23.9074V21.1265C27.1975 20.5924 26.763 20.1579 26.2289 20.1579H19.8549C19.3208 20.1579 18.8863 20.5924 18.8863 21.1265V23.9074C18.3415 23.8905 17.8854 24.3303 17.8864 24.876V25.7509C17.8864 26.251 18.2675 26.6639 18.7546 26.7142L18.1935 28.9379H16.4687V10.8552H31.276C31.5268 10.8552 31.7556 10.7284 31.8882 10.516C32.0201 10.3048 32.0337 10.0452 31.9245 9.82163C30.9967 7.92208 29.8304 6.26438 28.4581 4.89469C28.0069 4.47131 27.3705 5.10591 27.7959 5.55816C29.0183 6.77818 30.0699 8.24366 30.9248 9.91781H26.2164C25.0092 6.04134 23.3389 3.33809 20.9337 1.61177C22.6289 2.08327 24.4668 2.86997 26.1939 4.16798C26.4009 4.32339 26.6947 4.28171 26.8501 4.07487C27.0056 3.8679 26.9639 3.57412 26.757 3.41858C23.7534 1.13702 19.8248 -0.00613053 16 0.00443051C9.7619 -0.141737 3.01802 3.33284 0.0755497 9.82182C-0.0337476 10.0452 -0.0202495 10.3048 0.11167 10.516C0.244339 10.7284 0.473182 10.8552 0.72396 10.8552H15.5313V28.9379H13.8065L13.2453 26.7142C13.7325 26.6639 14.1135 26.251 14.1135 25.7509V24.876C14.1145 24.3303 13.6584 23.8904 13.1137 23.9074V21.1265C13.1137 20.5924 12.6792 20.1579 12.1451 20.1579H8.77197C8.51313 20.1579 8.30328 20.3677 8.30328 20.6266C8.30328 20.8855 8.51313 21.0953 8.77197 21.0953H12.1451C12.1623 21.0953 12.1763 21.1093 12.1763 21.1265V23.9074H5.73983V21.1265C5.73983 21.1093 5.75383 21.0953 5.77107 21.0953H6.55721C6.81605 21.0953 7.0259 20.8855 7.0259 20.6266C7.0259 20.3677 6.81605 20.1579 6.55721 20.1579H5.77107C5.23696 20.1579 4.80246 20.5924 4.80246 21.1265V23.9074C4.25772 23.8905 3.8016 24.3303 3.8026 24.876V25.7509C3.8026 26.251 4.18373 26.6639 4.67079 26.7142L4.10968 28.9379H1.56953C0.705462 28.9379 0.00243488 29.6409 0.00243488 30.505V31.2573C0.00243488 31.6669 0.335576 32 0.745144 32H31.2549C31.6644 32 31.9976 31.6669 31.9976 31.2573V30.505C31.9975 29.6409 31.2945 28.9379 30.4305 28.9379ZM25.2346 9.91781H20.2262C19.6402 5.68745 19.2459 3.41846 17.8431 1.18002C21.6899 2.31242 23.7315 5.42587 25.2346 9.91781ZM8.50538 2.5487C9.37651 2.14107 10.2443 1.83261 11.0824 1.6004C8.66467 3.32928 6.99403 6.03297 5.78357 9.91781H1.0751C2.80692 6.52434 5.30526 4.04612 8.50538 2.5487ZM11.3632 2.55533C12.3327 1.81887 13.2957 1.40417 14.1569 1.18002C12.7549 3.41577 12.3588 5.69039 11.7739 9.91781H6.76544C7.84266 6.53096 9.38788 4.05581 11.3632 2.55533ZM14.5186 2.39441C17.1054 -2.54928 18.9637 6.48647 19.2822 9.91787H12.7178C13.1387 6.44835 13.744 3.9187 14.5186 2.39441ZM19.8236 21.1265C19.8236 21.1093 19.8376 21.0953 19.8549 21.0953C19.8912 21.1274 26.2629 21.0345 26.26 21.1264L26.2601 23.9074H19.8236V21.1265ZM18.8238 24.876C18.8238 24.8588 18.8378 24.8447 18.855 24.8447C18.8869 24.8754 27.2663 24.7858 27.2599 24.8759L27.26 25.7509C27.26 25.768 27.246 25.7821 27.2287 25.7821C27.1968 25.7515 18.8175 25.841 18.8238 25.7509L18.8238 24.876ZM19.72 26.7195H26.3637L26.9235 28.9379H19.1602L19.72 26.7195ZM4.73997 24.876C4.73997 24.8588 4.75396 24.8447 4.77121 24.8447C4.80314 24.8754 13.1825 24.7858 13.1761 24.8759L13.1762 25.7509C13.1762 25.768 13.1622 25.7821 13.1449 25.7821C13.113 25.7515 4.73365 25.841 4.74003 25.7509L4.73997 24.876ZM5.63628 26.7195H12.28L12.8398 28.9379H5.07642L5.63628 26.7195ZM31.0602 31.0626H0.939805V30.505C0.939805 30.1578 1.22227 29.8753 1.56953 29.8753H4.47319C11.1981 29.8754 20.8029 29.8753 27.5269 29.8753H30.4305C30.7777 29.8753 31.0602 30.1578 31.0602 30.505V31.0626Z" fill="#185C5C"/>
<path d="M30.4305 28.9379H27.8903L27.3291 26.7142C27.8163 26.6639 28.1973 26.251 28.1973 25.7509V24.876C28.1983 24.3303 27.7422 23.8904 27.1975 23.9074V21.1265C27.1975 20.5924 26.763 20.1579 26.2289 20.1579H19.8549C19.3208 20.1579 18.8863 20.5924 18.8863 21.1265V23.9074C18.3415 23.8905 17.8854 24.3303 17.8864 24.876V25.7509C17.8864 26.251 18.2675 26.6639 18.7546 26.7142L18.1935 28.9379H16.4687V10.8552H31.276C31.5268 10.8552 31.7556 10.7284 31.8882 10.516C32.0201 10.3048 32.0337 10.0452 31.9245 9.82163C30.9967 7.92208 29.8304 6.26438 28.4581 4.89469C28.0069 4.47131 27.3705 5.10591 27.7959 5.55816C29.0183 6.77818 30.0699 8.24366 30.9248 9.91781H26.2164C25.0092 6.04134 23.3389 3.33809 20.9337 1.61177C22.6289 2.08327 24.4668 2.86997 26.1939 4.16798C26.4009 4.32339 26.6947 4.28171 26.8501 4.07487C27.0056 3.8679 26.9639 3.57412 26.757 3.41858C23.7534 1.13702 19.8248 -0.00613053 16 0.00443051C9.7619 -0.141737 3.01802 3.33284 0.0755497 9.82182C-0.0337476 10.0452 -0.0202495 10.3048 0.11167 10.516C0.244339 10.7284 0.473182 10.8552 0.72396 10.8552H15.5313V28.9379H13.8065L13.2453 26.7142C13.7325 26.6639 14.1135 26.251 14.1135 25.7509V24.876C14.1145 24.3303 13.6584 23.8904 13.1137 23.9074V21.1265C13.1137 20.5924 12.6792 20.1579 12.1451 20.1579H8.77197C8.51313 20.1579 8.30328 20.3677 8.30328 20.6266C8.30328 20.8855 8.51313 21.0953 8.77197 21.0953H12.1451C12.1623 21.0953 12.1763 21.1093 12.1763 21.1265V23.9074H5.73983V21.1265C5.73983 21.1093 5.75383 21.0953 5.77107 21.0953H6.55721C6.81605 21.0953 7.0259 20.8855 7.0259 20.6266C7.0259 20.3677 6.81605 20.1579 6.55721 20.1579H5.77107C5.23696 20.1579 4.80246 20.5924 4.80246 21.1265V23.9074C4.25772 23.8905 3.8016 24.3303 3.8026 24.876V25.7509C3.8026 26.251 4.18373 26.6639 4.67079 26.7142L4.10968 28.9379H1.56953C0.705462 28.9379 0.00243488 29.6409 0.00243488 30.505V31.2573C0.00243488 31.6669 0.335576 32 0.745144 32H31.2549C31.6644 32 31.9976 31.6669 31.9976 31.2573V30.505C31.9975 29.6409 31.2945 28.9379 30.4305 28.9379ZM25.2346 9.91781H20.2262C19.6402 5.68745 19.2459 3.41846 17.8431 1.18002C21.6899 2.31242 23.7315 5.42587 25.2346 9.91781ZM8.50538 2.5487C9.37651 2.14107 10.2443 1.83261 11.0824 1.6004C8.66467 3.32928 6.99403 6.03297 5.78357 9.91781H1.0751C2.80692 6.52434 5.30526 4.04612 8.50538 2.5487ZM11.3632 2.55533C12.3327 1.81887 13.2957 1.40417 14.1569 1.18002C12.7549 3.41577 12.3588 5.69039 11.7739 9.91781H6.76544C7.84266 6.53096 9.38788 4.05581 11.3632 2.55533ZM14.5186 2.39441C17.1054 -2.54928 18.9637 6.48647 19.2822 9.91787H12.7178C13.1387 6.44835 13.744 3.9187 14.5186 2.39441ZM19.8236 21.1265C19.8236 21.1093 19.8376 21.0953 19.8549 21.0953C19.8912 21.1274 26.2629 21.0345 26.26 21.1264L26.2601 23.9074H19.8236V21.1265ZM18.8238 24.876C18.8238 24.8588 18.8378 24.8447 18.855 24.8447C18.8869 24.8754 27.2663 24.7858 27.2599 24.8759L27.26 25.7509C27.26 25.768 27.246 25.7821 27.2287 25.7821C27.1968 25.7515 18.8175 25.841 18.8238 25.7509L18.8238 24.876ZM19.72 26.7195H26.3637L26.9235 28.9379H19.1602L19.72 26.7195ZM4.73997 24.876C4.73997 24.8588 4.75396 24.8447 4.77121 24.8447C4.80314 24.8754 13.1825 24.7858 13.1761 24.8759L13.1762 25.7509C13.1762 25.768 13.1622 25.7821 13.1449 25.7821C13.113 25.7515 4.73365 25.841 4.74003 25.7509L4.73997 24.876ZM5.63628 26.7195H12.28L12.8398 28.9379H5.07642L5.63628 26.7195ZM31.0602 31.0626H0.939805V30.505C0.939805 30.1578 1.22227 29.8753 1.56953 29.8753H4.47319C11.1981 29.8754 20.8029 29.8753 27.5269 29.8753H30.4305C30.7777 29.8753 31.0602 30.1578 31.0602 30.505V31.0626Z" fill="black" fill-opacity="0.2"/>
<path d="M25.9018 4.29389L28.3018 6.42723L29.2983 5.30611L26.8983 3.17278L25.9018 4.29389Z" fill="#185C5C"/>
<path d="M25.9018 4.29389L28.3018 6.42723L29.2983 5.30611L26.8983 3.17278L25.9018 4.29389Z" fill="black" fill-opacity="0.2"/>
</g>
<defs>
<clipPath id="clip0_49_511">
<rect width="32" height="32" fill="white"/>
</clipPath>
</defs>
</svg>
