<svg width="18" height="18" viewBox="0 0 18 18" fill="none" xmlns="http://www.w3.org/2000/svg">
<path d="M8.57202 1.4498C8.70673 1.03521 9.29327 1.0352 9.42798 1.4498L10.9572 6.15618C11.1111 6.63001 11.5527 6.95081 12.0509 6.95081H16.9995C17.4354 6.95081 17.6166 7.50864 17.264 7.76487L13.2605 10.6736C12.8574 10.9664 12.6888 11.4855 12.8427 11.9593L14.3719 16.6657C14.5066 17.0803 14.0321 17.425 13.6794 17.1688L9.67595 14.2601C9.27289 13.9673 8.72711 13.9673 8.32405 14.2601L4.32055 17.1688C3.96789 17.425 3.49337 17.0803 3.62808 16.6657L5.15727 11.9593C5.31123 11.4855 5.14257 10.9664 4.73951 10.6736L0.736021 7.76487C0.38335 7.50864 0.564598 6.95081 1.00053 6.95081H5.94911C6.44732 6.95081 6.88887 6.63001 7.04283 6.15618L8.57202 1.4498Z" stroke="#FC7201" stroke-width="0.7"/>
</svg>
