<svg width="32" height="32" viewBox="0 0 32 32" fill="none" xmlns="http://www.w3.org/2000/svg">
<g clip-path="url(#clip0_49_475)">
<path d="M18.1412 20.2549C18.1412 23.1985 20.5275 25.5847 23.471 25.5847C26.4143 25.5847 28.8005 23.1985 28.8005 20.2549C28.8005 17.3116 26.4143 14.9254 23.471 14.9254C20.5287 14.9286 18.1445 17.3129 18.1412 20.2549ZM23.471 15.9912C25.8258 15.9912 27.7347 17.9001 27.7347 20.2549C27.7347 22.6097 25.8258 24.5186 23.471 24.5186C21.1162 24.5186 19.2073 22.6097 19.2073 20.2549C19.2099 17.9014 21.1172 15.9938 23.471 15.9912Z" fill="#185C5C"/>
<path d="M18.1412 20.2549C18.1412 23.1985 20.5275 25.5847 23.471 25.5847C26.4143 25.5847 28.8005 23.1985 28.8005 20.2549C28.8005 17.3116 26.4143 14.9254 23.471 14.9254C20.5287 14.9286 18.1445 17.3129 18.1412 20.2549ZM23.471 15.9912C25.8258 15.9912 27.7347 17.9001 27.7347 20.2549C27.7347 22.6097 25.8258 24.5186 23.471 24.5186C21.1162 24.5186 19.2073 22.6097 19.2073 20.2549C19.2099 17.9014 21.1172 15.9938 23.471 15.9912Z" fill="black" fill-opacity="0.2"/>
<path d="M20.4253 30.9144H26.5166V31.9802H20.4253V30.9144Z" fill="#185C5C"/>
<path d="M20.4253 30.9144H26.5166V31.9802H20.4253V30.9144Z" fill="black" fill-opacity="0.2"/>
<path d="M18.1412 28.7824H28.8008V29.8485H18.1412V28.7824Z" fill="#185C5C"/>
<path d="M18.1412 28.7824H28.8008V29.8485H18.1412V28.7824Z" fill="black" fill-opacity="0.2"/>
<path d="M6.41565 28.7824H7.48169V29.8485H6.41565V28.7824Z" fill="#185C5C"/>
<path d="M6.41565 28.7824H7.48169V29.8485H6.41565V28.7824Z" fill="black" fill-opacity="0.2"/>
<path d="M3.21802 29.8484H4.28384V30.9144H3.21802V29.8484Z" fill="#185C5C"/>
<path d="M3.21802 29.8484H4.28384V30.9144H3.21802V29.8484Z" fill="black" fill-opacity="0.2"/>
<path d="M6.46922 25.7834C9.25214 20.9365 10.9983 15.5644 11.5969 10.0076L16.5536 14.9349C16.6527 15.0336 16.7867 15.0892 16.9266 15.0899C16.9554 15.0901 16.9845 15.0877 17.0129 15.083C17.1819 15.0555 17.3272 14.9484 17.4035 14.7953C18.4083 12.7899 18.0148 10.3663 16.4272 8.78181L15.9913 8.34577H19.7401C20.0344 8.34598 20.2733 8.10753 20.2733 7.81318C20.2735 7.75555 20.2641 7.69836 20.246 7.64396C19.5382 5.51533 17.5463 4.07989 15.3031 4.08204H14.6103L17.2719 1.40491C17.4796 1.19634 17.4788 0.858988 17.2702 0.651285C17.2298 0.611077 17.1834 0.577535 17.1324 0.552164C15.1261 -0.453671 12.7012 -0.0604105 11.1157 1.52811L10.6067 2.03705C10.4407 2.20411 10.2866 2.38215 10.1447 2.57007C10.0045 2.38215 9.85139 2.20411 9.68669 2.03705L9.17775 1.52811C7.59353 -0.0593355 5.16989 -0.452596 3.16489 0.552164C2.9015 0.683752 2.79464 1.00391 2.92622 1.26708C2.9516 1.31804 2.98514 1.36449 3.02535 1.40491L5.69001 4.08204H4.99036C2.74712 4.07989 0.755014 5.51533 0.0474042 7.64396C-0.0459118 7.92305 0.104813 8.22493 0.384116 8.31824C0.438514 8.33652 0.495708 8.34577 0.553332 8.34577H4.29844L3.86261 8.78181C2.27495 10.3663 1.88147 12.7899 2.88602 14.7953C2.96256 14.9484 3.10791 15.0555 3.2767 15.083C3.30529 15.0877 3.3341 15.0901 3.36313 15.0899C3.50397 15.0899 3.63899 15.0342 3.73876 14.9349L8.35446 10.3465C7.78295 15.4537 5.85944 20.316 2.78216 24.4318C2.06574 24.2437 1.33942 24.0955 0.606655 23.9884L0.273599 23.9549L0.166952 25.016L0.477647 25.0463C1.01067 25.1226 1.54024 25.2304 2.06703 25.3523C1.96038 25.486 1.85373 25.6219 1.74343 25.7537L2.56092 26.4375C6.65671 21.5678 9.09841 15.5223 9.53338 9.174L10.1468 8.56444L10.6061 9.02112C10.0458 15.8102 7.71544 22.3339 3.84756 27.9415L4.72051 28.5523C5.13958 27.9542 5.53929 27.3334 5.92674 26.7008C8.41983 27.8933 10.6211 29.6179 12.3756 31.7532L13.2 31.0779C12.1626 29.8166 10.974 28.6876 9.66067 27.7166H31.9985V26.6505H8.08161C7.55913 26.3351 7.01987 26.0494 6.46922 25.7834ZM16.731 13.6072L11.0998 8.00841C12.5401 7.57838 14.1003 7.96863 15.1685 9.02629L15.6774 9.53544C16.7437 10.5998 17.147 12.1593 16.731 13.6072ZM18.9269 7.27994H14.514C13.4862 6.79079 12.3266 6.65232 11.2126 6.88604C11.9882 5.79549 13.2434 5.14787 14.5817 5.14808H15.3011C16.8077 5.14572 18.1965 5.96234 18.9269 7.27994ZM11.3586 2.79067L11.8678 2.28173C12.933 1.21527 14.4931 0.811685 15.9417 1.22795L12.7822 4.40607C11.7568 4.78342 10.8766 5.47447 10.2661 6.38076C10.0182 5.07691 10.4272 3.73437 11.3604 2.79067H11.3586ZM8.42262 2.28173L8.93156 2.79067C9.16893 3.03299 9.37492 3.30434 9.54456 3.59805C9.3031 4.15945 9.16528 4.75955 9.13733 5.36976C8.65892 4.95178 8.10784 4.62538 7.51182 4.40607L4.35177 1.22795C5.79988 0.8119 7.35959 1.21548 8.42413 2.28173H8.42262ZM4.98864 5.14808H5.70829C7.04739 5.14679 8.30436 5.7942 9.08078 6.88539C7.96744 6.65253 6.8083 6.791 5.78118 7.27994H1.36651C2.0967 5.96298 3.4844 5.14658 4.99036 5.14808H4.98864ZM3.56245 13.6072C3.1464 12.1593 3.54998 10.5998 4.61623 9.53544L5.12517 9.02629C5.89191 8.26148 6.93172 7.83339 8.01495 7.83683C8.41467 7.83704 8.81223 7.89402 9.19603 8.00626L3.56245 13.6072Z" fill="#185C5C"/>
<path d="M6.46922 25.7834C9.25214 20.9365 10.9983 15.5644 11.5969 10.0076L16.5536 14.9349C16.6527 15.0336 16.7867 15.0892 16.9266 15.0899C16.9554 15.0901 16.9845 15.0877 17.0129 15.083C17.1819 15.0555 17.3272 14.9484 17.4035 14.7953C18.4083 12.7899 18.0148 10.3663 16.4272 8.78181L15.9913 8.34577H19.7401C20.0344 8.34598 20.2733 8.10753 20.2733 7.81318C20.2735 7.75555 20.2641 7.69836 20.246 7.64396C19.5382 5.51533 17.5463 4.07989 15.3031 4.08204H14.6103L17.2719 1.40491C17.4796 1.19634 17.4788 0.858988 17.2702 0.651285C17.2298 0.611077 17.1834 0.577535 17.1324 0.552164C15.1261 -0.453671 12.7012 -0.0604105 11.1157 1.52811L10.6067 2.03705C10.4407 2.20411 10.2866 2.38215 10.1447 2.57007C10.0045 2.38215 9.85139 2.20411 9.68669 2.03705L9.17775 1.52811C7.59353 -0.0593355 5.16989 -0.452596 3.16489 0.552164C2.9015 0.683752 2.79464 1.00391 2.92622 1.26708C2.9516 1.31804 2.98514 1.36449 3.02535 1.40491L5.69001 4.08204H4.99036C2.74712 4.07989 0.755014 5.51533 0.0474042 7.64396C-0.0459118 7.92305 0.104813 8.22493 0.384116 8.31824C0.438514 8.33652 0.495708 8.34577 0.553332 8.34577H4.29844L3.86261 8.78181C2.27495 10.3663 1.88147 12.7899 2.88602 14.7953C2.96256 14.9484 3.10791 15.0555 3.2767 15.083C3.30529 15.0877 3.3341 15.0901 3.36313 15.0899C3.50397 15.0899 3.63899 15.0342 3.73876 14.9349L8.35446 10.3465C7.78295 15.4537 5.85944 20.316 2.78216 24.4318C2.06574 24.2437 1.33942 24.0955 0.606655 23.9884L0.273599 23.9549L0.166952 25.016L0.477647 25.0463C1.01067 25.1226 1.54024 25.2304 2.06703 25.3523C1.96038 25.486 1.85373 25.6219 1.74343 25.7537L2.56092 26.4375C6.65671 21.5678 9.09841 15.5223 9.53338 9.174L10.1468 8.56444L10.6061 9.02112C10.0458 15.8102 7.71544 22.3339 3.84756 27.9415L4.72051 28.5523C5.13958 27.9542 5.53929 27.3334 5.92674 26.7008C8.41983 27.8933 10.6211 29.6179 12.3756 31.7532L13.2 31.0779C12.1626 29.8166 10.974 28.6876 9.66067 27.7166H31.9985V26.6505H8.08161C7.55913 26.3351 7.01987 26.0494 6.46922 25.7834ZM16.731 13.6072L11.0998 8.00841C12.5401 7.57838 14.1003 7.96863 15.1685 9.02629L15.6774 9.53544C16.7437 10.5998 17.147 12.1593 16.731 13.6072ZM18.9269 7.27994H14.514C13.4862 6.79079 12.3266 6.65232 11.2126 6.88604C11.9882 5.79549 13.2434 5.14787 14.5817 5.14808H15.3011C16.8077 5.14572 18.1965 5.96234 18.9269 7.27994ZM11.3586 2.79067L11.8678 2.28173C12.933 1.21527 14.4931 0.811685 15.9417 1.22795L12.7822 4.40607C11.7568 4.78342 10.8766 5.47447 10.2661 6.38076C10.0182 5.07691 10.4272 3.73437 11.3604 2.79067H11.3586ZM8.42262 2.28173L8.93156 2.79067C9.16893 3.03299 9.37492 3.30434 9.54456 3.59805C9.3031 4.15945 9.16528 4.75955 9.13733 5.36976C8.65892 4.95178 8.10784 4.62538 7.51182 4.40607L4.35177 1.22795C5.79988 0.8119 7.35959 1.21548 8.42413 2.28173H8.42262ZM4.98864 5.14808H5.70829C7.04739 5.14679 8.30436 5.7942 9.08078 6.88539C7.96744 6.65253 6.8083 6.791 5.78118 7.27994H1.36651C2.0967 5.96298 3.4844 5.14658 4.99036 5.14808H4.98864ZM3.56245 13.6072C3.1464 12.1593 3.54998 10.5998 4.61623 9.53544L5.12517 9.02629C5.89191 8.26148 6.93172 7.83339 8.01495 7.83683C8.41467 7.83704 8.81223 7.89402 9.19603 8.00626L3.56245 13.6072Z" fill="black" fill-opacity="0.2"/>
</g>
<defs>
<clipPath id="clip0_49_475">
<rect width="32" height="32" fill="white"/>
</clipPath>
</defs>
</svg>
