<svg width="33" height="33" viewBox="0 0 33 33" fill="none" xmlns="http://www.w3.org/2000/svg">
<g clip-path="url(#clip0_49_517)">
<path d="M22.6709 18.0348C18.9703 15.5084 14.0588 15.4885 10.3291 18.0348C9.21425 18.7958 9.0693 20.39 10.0271 21.3478C10.7592 22.08 11.9194 22.1865 12.7863 21.5992C15.0205 20.0853 17.9712 20.0797 20.2136 21.5992C21.7445 22.6366 23.7684 21.428 23.5985 19.6117C23.5387 18.9712 23.2005 18.3964 22.6709 18.0348ZM22.2436 20.6186C21.86 21.0022 21.2496 21.0555 20.7921 20.7455C18.2095 18.9955 14.8007 18.9886 12.2079 20.7455C11.7504 21.0556 11.14 21.0022 10.7564 20.6186C10.2552 20.1174 10.3297 19.283 10.9106 18.8865C14.2688 16.5938 18.7186 16.5852 22.0895 18.8865C22.6714 19.2838 22.7438 20.1184 22.2436 20.6186Z" fill="#185C5C"/>
<path d="M22.6709 18.0348C18.9703 15.5084 14.0588 15.4885 10.3291 18.0348C9.21425 18.7958 9.0693 20.39 10.0271 21.3478C10.7592 22.08 11.9194 22.1865 12.7863 21.5992C15.0205 20.0853 17.9712 20.0797 20.2136 21.5992C21.7445 22.6366 23.7684 21.428 23.5985 19.6117C23.5387 18.9712 23.2005 18.3964 22.6709 18.0348ZM22.2436 20.6186C21.86 21.0022 21.2496 21.0555 20.7921 20.7455C18.2095 18.9955 14.8007 18.9886 12.2079 20.7455C11.7504 21.0556 11.14 21.0022 10.7564 20.6186C10.2552 20.1174 10.3297 19.283 10.9106 18.8865C14.2688 16.5938 18.7186 16.5852 22.0895 18.8865C22.6714 19.2838 22.7438 20.1184 22.2436 20.6186Z" fill="black" fill-opacity="0.2"/>
<path d="M27.5164 13.4253C21.0983 8.24509 11.9124 8.23658 5.48373 13.4253C4.48542 14.2311 4.40885 15.7296 5.31673 16.6374C6.10035 17.4209 7.34312 17.4864 8.20775 16.7894C13.0219 12.9086 19.9458 12.8825 24.7924 16.7894C26.2463 17.9615 28.4147 16.8615 28.315 14.9897C28.2826 14.379 27.9915 13.8088 27.5164 13.4253ZM26.9542 15.9081C26.5441 16.3183 25.893 16.3521 25.4396 15.9865C20.249 11.8024 12.7859 11.7743 7.56059 15.9865C7.10716 16.3521 6.45606 16.3182 6.04595 15.9081C5.58125 15.4434 5.59749 14.6587 6.13148 14.2278C12.1506 9.36972 20.8089 9.33678 26.8688 14.2278C27.403 14.659 27.4187 15.4437 26.9542 15.9081Z" fill="#185C5C"/>
<path d="M27.5164 13.4253C21.0983 8.24509 11.9124 8.23658 5.48373 13.4253C4.48542 14.2311 4.40885 15.7296 5.31673 16.6374C6.10035 17.4209 7.34312 17.4864 8.20775 16.7894C13.0219 12.9086 19.9458 12.8825 24.7924 16.7894C26.2463 17.9615 28.4147 16.8615 28.315 14.9897C28.2826 14.379 27.9915 13.8088 27.5164 13.4253ZM26.9542 15.9081C26.5441 16.3183 25.893 16.3521 25.4396 15.9865C20.249 11.8024 12.7859 11.7743 7.56059 15.9865C7.10716 16.3521 6.45606 16.3182 6.04595 15.9081C5.58125 15.4434 5.59749 14.6587 6.13148 14.2278C12.1506 9.36972 20.8089 9.33678 26.8688 14.2278C27.403 14.659 27.4187 15.4437 26.9542 15.9081Z" fill="black" fill-opacity="0.2"/>
<path d="M32.9984 10.3431C32.976 9.7431 32.7022 9.17444 32.2473 8.78289C23.1965 0.991533 9.78671 1.0061 0.752771 8.78282C0.297864 9.17444 0.0240693 9.7431 0.0016398 10.3431C-0.0689358 12.233 2.15461 13.2883 3.58089 12.0612C11.0065 5.67144 22.0074 5.68342 29.4191 12.0612C30.8476 13.2901 33.0689 12.2309 32.9984 10.3431ZM31.6365 11.2258C31.2197 11.6427 30.5412 11.6662 30.0918 11.2795C22.2801 4.55763 10.7072 4.56859 2.90832 11.2795C2.4589 11.6663 1.78034 11.6426 1.36352 11.2258C0.8994 10.7617 0.922281 9.99769 1.42559 9.56437C10.0893 2.10631 22.9269 2.12016 31.5745 9.56444C32.0719 9.99253 32.1061 10.7562 31.6365 11.2258Z" fill="#185C5C"/>
<path d="M32.9984 10.3431C32.976 9.7431 32.7022 9.17444 32.2473 8.78289C23.1965 0.991533 9.78671 1.0061 0.752771 8.78282C0.297864 9.17444 0.0240693 9.7431 0.0016398 10.3431C-0.0689358 12.233 2.15461 13.2883 3.58089 12.0612C11.0065 5.67144 22.0074 5.68342 29.4191 12.0612C30.8476 13.2901 33.0689 12.2309 32.9984 10.3431ZM31.6365 11.2258C31.2197 11.6427 30.5412 11.6662 30.0918 11.2795C22.2801 4.55763 10.7072 4.56859 2.90832 11.2795C2.4589 11.6663 1.78034 11.6426 1.36352 11.2258C0.8994 10.7617 0.922281 9.99769 1.42559 9.56437C10.0893 2.10631 22.9269 2.12016 31.5745 9.56444C32.0719 9.99253 32.1061 10.7562 31.6365 11.2258Z" fill="black" fill-opacity="0.2"/>
<path d="M16.5 30.0553C14.5098 30.0553 12.8906 28.4361 12.8906 26.4459C12.8906 24.4556 14.5098 22.8365 16.5 22.8365C18.4902 22.8365 20.1094 24.4556 20.1094 26.4459C20.1094 28.4361 18.4902 30.0553 16.5 30.0553ZM16.5 23.8678C15.0784 23.8678 13.9219 25.0243 13.9219 26.4459C13.9219 27.8675 15.0784 29.024 16.5 29.024C17.9216 29.024 19.0781 27.8675 19.0781 26.4459C19.0781 25.0243 17.9216 23.8678 16.5 23.8678Z" fill="#185C5C"/>
<path d="M16.5 30.0553C14.5098 30.0553 12.8906 28.4361 12.8906 26.4459C12.8906 24.4556 14.5098 22.8365 16.5 22.8365C18.4902 22.8365 20.1094 24.4556 20.1094 26.4459C20.1094 28.4361 18.4902 30.0553 16.5 30.0553ZM16.5 23.8678C15.0784 23.8678 13.9219 25.0243 13.9219 26.4459C13.9219 27.8675 15.0784 29.024 16.5 29.024C17.9216 29.024 19.0781 27.8675 19.0781 26.4459C19.0781 25.0243 17.9216 23.8678 16.5 23.8678Z" fill="black" fill-opacity="0.2"/>
</g>
<defs>
<clipPath id="clip0_49_517">
<rect width="33" height="33" fill="white"/>
</clipPath>
</defs>
</svg>
